<svg xmlns="http://www.w3.org/2000/svg" width="153.349" height="49.645" viewBox="0 0 153.349 49.645">
  <g id="Cleys" transform="translate(-38.3 -49.6)">
    <path id="Path_1" data-name="Path 1" d="M55.1,97.807l17.3-9.9V77.9L55.1,87.69Z" transform="translate(1.475 1.438)" fill="#e55226"/>
    <path id="Path_2" data-name="Path 2" d="M56.123,69.289,60.8,66.679,73.528,59.5,55.905,49.6,38.5,59.39Z" transform="translate(0.018)" fill="#e55226"/>
    <path id="Path_3" data-name="Path 3" d="M72.4,69.408V59.4L55.1,69.19V79.2Z" transform="translate(1.475 0.499)" fill="#e55226"/>
    <path id="Path_4" data-name="Path 4" d="M55.161,88.989l-7.941-4.46h0V74.412l8.485,4.9V69.19L38.3,59.4V89.641l17.405,9.79V89.315Z" transform="translate(0 -0.186)" fill="#e55226"/>
    <path id="Path_5" data-name="Path 5" d="M101.809,89.726a17.846,17.846,0,0,1-7.832,1.523C85.6,91.249,79.4,85.374,79.4,74.5c0-10.334,6.309-17.3,15.556-17.3a15.723,15.723,0,0,1,7.071,1.414l-.979,3.481a12.752,12.752,0,0,0-5.983-1.414c-6.962,0-11.64,5-11.64,13.6,0,8.05,4.134,13.271,11.422,13.271a13.525,13.525,0,0,0,6.309-1.414Z" transform="translate(2.706 0.147)" fill="#040304"/>
    <path id="Path_6" data-name="Path 6" d="M104.5,57.7h3.916V87.18h12.727v3.59H104.609V57.7Z" transform="translate(4.91 0.191)" fill="#040304"/>
    <path id="Path_7" data-name="Path 7" d="M138.938,75.323H127.407V87.289h12.945v3.59H123.6V57.7h16.1v3.59H127.516V71.733h11.531v3.59Z" transform="translate(6.587 0.191)" fill="#040304"/>
    <path id="Path_8" data-name="Path 8" d="M150.355,90.77V76.737L141,57.7h4.46l4.134,9.138c1.088,2.5,2.067,4.569,2.937,6.853h.109a70.617,70.617,0,0,1,3.046-6.853l4.243-9.138h4.351l-9.9,19.037V90.77Z" transform="translate(8.115 0.191)" fill="#040304"/>
    <path id="Path_9" data-name="Path 9" d="M164.579,85.592a12.182,12.182,0,0,0,6.853,2.067c3.916,0,6.2-2.284,6.2-5.548,0-3.046-1.632-4.9-5.548-6.527-4.9-1.849-7.832-4.678-7.832-9.355,0-5.113,3.807-9.029,9.573-9.029a13.012,13.012,0,0,1,6.527,1.523L179.265,62.2a10.26,10.26,0,0,0-5.548-1.523c-4.025,0-5.548,2.72-5.548,5,0,3.046,1.849,4.569,5.874,6.309,5,2.176,7.506,4.9,7.506,9.682,0,5-3.372,9.573-10.334,9.573a14.327,14.327,0,0,1-7.615-2.176Z" transform="translate(10.1 0.147)" fill="#040304"/>
  </g>
</svg>
