<svg xmlns="http://www.w3.org/2000/svg" width="13.987" height="14" viewBox="0 0 13.987 14">
  <path id="icon-tel" d="M13.133-3.492,10.448-4.643a1.428,1.428,0,0,0-1.673.409l-.75.916A8.158,8.158,0,0,1,5.071-6.247L5.989-7A1.438,1.438,0,0,0,6.4-8.667l-1.157-2.72A1.436,1.436,0,0,0,3.6-12.213l-2.5.576A1.423,1.423,0,0,0,0-10.243,12,12,0,0,0,11.993,1.75,1.376,1.376,0,0,0,13.363.641l.576-2.5A1.387,1.387,0,0,0,13.133-3.492Zm-.448,1.34-.577,2.5a.147.147,0,0,1-.115.09,10.692,10.692,0,0,1-10.68-10.68.114.114,0,0,1,.091-.115l2.5-.576a.109.109,0,0,1,.026,0,.122.122,0,0,1,.111.071L5.19-8.177a.119.119,0,0,1-.034.138L3.823-6.97a.656.656,0,0,0-.173.8A9.354,9.354,0,0,0,7.9-1.921a.664.664,0,0,0,.8-.173L9.793-3.431a.113.113,0,0,1,.135-.031l2.687,1.151A.177.177,0,0,1,12.685-2.152Z" transform="translate(0 12.25)" fill="#e65125"/>
</svg>
