<svg xmlns="http://www.w3.org/2000/svg" width="14" height="10.5" viewBox="0 0 14 10.5">
  <path id="icon-mail" d="M12.25-10.5H1.75A1.75,1.75,0,0,0,0-8.75v7A1.75,1.75,0,0,0,1.75,0h10.5A1.75,1.75,0,0,0,14-1.75v-7A1.751,1.751,0,0,0,12.25-10.5ZM1.75-9.187h10.5a.438.438,0,0,1,.438.438v.606L8.127-4.368a1.806,1.806,0,0,1-2.255,0L1.313-8.143V-8.75a.438.438,0,0,1,.438-.437Zm10.5,7.875H1.75a.438.438,0,0,1-.438-.437V-6.434l3.721,3.1A3.091,3.091,0,0,0,7-2.625a3.085,3.085,0,0,0,1.968-.71l3.72-3.1V-1.75A.439.439,0,0,1,12.25-1.312Z" transform="translate(0 10.5)" fill="#e65125"/>
</svg>
