<svg xmlns="http://www.w3.org/2000/svg" width="10.5" height="14" viewBox="0 0 10.5 14">
  <path id="icon-calc" d="M5.25-2.844A.656.656,0,0,0,5.906-3.5a.656.656,0,0,0-.656-.656.655.655,0,0,0-.656.656A.655.655,0,0,0,5.25-2.844Zm0-2.406a.656.656,0,0,0,.656-.656.656.656,0,0,0-.656-.656.655.655,0,0,0-.656.656A.655.655,0,0,0,5.25-5.25ZM7.656-2.844A.656.656,0,0,0,8.313-3.5a.656.656,0,0,0-.656-.656A.655.655,0,0,0,7-3.5.655.655,0,0,0,7.656-2.844Zm0-2.406a.656.656,0,0,0,.656-.656.656.656,0,0,0-.656-.656A.655.655,0,0,0,7-5.906.655.655,0,0,0,7.656-5.25Zm0,4.813a.656.656,0,0,0,.656-.656.656.656,0,0,0-.656-.656A.655.655,0,0,0,7-1.094.655.655,0,0,0,7.656-.437Zm-4.812,0H5.031a.656.656,0,0,0,.656-.656.656.656,0,0,0-.656-.656H2.844a.656.656,0,0,0-.656.656A.656.656,0,0,0,2.844-.437ZM8.75-12.25h-7A1.75,1.75,0,0,0,0-10.5V0A1.75,1.75,0,0,0,1.75,1.75h7A1.75,1.75,0,0,0,10.5,0V-10.5A1.751,1.751,0,0,0,8.75-12.25ZM9.188,0A.438.438,0,0,1,8.75.438h-7A.438.438,0,0,1,1.313,0V-7.437H9.188Zm0-8.75H1.313V-10.5a.437.437,0,0,1,.438-.437h7a.437.437,0,0,1,.438.438ZM2.844-5.25A.655.655,0,0,0,3.5-5.906a.655.655,0,0,0-.656-.656.655.655,0,0,0-.656.656.655.655,0,0,0,.656.656Zm0,2.406A.655.655,0,0,0,3.5-3.5a.655.655,0,0,0-.656-.656.655.655,0,0,0-.656.656.655.655,0,0,0,.656.656Z" transform="translate(0 12.25)" fill="#e65125"/>
</svg>
