<svg xmlns="http://www.w3.org/2000/svg" width="17" height="12.75" viewBox="0 0 17 12.75">
  <path id="icon-mail-white" d="M14.875-12.75H2.125A2.125,2.125,0,0,0,0-10.625v8.5A2.125,2.125,0,0,0,2.125,0h12.75A2.125,2.125,0,0,0,17-2.125v-8.5A2.126,2.126,0,0,0,14.875-12.75ZM2.125-11.156h12.75a.532.532,0,0,1,.531.531v.736L9.868-5.3a2.193,2.193,0,0,1-2.738,0L1.594-9.888v-.737a.532.532,0,0,1,.531-.531Zm12.75,9.563H2.125a.532.532,0,0,1-.531-.531V-7.813L6.113-4.047a3.753,3.753,0,0,0,2.387.86,3.746,3.746,0,0,0,2.39-.863l4.517-3.763v5.688A.533.533,0,0,1,14.875-1.594Z" transform="translate(0 12.75)" fill="#fff"/>
</svg>
