<svg xmlns="http://www.w3.org/2000/svg" width="16.984" height="17" viewBox="0 0 16.984 17">
  <path id="icon-tel-white" d="M15.947-4.24l-3.261-1.4a1.734,1.734,0,0,0-2.032.5L9.744-4.029A9.906,9.906,0,0,1,6.158-7.585L7.272-8.5a1.746,1.746,0,0,0,.5-2.027l-1.405-3.3a1.744,1.744,0,0,0-1.988-1l-3.03.7A1.727,1.727,0,0,0,0-12.438,14.577,14.577,0,0,0,14.563,2.125,1.671,1.671,0,0,0,16.226.779l.7-3.033A1.684,1.684,0,0,0,15.947-4.24ZM15.4-2.613,14.7.422a.179.179,0,0,1-.14.109A12.983,12.983,0,0,1,1.593-12.438a.138.138,0,0,1,.111-.14l3.033-.7a.132.132,0,0,1,.032,0,.148.148,0,0,1,.134.087L6.3-9.93a.145.145,0,0,1-.042.168l-1.619,1.3a.8.8,0,0,0-.211.968A11.358,11.358,0,0,0,9.594-2.333a.807.807,0,0,0,.968-.211l1.328-1.623a.137.137,0,0,1,.163-.037l3.263,1.4A.215.215,0,0,1,15.4-2.613Z" transform="translate(0 14.875)" fill="#fff"/>
</svg>
