<svg xmlns="http://www.w3.org/2000/svg" width="505.535" height="413.443" viewBox="0 0 505.535 413.443">
  <g id="reviews-map" transform="translate(-473.75 -3784.668)">
    <path id="Path_24" data-name="Path 24" d="M197.555,5.788c.183.36.183,1.615-.183,1.794-.183.18-.731-.18-1.1,0-.548.18-.731,1.794-.914,2.332a5.867,5.867,0,0,1,0,1.794,5.2,5.2,0,0,1-1.644,1.077,4.748,4.748,0,0,1-2.193-.9,3.641,3.641,0,0,1-1.28-1.615,3.537,3.537,0,0,1-.364-2.334c.181-.717,1.278-1.435,1.827-1.793a5.113,5.113,0,0,1,1.827-1.615,5.3,5.3,0,0,1,2.376,0,2.9,2.9,0,0,1,1.644,1.255" transform="translate(593.54 3786.882)" fill="#d83a0b" stroke="#fff" stroke-width="0.5" fill-rule="evenodd"/>
    <path id="Path_28" data-name="Path 28" d="M140.484,96.99c-.181,0-.364-.181-.546-.364a5.662,5.662,0,0,0-1.09-.727h-.91c-.363.181-.544.727-.727.91-.181.363-.181.909-.546,1.092-.181.181-.727.181-.909.181a2.566,2.566,0,0,1-1.09-.364,7.653,7.653,0,0,1-.91-1.273,3.275,3.275,0,0,1-.909-1.275c-.181-.363-.727-1.092-.727-1.455,0-.547.181-1.456.181-1.821V89.711a8.187,8.187,0,0,0-.181-2c-.181-.181-.546-.729-.727-.91-.181-.364-.727-.727-.727-1.092-.183-.181-.183-.91-.183-1.275,0-.181-.181-.909,0-1.092a2.872,2.872,0,0,1,1.273-1.273,6.379,6.379,0,0,1,1.454-.91c.729-.364,2.183-.91,2.911-1.275a13.215,13.215,0,0,0,1.636-.909h2.909a7.853,7.853,0,0,0,2.909.181,14.3,14.3,0,0,0,2.546-.363c.546-.183,1.638-.729,2.182-.91.364-.364,1.273-.91,1.638-1.275a7.578,7.578,0,0,0,1.273-2,9.245,9.245,0,0,0,.363-2.365c0-.546-.181-1.821-.181-2.548a12.674,12.674,0,0,0-.909-2.366,11.22,11.22,0,0,0-1.273-2.548,19.517,19.517,0,0,0-1.273-2,31.813,31.813,0,0,1-1.636-3.64,15.5,15.5,0,0,1-.546-4.185,12.358,12.358,0,0,1,.546-3.458,16.017,16.017,0,0,1,1.636-3.64c.181-.546,1.09-1.456,1.09-2,.183-.364,0-1.092,0-1.456a5.173,5.173,0,0,0-1.09-1.638c-.181-.364-1.092-.546-1.455-.727a7.4,7.4,0,0,1-1.638-.91,2.666,2.666,0,0,1-1.09-.91c-.183-.363-.183-1.092-.364-1.456a5.337,5.337,0,0,0-.363-1.638,15.968,15.968,0,0,0-.364-2.911c-.181-.364-.727-1.275-.909-1.639a4.335,4.335,0,0,0-.909-.91,1.961,1.961,0,0,0-1.092-.363c0-.183-.181-.364-.364-.546.183-.729.183-2.366.546-2.912a6.112,6.112,0,0,1,2.909-1.819c1.092-.547,4.911-.547,5.092-.547a23.575,23.575,0,0,1,3.455,1.093c.727.546,1.636,2.365,2.363,2.729a18.44,18.44,0,0,0,4.547,1.092,10.783,10.783,0,0,0,4.182,0,6.336,6.336,0,0,0,2.363-2,6.065,6.065,0,0,0,.364-3.094c-.181-.727-1.455-2-2-2.729s-2.182-2-2.728-2.912a10.287,10.287,0,0,1-.727-2.183c.181-.729,1.273-1.821,1.273-2.548a4.493,4.493,0,0,0-.181-2.183c-.183-.364-.91-.729-1.092-.91a5.047,5.047,0,0,1,.181-1.638c.364-.729,2.182-.729,2.911-.91s2.363,0,3.09-.183A9.728,9.728,0,0,0,168.3,7.817c.729-.546,1.638-1.821,2.365-2.366a15.51,15.51,0,0,1,2.546-1.092,14.944,14.944,0,0,1,4-.364,6.074,6.074,0,0,1,1.819,1.093,4.565,4.565,0,0,1,.181,2.729,21.521,21.521,0,0,1-1.636,2.729,17.134,17.134,0,0,0-.727,2.912c.181.727.546,2.183,1.092,2.548a2.948,2.948,0,0,0,2.182.181c.727-.181,1.455-1.092,2.182-1.273a12.261,12.261,0,0,1,3.636.181c.909.181,2.728,1.456,3.819,1.638,1.09.364,3.636,1.275,4.545.546.364-.363.183-1.456.183-2a8.878,8.878,0,0,1-.183-2.183,8.782,8.782,0,0,1,1.638-2,22.111,22.111,0,0,1,2.545-1.819,28.329,28.329,0,0,0,2.365-2.183c.727-.546,2.363-2,3.09-2.731.546-.546,1.092-2.183,1.819-2.548a6.6,6.6,0,0,1,3.09-1.273,8.444,8.444,0,0,1,3.092.546,17.9,17.9,0,0,1,3.273,1.456,7.624,7.624,0,0,1,2,2.729,3.28,3.28,0,0,1-.183,1.821,12.688,12.688,0,0,0-1.09,1.638,10.219,10.219,0,0,0,0,2.365c0,.91.363,2.731.363,3.641,0,.544.181,1.455-.181,1.638-.364.363-1.273-.183-1.636-.364s-1.092-.91-1.454-1.092a4.361,4.361,0,0,0-1.638-.546,3.23,3.23,0,0,0-1.817.727,2.9,2.9,0,0,0-1.273,1.638,4.905,4.905,0,0,0,.909,2,7.215,7.215,0,0,0,2.728,1.821c.727.363,2.363,0,3.273-.183a30.7,30.7,0,0,1,4.364-1.455c.909,0,2.728-.364,3.455,0,.727.181,2,1.455,2.728,1.819a5.35,5.35,0,0,0,2.363.91,6.435,6.435,0,0,0,2.546-.546,5.657,5.657,0,0,0,1.636-1.275l1.456-2.183c.363-.546,1.271-1.638,1.817-2.366a16.3,16.3,0,0,0,1.638-1.819c.363-.546,1.455-1.638,1.817-2.183A30.5,30.5,0,0,0,239.95,8c.181-.727.181-2.183.363-2.911.181-.364.546-1.275.91-1.456.363,0,1.09.546,1.454.727a12.891,12.891,0,0,1,2.545,1.821A15.13,15.13,0,0,1,248.5,8.544a7.957,7.957,0,0,1,1.636,3.277,14.621,14.621,0,0,1,.183,2.729,15.581,15.581,0,0,1-.183,2.912c-.181.727-1.09,2-1.272,2.729a9.929,9.929,0,0,0-.183,3.275,8.161,8.161,0,0,0,.91,3.458c.544.91,2.909,2.183,3.455,3.094a6.4,6.4,0,0,1,1.09,2.548,16.077,16.077,0,0,1,.91,2.731,13.826,13.826,0,0,0,1.09,2.911,7.849,7.849,0,0,0,1.819,1.639,23.237,23.237,0,0,0,3.455.181c.909-.181,2.728-.727,3.636-.91.546,0,1.819-.181,2.365.183a2.9,2.9,0,0,1,1.271,1.638A5.228,5.228,0,0,1,268.5,43.3a16.6,16.6,0,0,1-1.454,2.366c-.181.546-.727,1.456-.546,2a1.858,1.858,0,0,0,.91,1.456c-.183.363-.183.727-.364.909,0,.546-.364,1.275-.364,1.821a11.126,11.126,0,0,0-.544,2.366,13.946,13.946,0,0,0-.364,2.729c0,.364-.181,1.273-.181,1.819a3.386,3.386,0,0,0,.363,1.275,2.785,2.785,0,0,0,.727,1.092c.183.181.546.727.91.91.181.181.909.546,1.273.91a4.6,4.6,0,0,1,1.817,1.455,4.16,4.16,0,0,1,1.273,1.821c.181.546.546,1.819.727,2.548a12.931,12.931,0,0,1-.181,2.729,6.772,6.772,0,0,1-.727,2.731,6.975,6.975,0,0,1-2,2,4.722,4.722,0,0,1-1.455.546h-2c-.181-.181-.364-.546-.546-.546a1.16,1.16,0,0,0-1.09,0c-.183,0-.546.729-.729.91-.181.364-.544.91-.726,1.275-.183.181-.729.727-.91.727-.363.183-1.09.183-1.273.364-.546.181-1.454.363-2,.546a23.734,23.734,0,0,0-3.09,1.456,11.071,11.071,0,0,0-1.819,1.273c-.546.364-1.455,1.638-2.182,2.183-.546.547-1.636,1.456-2.182,2a12.57,12.57,0,0,1-2.728,1.275,15.673,15.673,0,0,1-2.909.181c-.546.183-2,.364-2.546.546a9.13,9.13,0,0,0-2.182,1.456,5.436,5.436,0,0,0-.727,1.821,5.483,5.483,0,0,1-.727,1.819,2.944,2.944,0,0,1-.727,1.275,9.764,9.764,0,0,1-2,.909c-.183.183-.546.183-.91.364a2.7,2.7,0,0,0-1.09-.181c-.546.181-1.638.364-2.182.546a9.375,9.375,0,0,0-2.365,1.092c-.546.181-1.636.91-2.182,1.092a11.962,11.962,0,0,1-2.728.91c-.363.181-1.454.181-2,.364a4.3,4.3,0,0,0-1.455.363,9.065,9.065,0,0,1-1.454,1.275c-.181.364-.727.91-1.092.91a5.613,5.613,0,0,1-1.817.181c-.364-.181-.91-.364-1.273-.546a10.249,10.249,0,0,1-.91-1.456,6.689,6.689,0,0,0-1.09-1.273c-.181-.183-.546-.91-.909-.91a3.081,3.081,0,0,0-1.273-.183h-1.819a3.39,3.39,0,0,0-1.273.364c-.546.183-1.455.546-2,.729a5.773,5.773,0,0,1-1.636.546c-.181.181-.909.181-1.092.363a10.1,10.1,0,0,0-1.636,1.275,7.718,7.718,0,0,0-.909,1.273c-.183.183-.364.546-.546.729a1.1,1.1,0,0,1-.727.181l-.364-.364c-.181-.363,0-1.092-.181-1.455a3.782,3.782,0,0,0-.363-1.093,6.245,6.245,0,0,0-1.092-.546c-.181,0-.727-.363-.909-.363-.546,0-1.455.181-1.819.181a14.579,14.579,0,0,1-1.636.727c-.183,0-.91.183-1.092.183-.363,0-.909-.183-1.092-.183a8.843,8.843,0,0,0-1.271.547,5.628,5.628,0,0,0-1.092.727,2.42,2.42,0,0,0-.546.91c-.363.363-.727,1.092-1.09,1.456-.183.181-.364.727-.546.909s-.546.364-.727.546a3.1,3.1,0,0,1-1.273-.181,1.544,1.544,0,0,1-.909-.546c-.364-.181-.91-.727-1.273-.91a2.635,2.635,0,0,0-1.273-.364c-.364,0-1.092.364-1.455.364-.364.183-.909.364-1.273.546-.181,0-.727.183-1.092.183h-1.273a3.939,3.939,0,0,0-.909-.729c-.181,0-.546-.364-.909-.364a3.075,3.075,0,0,0-1.092.547c-.363.181-.727.546-1.09.727-.183,0-.727.181-.91.181h-1.817a1.926,1.926,0,0,1-.91-.363c-.363-.183-.727-.364-1.09-.546-.181-.183-.546-.729-.727-.729a6.08,6.08,0,0,0-1.819,0c-.363.181-.909.546-1.273.729-.363,0-1.09.181-1.455.181-.546,0-1.454-.181-1.817-.181-.183-.183-.91-.547-1.092-.729-.181-.364-.181-1.273-.364-1.638,0-.181-.363-.546-.363-.91-.181-.364.181-.91.181-1.092a4.531,4.531,0,0,0-.181-1.638c0-.183-.364-.729-.546-.729a2.707,2.707,0,0,0-1.09-.181,2.182,2.182,0,0,0-.91.91c-.181.364.181,1.273,0,1.638-.181.181-.546.546-.727.546s-.727,0-.909-.181-.364-.729-.546-.91c0-.181-.363-.364-.546-.546s-.363-.729-.546-.91c-.363-.181-1.271.364-1.636.181-.364,0-1.092-.546-1.454-.727s-.909-.727-1.273-.91c-.364-.363-1.09-.727-1.273-1.092-.363-.181-.727-.727-.909-.727a1.088,1.088,0,0,0-.727-.183c-.181-.181-.546,0-.727,0-.183.183-.546.364-.727.546s-.546.364-.727.546l-1.092.548c-.181,0-.363.363-.546.363a.178.178,0,0,1-.181-.181" transform="translate(555.862 3784.41)" fill="#d83a0b" stroke="#fff" stroke-width="0.5" fill-rule="evenodd"/>
    <path id="Path_32" data-name="Path 32" d="M119.856,140.218a.178.178,0,0,1-.181.181,6.53,6.53,0,0,1-1.275,1.814c-.909.907-2.911,2.358-3.821,3.265-.909.726-2.546,2.358-3.457,3.084a20.47,20.47,0,0,1-3.275,2.177,6.932,6.932,0,0,1-2.729.907,8.966,8.966,0,0,1-2.729-1.814c-.727-.544-1.273-2.177-1.636-3.084-.364-.544-.546-2-.91-2.54a6.724,6.724,0,0,0-2.548-1.27,12.272,12.272,0,0,0-3.638-.181c-.91,0-2.548.544-3.275.181s-1.275-2-1.821-2.358a12.652,12.652,0,0,0-2.365-.907,25.2,25.2,0,0,0-3.64.544.943.943,0,0,1-.727.363,1.367,1.367,0,0,0-.364-.726,16.463,16.463,0,0,0-1.273-2.54c-.546-.363-1.819-.726-2.546-1.088a8.89,8.89,0,0,0-2-.726,4.768,4.768,0,0,0-1.456.544,15.636,15.636,0,0,1-1.819,1.27c-.364.181-1.092.726-1.456.907a5.618,5.618,0,0,1-1.819.181c-.546,0-1.819-.181-2.548-.181a7.387,7.387,0,0,0-2,0c-.364,0-.727.363-1.273.726a2.535,2.535,0,0,0-.546-.726c-.183-.363-.546-.907-.729-1.27-.363-.363-.546-1.451-.727-1.814-.181-.544-.546-1.27-.727-1.814,0-.363.181-1.088,0-1.27-.183-.363-1.092-.544-1.456-.544a8.884,8.884,0,0,0-2.183.181c-.364,0-.91.726-1.273.907-.364,0-1.092.181-1.638.181-.183,0-.91-.181-1.092,0a2.184,2.184,0,0,0-.91.907c-.181.181-.181.726-.181.907a5.991,5.991,0,0,1,.546,1.088,6.865,6.865,0,0,1,1.092,1.27v1.27c-.183.181-.546.544-.729.544-.363.181-.909.363-1.273.544s-.91.726-1.273.907c-.546.181-1.275.363-1.819.544a3.983,3.983,0,0,1-.91.726,5.623,5.623,0,0,1-1.819.181H43.985a6.448,6.448,0,0,1-1.638-.726,3.791,3.791,0,0,0-1.092-.363c-.364,0-1.092.544-1.456.726-.181.181-.727.544-.727.726-.183.363,0,.907,0,1.27,0,.181-.364.544-.364.907,0,.181.364.544.546.726,0,.363-.181.907-.181,1.27.181.544.546,1.633.727,2.177.181.181.181.363.181.726l-1.092-.544a15.694,15.694,0,0,0-2.911-.181,17.691,17.691,0,0,1-3.092-.181,6.954,6.954,0,0,1-1.821-.544,4.551,4.551,0,0,1-1.092-2.54c-.181-.726.91-1.814.729-2.358-.183-.726-2-1.633-2.729-2.177a7.955,7.955,0,0,1-1.275-.726c-.181-.726.546-2,.364-2.721a4.9,4.9,0,0,0-1.273-1.451c-.546-.363-1.821-.363-2.183-.726a5.317,5.317,0,0,1-1.275-2.177c-.363-.726-.727-2.177-1.09-2.9-.364-.544-1.092-2-1.821-2.358a5.572,5.572,0,0,0-3.457-.363,11.149,11.149,0,0,0-2.183.907,8.226,8.226,0,0,1-2,.544A3.6,3.6,0,0,1,9.6,127.52c-.363-.726.364-2.358.183-3.084A14.764,14.764,0,0,0,7.959,122.8c-.363-.363-1.273-1.271-1.273-1.816-.181-.544.91-1.45,1.092-2a19.872,19.872,0,0,0,.91-3.082c.181-.727.546-2.36.181-3.086-.181-.726-1.456-1.633-1.638-2.177a7.724,7.724,0,0,1-.364-3.447,9.189,9.189,0,0,1,.364-2.358,34.121,34.121,0,0,1,2.183-3.265,10.76,10.76,0,0,0,1.092-2,22.689,22.689,0,0,0-.546-3.447A30.291,30.291,0,0,0,8.5,92.506a15.821,15.821,0,0,0-2-1.633c-.546-.363-1.821-.363-2.183-.726-.364-.544-.183-2-.364-2.54a20.124,20.124,0,0,0-.91-2.358c-.181-.544-1.092-1.451-1.273-2.177s.546-2.36.546-3.265a17.68,17.68,0,0,0-.364-3.084c-.181-.544-.727-1.453-.909-2C.864,74.364.681,73.459.5,72.913V71.28c.364-.181.727-.181.91-.363A41.838,41.838,0,0,0,5.594,69.1c1.819-.907,5.094-2.9,6.732-3.81,1.821-.907,5.277-2.54,6.915-3.447,2.183-1.27,6.186-3.991,8.188-5.261,2-1.088,5.64-2.9,7.64-3.991A21.56,21.56,0,0,0,37.8,50.963a33.837,33.837,0,0,0,3.458-2c.727-.363,2.365-.907,3.092-1.27a25.5,25.5,0,0,1,2.912-1.814c1.273-.726,3.638-2.358,4.911-3.265.729-.544,2.548-1.814,3.458-2.358.727-.544,2.546-2,3.275-2.54a30.933,30.933,0,0,1,2.546-1.814,37.817,37.817,0,0,0,3.094-2.54c1.092-.727,3.275-2.36,4.184-3.086.91-.544,2.366-1.633,3.094-2.177a19.906,19.906,0,0,1,2.729-1.451,8.884,8.884,0,0,1,2.183-.181h2.548a23.5,23.5,0,0,0,3.819-.907,33.944,33.944,0,0,0,4-1.27c.727-.181,2.183-.363,2.911-.544.91-.363,2.729-1.088,3.821-1.451.546-.361,1.819-.907,2.365-1.27a25.349,25.349,0,0,0,3.458-1.088c.727-.181,2.182-.907,2.911-1.088a37.1,37.1,0,0,1,4-1.633c.364-.181,1.456-.726,2-1.088,0,.181.181.544.181.726.181.363.546,1.27.727,1.633.183.544,1.092,1.633,1.092,2.358a5.5,5.5,0,0,1-.546,2.9c-.181.544-1.273,1.451-1.455,2.177a4.384,4.384,0,0,0,0,2.177c.181.726,1.273,1.814,1.455,2.541a6.2,6.2,0,0,1-.181,2.538,14.552,14.552,0,0,0-.181,2.723,8.361,8.361,0,0,0,1.638,2.721c.363.363.727.544,1.092.907-.183.181-.183.544-.364.726v1.814a10.254,10.254,0,0,1,0,2.358c-.181.544-1.456.907-1.638,1.27a3.7,3.7,0,0,0-.91,1.633,11.977,11.977,0,0,0,.183,2.54c.181.363.363,1.451.546,1.814a16.511,16.511,0,0,0,1.638,3.084c.363.726.909,2,1.273,2.54a16.117,16.117,0,0,1,.546,2.54,17.083,17.083,0,0,1-.546,1.633c-.181.181-.91.544-.91.907-.181.363.364,1.27.183,1.633s-.91.726-1.092.907a15.179,15.179,0,0,0-1.456,2.177,16.069,16.069,0,0,1-1.273,1.816c-.364.18-1.456.724-1.821.905s-1.273.544-1.455.907a1.367,1.367,0,0,0-.546,1.451,3.835,3.835,0,0,0,.546,1.271,13.042,13.042,0,0,0,1.638,1.088c.546.18,1.638.544,2.183.724.546.364,1.638,1.088,2.183,1.453a23.236,23.236,0,0,1,1.455,3.084c.364.361.91,1.088,1.273,1.451.364.181,1.092.363,1.638.544a6.09,6.09,0,0,1,1.821,0,2.5,2.5,0,0,1,.909,1.451c0,.363-.363.907-.546.907-.363.363-1.273.363-1.455.544-.364.363-.183,1.088-.183,1.451a18.769,18.769,0,0,0,.729,1.814c.181.544.546,1.451.727,2a8.219,8.219,0,0,1,.546,2.9c0,.544-.727,1.451-.91,2-.363.544-1.455,1.27-1.819,1.814a7.809,7.809,0,0,0,0,2.9,6.668,6.668,0,0,0,.364,1.633c.181.181.181.726.546.907.181.363,1.273.363,1.638.544a5.731,5.731,0,0,1,1.092.726,3.417,3.417,0,0,1,.363,1.451,3.487,3.487,0,0,1-.546,1.814c-.363.363-1.092.726-1.455,1.088s-1.092.907-1.456,1.27c-.181.363-.727,1.27-.91,1.633-.181.544-.727,1.633-.546,2s.729.544.91.726a8.794,8.794,0,0,0,2.183,0c.546,0,1.456-.363,1.819-.181s1.092.544,1.092.907c.364.544.183,2,.183,2.54v3.448c0,.361-.183,1.088,0,1.45.181.544,1.092.909,1.455,1.088l1.456,1.453c.364.363.727,1.27,1.092,1.633a27.331,27.331,0,0,1,1.092,3.628,25.047,25.047,0,0,1,.546,3.628,5.336,5.336,0,0,1-.364,2.358,9.138,9.138,0,0,1-2.365.907,18.458,18.458,0,0,0-2.365,1.633,10.3,10.3,0,0,0-1.456,2.358" transform="translate(473.5 3794.325)" fill="#d83a0b" stroke="#fff" stroke-width="0.5" fill-rule="evenodd"/>
    <path id="Path_36" data-name="Path 36" d="M137.318,146.962h0a6.793,6.793,0,0,1-1.273-1.09c-.181-.363-.544-1.451-.727-1.816-.363-.363-.909-1.088-1.455-1.27s-1.817.363-2.363.544a13.467,13.467,0,0,0-2.182,1.271c-.546.181-1.273.726-1.817.544-.364,0-.91-.544-1.273-.726-.181-.183-.727-.546-.909-.727a5.8,5.8,0,0,0-1.638-.544,7.465,7.465,0,0,0-2-.181,6.732,6.732,0,0,1-2.546-1.271,3.544,3.544,0,0,1-.181-1.453,6.4,6.4,0,0,0-.727-1.634c-.181-.181-.727-.181-.909-.181a4.277,4.277,0,0,0-1.454.363c-.181.181-.546.909-.91.909a3.1,3.1,0,0,1-1.817,0c-.181-.181-.546-1.09-.727-1.271-.364-.181-1.273-.544-1.636-.726a8.872,8.872,0,0,0-2.182.181,4.994,4.994,0,0,0-1.636,1.27,5.211,5.211,0,0,0-1.455,2.362,10.34,10.34,0,0,0-.727,2.541,22.1,22.1,0,0,1-.91,2.543,2.069,2.069,0,0,1-.544,1.088,1.5,1.5,0,0,1-1.092.727c-.181.181-.909.544-1.09.363-.364-.181-.183-.907-.364-1.271-.181-.181-.546-.726-.909-.726-.181-.181-.727-.181-.909-.363-.727,0-2.365.363-3.273.363a7.466,7.466,0,0,1-2-.181,7.5,7.5,0,0,1-2-1.271,23.145,23.145,0,0,1-1.636-2.906c-.183-.544,0-1.816-.364-2.179-.181-.363-.909-.544-1.273-.544a8.024,8.024,0,0,0-1.817.363c-.364,0-1.273.544-1.819.544a9.628,9.628,0,0,1-2.182-.544c-.363-.181-1.09-.363-1.455-.544s-1.09-.364-1.455-.546c0-.181-.181-.363-.363-.544a10.251,10.251,0,0,1,1.455-2.36,18.3,18.3,0,0,1,2.363-1.634,9.127,9.127,0,0,0,2.363-.909,5.343,5.343,0,0,0,.364-2.36,25.056,25.056,0,0,0-.546-3.631,27.529,27.529,0,0,0-1.09-3.631c-.364-.364-.727-1.272-1.092-1.634s-1.09-1.09-1.455-1.453c-.363-.181-1.273-.544-1.455-1.09-.181-.363,0-1.088,0-1.453v-3.45c0-.544.181-2-.181-2.541,0-.363-.727-.726-1.092-.909s-1.271.183-1.817.183a8.782,8.782,0,0,1-2.182,0c-.181-.183-.727-.364-.909-.727s.363-1.453.544-2c.183-.363.727-1.271.91-1.634.363-.363,1.09-.909,1.455-1.271s1.09-.726,1.455-1.088a3.506,3.506,0,0,0,.544-1.816,3.419,3.419,0,0,0-.363-1.453,5.628,5.628,0,0,0-1.092-.727c-.363-.181-1.455-.181-1.636-.544-.363-.181-.363-.726-.546-.907a6.759,6.759,0,0,1-.363-1.634,7.825,7.825,0,0,1,0-2.906c.363-.544,1.455-1.271,1.817-1.816.183-.544.91-1.453.91-2a8.23,8.23,0,0,0-.546-2.906c-.181-.544-.546-1.453-.727-2a18.844,18.844,0,0,1-.727-1.816c0-.363-.181-1.09.181-1.453.181-.181,1.092-.181,1.455-.544.181,0,.546-.546.546-.909a2.5,2.5,0,0,0-.909-1.453,6.08,6.08,0,0,0-1.819,0,17.065,17.065,0,0,1-1.636-.544c-.364-.363-.909-1.09-1.273-1.453a23.568,23.568,0,0,0-1.455-3.087l-2.182-1.451L66.411,72.7a12.9,12.9,0,0,1-1.636-1.088,3.868,3.868,0,0,1-.546-1.271,1.373,1.373,0,0,1,.546-1.453c.181-.363,1.092-.727,1.455-.909l1.819-.907a15.721,15.721,0,0,0,1.271-1.816,15.314,15.314,0,0,1,1.455-2.179c.181-.181.909-.546,1.092-.909s-.364-1.271-.183-1.634c0-.363.727-.726.91-.907.181-.364.363-1.09.544-1.634a16.094,16.094,0,0,0-.544-2.543c-.364-.544-.91-1.816-1.273-2.541a16.589,16.589,0,0,1-1.636-3.087c-.181-.363-.364-1.453-.546-1.816a12.007,12.007,0,0,1-.181-2.543,3.713,3.713,0,0,1,.909-1.633c.181-.364,1.455-.727,1.636-1.271a10.282,10.282,0,0,0,0-2.362V38.378c.181-.181.181-.544.364-.726a38.052,38.052,0,0,0,4.364,2.541,14.666,14.666,0,0,0,4,1.271,12.744,12.744,0,0,0,4.545,0c.91-.181,3.092-1.09,3.636-2a3.5,3.5,0,0,0,0-2.362c0-.544-.363-1.633-.363-2.179a5.6,5.6,0,0,1,.909-2.179A15.946,15.946,0,0,1,90.775,31.3a44.319,44.319,0,0,1,4.364-1.816c.909-.363,2.907-1.09,3.818-.726.727,0,1.817,1.634,2.726,2a9.593,9.593,0,0,0,3.273.726c.546,0,2-.544,2.545-.363.91.363,2.182,2.179,2.909,2.906a15.944,15.944,0,0,0,1.819,1.453,15.947,15.947,0,0,0,2.909.363,49.115,49.115,0,0,1,5.091.726,9.569,9.569,0,0,1,2.726,2,5.343,5.343,0,0,1,.91,2.362c.363.907.181,2.906.363,3.813a6.1,6.1,0,0,0,.909,2.541,12.157,12.157,0,0,0,2.728,1.09c.727,0,2-.181,2.546-.181.909,0,2.545-.181,3.272.181.909.181,2.363,1.634,3.09,1.634a2.44,2.44,0,0,0,1.638-.181c.363-.181.544-1.09.909-1.453a2.3,2.3,0,0,1,1.636-.726c.546-.183,1.636.363,2.182.363a2.964,2.964,0,0,0,2.182-.181c.909-.364,2-2,2.545-2.724a23.758,23.758,0,0,1,2-2.179,11.147,11.147,0,0,1,3.09-1.271c1.273-.544,3.636-1.271,4.728-1.816a28.656,28.656,0,0,0,3.636-1.271A25.856,25.856,0,0,1,163.5,36.2a30.185,30.185,0,0,1,2.545-2.36c1.638-1.09,4.909-3.269,6.545-4.54,1.273-1.09,3.818-3.269,5.091-4.54.546-.726,2-2,2.546-2.9.363-.546.909-2,1.272-2.724.183.181.364.363.364.544a1.939,1.939,0,0,1,1.09.364c.364.181.727.726.91.907.181.363.727,1.271.909,1.634a15.913,15.913,0,0,1,.363,2.906,5.263,5.263,0,0,1,.365,1.634c.181.363.181,1.088.363,1.453a2.676,2.676,0,0,0,1.092.907,7.382,7.382,0,0,0,1.636.909c.364.181,1.273.363,1.455.726.363.181.909,1.271,1.092,1.634,0,.363.181,1.09,0,1.453,0,.544-.91,1.453-1.092,2a15.96,15.96,0,0,0-1.636,3.631,12.3,12.3,0,0,0-.546,3.45,15.413,15.413,0,0,0,.546,4.176,32.007,32.007,0,0,0,1.636,3.633,19.423,19.423,0,0,1,1.273,2,11.171,11.171,0,0,1,1.273,2.541,12.7,12.7,0,0,1,.909,2.362c0,.726.181,2,.181,2.541a9.145,9.145,0,0,1-.364,2.362,7.532,7.532,0,0,1-1.272,2c-.364.363-1.273.907-1.638,1.27-.544.181-1.636.727-2.18.909a14.3,14.3,0,0,1-2.546.363,7.888,7.888,0,0,1-2.909-.181h-2.909a13.1,13.1,0,0,1-1.636.907c-.727.364-2.182.909-2.909,1.271a6.354,6.354,0,0,0-1.455.909,2.86,2.86,0,0,0-1.273,1.271c-.181.181,0,.907,0,1.088,0,.363,0,1.09.181,1.271,0,.363.546.726.729,1.088.181.181.544.727.726.909a8.077,8.077,0,0,1,.183,2v2.179c0,.364-.183,1.271-.183,1.817,0,.363.546,1.088.727,1.451s.546,1.09.91,1.271a7.7,7.7,0,0,0,.909,1.271,2.585,2.585,0,0,0,1.09.363c.183,0,.727,0,.91-.181.363-.181.363-.726.544-1.09.183-.181.365-.726.727-.907h.91a5.663,5.663,0,0,1,1.09.726c.181.181.364.363.546.363a.671.671,0,0,0-.181.546,2.674,2.674,0,0,1-.183,1.088,2.422,2.422,0,0,1-.544.909c-.183.363-.91.726-1.092,1.088a3.15,3.15,0,0,0-1.09,1.09c-.183.363-.364,1.453-.546,1.816,0,.363.181,1.09,0,1.453a5.771,5.771,0,0,1-.909,1.09,13.736,13.736,0,0,1-2.365,1.088c-.544.181-1.817.181-2.363.363a16.763,16.763,0,0,0-1.817.909c-.364.363-1.092.907-1.455,1.271-.183.544-.546,1.634-.727,2.179a5.6,5.6,0,0,0,.181,1.816,5.3,5.3,0,0,0,.546,1.816c.181.544.909,1.09,1.09,1.453a2.522,2.522,0,0,1,0,1.634c0,.181-.363.363-.544.544-.364.363-.546,1.271-.91,1.634a2.075,2.075,0,0,1-1.09.544,4.465,4.465,0,0,1-2.182-.181c-.546-.181-1.273-.907-1.819-1.088a3.854,3.854,0,0,0-1.272-.546,2.565,2.565,0,0,0-1.092.364c-.181.181-.546.363-.727.544-.181.363,0,.907,0,1.271,0,.544.181,1.634.181,2a4.007,4.007,0,0,1-.181,1.453,4.932,4.932,0,0,1,0,1.633,4.287,4.287,0,0,1-.909,1.817c-.364.544-1.092,1.816-1.455,2.36a7.72,7.72,0,0,1-1.454,1.09c-.364.544-.909,1.27-1.273,1.816l-.727,1.451v2.724c.181.181.546.363.727.544H157.5c.181,0,.544-.181.727,0v4.359c0,.363-.183,1.09-.183,1.634-.363.726-.909,2-1.271,2.723a18.15,18.15,0,0,1-1.819,2,13.88,13.88,0,0,1-2,1.451,19.671,19.671,0,0,1-3.272,0,25.661,25.661,0,0,0-3.818-.181,12.038,12.038,0,0,0-2.546.181c-.544.181-1.09.909-1.455,1.09a3.685,3.685,0,0,0-1.271,1.09,2.6,2.6,0,0,0-.364,1.27c0,.364-.181,1.09,0,1.453s.909.546,1.273.727a1.951,1.951,0,0,1,1.09.363,2.3,2.3,0,0,1,.727,1.271,1.945,1.945,0,0,1-.363,1.088,4.781,4.781,0,0,1-1.455.546,7.131,7.131,0,0,1-2.728-.183,2.765,2.765,0,0,1-1.455-.726" transform="translate(513.877 3796.227)" fill="#d83a0b" stroke="#fff" stroke-width="0.5" fill-rule="evenodd"/>
    <path id="Path_40" data-name="Path 40" d="M248.477,60.117h0c.363,0,.726.363,1.088.727,0,0,.364.544.546.544a1.536,1.536,0,0,0,.907.546c.181.183.544,0,.909,0,.181-.181.363-.363.544-.363a1.367,1.367,0,0,1,.726-.364c.181-.181.727,0,.909.181.363.183.544,1.092.726,1.273a2.181,2.181,0,0,0,.907.909,4.317,4.317,0,0,0,1.634.364,10.266,10.266,0,0,0,2.36,0,7.448,7.448,0,0,0,2-.181c.364-.183,1.09-.364,1.271-.727a2.2,2.2,0,0,0,.907-.909,1.546,1.546,0,0,0-.544-.91c-.181-.181-.544-.544-.726-.727s-.544-.544-.544-.727a1.136,1.136,0,0,1,0-1.09c.181-.364.726-.546,1.088-.727h1.271a2.517,2.517,0,0,1,1.633,0c.364,0,1.09.181,1.634.181a1.951,1.951,0,0,0,1.09.364c.363.363,1.088.727,1.451,1.09a3.674,3.674,0,0,1,1.271,1.092A5.3,5.3,0,0,1,271.9,62.3a3.558,3.558,0,0,1-.181,1.455,2.927,2.927,0,0,1-1.634.544c-.544,0-1.27-.181-1.633-.181-.183,0-.727,0-.909.181-.181,0-.544.546-.544.727,0,.364.181,1.273.181,1.819a1.374,1.374,0,0,1,.363.727,4.352,4.352,0,0,1-.544,1.636c-.181.363-.727.546-1.09.727a8.839,8.839,0,0,1-1.27.544,5.771,5.771,0,0,0-1.09.91,4.277,4.277,0,0,0-.363,1.455,4.952,4.952,0,0,1,0,1.636,5.326,5.326,0,0,1-.363,1.636,4.274,4.274,0,0,1-1.271,1.273,5.139,5.139,0,0,1-1.634,1.09,8.394,8.394,0,0,0-1.27,1.273,1.5,1.5,0,0,0-.727,1.09c-.181.364,0,.909,0,1.092a9.848,9.848,0,0,0,2.18,1.636,6.881,6.881,0,0,0,2.36,1.636,9.044,9.044,0,0,0,2.36.909H265.9a3.37,3.37,0,0,0,1.271-.363,5.7,5.7,0,0,0,1.088-.91c.364,0,1.09-.181,1.271-.181a5.714,5.714,0,0,1,1.09.91c.363.363.726.909,1.088,1.09a2.415,2.415,0,0,0,.909.546c.363,0,.907-.183,1.27-.183s.909,0,1.09.183a3.7,3.7,0,0,1,1.27,1.09,6.123,6.123,0,0,1,.546,1.092v1.09c-.183.363-.364.909-.546,1.273a1.091,1.091,0,0,1-.181.726,3.123,3.123,0,0,1-1.088,1.092,12.363,12.363,0,0,0-1.816.727,4.888,4.888,0,0,0-1.272,1.455,6.382,6.382,0,0,0-1.088,2.545,5.809,5.809,0,0,0-.546,1.636,9.144,9.144,0,0,0-.363,2.182,2.63,2.63,0,0,0,.363,1.273c.183.727.364,1.817.546,2.363a9.607,9.607,0,0,1,.544,2.182,8.006,8.006,0,0,1-.363,1.817,3.091,3.091,0,0,1-.544,1.092,6.848,6.848,0,0,1-1.271,1.09,5.661,5.661,0,0,0-1.09.727c-.363.364-.907.727-1.089,1.09,0,.546.181,1.454.181,2a4.952,4.952,0,0,1,0,1.636,1.914,1.914,0,0,1-.363.909,1.373,1.373,0,0,1-.363.727c0,.183-.183.546-.183.727s.183.546.183.727c.181.364.726.727.907.91a5.306,5.306,0,0,1,.363,1.636,10.393,10.393,0,0,1-.181,2.363,3.27,3.27,0,0,1-.726,1.636c0,.181-.363.546-.727.909-.181.183-.363.364-.544.364a4.289,4.289,0,0,1-.907.909,4.3,4.3,0,0,1-1.634-.364,19.11,19.11,0,0,1-2-1.636,5.426,5.426,0,0,1-.726-1.455,14.312,14.312,0,0,1-.727-1.636,4.647,4.647,0,0,0-.363-1.273,3.7,3.7,0,0,0-1.088-1.271,2.44,2.44,0,0,0-.909-.546h-1.27a3.936,3.936,0,0,0-.909.727c-.363.546-.181,1.636-.363,2.182-.181,1.09-.726,3.09-.909,4.182a33.569,33.569,0,0,0-.726,4.181l-.726,2.182a7.738,7.738,0,0,0-.363,2c0,.546-.181,1.638-.181,2.182a4.993,4.993,0,0,1-.183,1.636c0,.364-.544.91-.726,1.273v.181h-.726c-.546,0-1.453.183-1.816.183a12.364,12.364,0,0,0-1.816-.727,5.134,5.134,0,0,0-2.36.727c-1.09.363-2.541,1.817-3.45,2.363-.726.363-2.179,1.271-2.9,1.636-.909.363-2.723,1.09-3.813,1.454s-3.631,1.09-4.9,1.455c-1.453.363-4.176,1.271-5.629,1.636a11.753,11.753,0,0,1-2.36.727,3.141,3.141,0,0,1-1.816.181c-.363-.181-.544-1.09-.726-1.455s-.364-1.09-.546-1.455a4.27,4.27,0,0,0-1.451-.363,5.609,5.609,0,0,0-1.09.727c-.363.181-.726.727-.907.909s-.364.909-.546.909a2.109,2.109,0,0,1-1.814-.363c-.364,0-.909-.727-1.09-.91a5.307,5.307,0,0,0-1.634-.363,3.541,3.541,0,0,0-1.27.181,5.7,5.7,0,0,0-.909,1.819,10.443,10.443,0,0,0,.546,2.545,2.421,2.421,0,0,1,.544.909,3,3,0,0,1-.181,1.819,6.794,6.794,0,0,1-1.09,1.271,5.429,5.429,0,0,1-1.816.727,10.246,10.246,0,0,1-2.178-.727c-.363-.181-1.088-.727-1.453-.727a3.993,3.993,0,0,0-1.451-.181c-.363.181-1.271.727-1.634.909-.181.546-.363,1.455-.544,2a5.433,5.433,0,0,1-.727,1.455c0,.363-.544.909-.907,1.271a.666.666,0,0,0-.544-.181,5.254,5.254,0,0,0-1.634.364,6.794,6.794,0,0,0-1.271,1.09,12.815,12.815,0,0,1-1.634,1.092,8.839,8.839,0,0,1-2.178.181c-.181-.181-.726,0-1.088-.181-.181-.183-.544-.91-.909-.91a6.049,6.049,0,0,0-1.814,0c-.181-.181-.909-.181-1.09-.363a2.256,2.256,0,0,1-1.088-1.455c0-.181.726-.546.907-.909,0-.181.363-.909.181-1.273,0-.363-1.088-.909-1.453-1.273a29.033,29.033,0,0,0-3.811-.909,14.5,14.5,0,0,0-2.724-.546,8.86,8.86,0,0,0-3.086-.181c-.727.181-2.179.727-2.906.909-.544.364-1.27.91-1.633,1.092a5.92,5.92,0,0,1-2.543.727,4.428,4.428,0,0,1-2.179,0,4.329,4.329,0,0,1-2-1.092,3.131,3.131,0,0,1-1.088-1.09,7.478,7.478,0,0,1-.181-2c-.181-.727-.181-1.817-.363-2.363a1.951,1.951,0,0,0-.364-1.09c-.181-.364-.907-.546-1.27-.727a3.1,3.1,0,0,0-1.271-.181c-.363,0-1.088.181-1.27.181-.364-.181-.727-.727-.909-.909a5.473,5.473,0,0,1-.726-1.454,4.008,4.008,0,0,0-.181-1.455c0-.364-.546-.909-.909-1.273a2.927,2.927,0,0,0-1.27-.727,2.628,2.628,0,0,0-1.271-.363c-.363,0-.907.181-1.088,0a3.127,3.127,0,0,1-1.09-1.092v-1.272a5.329,5.329,0,0,0-1.09-3.636c-.363-.181-1.088-.364-1.451-.546h-1.271a1.613,1.613,0,0,0-.907.727,3.694,3.694,0,0,0-1.09,1.273,19.193,19.193,0,0,1-1.27,2,2.679,2.679,0,0,1-1.09.91h-2a4.235,4.235,0,0,0-1.453-.364,3.7,3.7,0,0,1-1.27-1.09,5.774,5.774,0,0,1-1.09-.91,8.859,8.859,0,0,1-.181-2.18v-2.728a10.3,10.3,0,0,0,0-2.363c.181-.546,0-1.819.181-2.546a1.921,1.921,0,0,1,.363-.909c.183-.181.546-.727.727-.909a2.585,2.585,0,0,0,.363-1.09c0-.364,0-1.092-.181-1.273a6.181,6.181,0,0,0-1.816-.181c-.363.181-.907.181-1.088.363a8.335,8.335,0,0,0-1.271,1.273c-.544.546-1.271,1.455-1.816,1.636a3.071,3.071,0,0,1-1.816.546h-1.27c-.727,0-2.36.181-3.269.181a6.817,6.817,0,0,0-1.816.181c-.363,0-1.088.727-1.453.909a7.382,7.382,0,0,1-2,.183,10.65,10.65,0,0,1-2.36-.364c-.907-.363-2.36-1.273-3.086-1.636a8.168,8.168,0,0,1-2.179-1.09,10.43,10.43,0,0,1-2-2,5.342,5.342,0,0,1-.544-1.817,3.775,3.775,0,0,1,.363-1.092,6.063,6.063,0,0,1,.544-1.09c.181-.183.363-.546.544-.727a2.759,2.759,0,0,0,1.453.727,7.136,7.136,0,0,0,2.723.181,4.74,4.74,0,0,0,1.453-.546,1.95,1.95,0,0,0,.363-1.09,2.312,2.312,0,0,0-.726-1.273,1.946,1.946,0,0,0-1.09-.363c-.363-.183-1.088-.364-1.27-.727s0-1.092,0-1.455a2.63,2.63,0,0,1,.363-1.273,3.688,3.688,0,0,1,1.271-1.09c.363-.183.907-.91,1.451-1.092a11.991,11.991,0,0,1,2.541-.181,25.58,25.58,0,0,1,3.813.181,19.632,19.632,0,0,0,3.269,0,13.853,13.853,0,0,0,2-1.455,18.272,18.272,0,0,0,1.816-2c.363-.727.907-2,1.27-2.728,0-.546.181-1.271.181-1.636v-4.364c-.181-.181-.544,0-.726,0h-1.09c-.181-.181-.544-.363-.726-.546V98.84l.726-1.455c.364-.546.909-1.273,1.271-1.817a7.6,7.6,0,0,0,1.453-1.092c.363-.546,1.088-1.817,1.453-2.363a4.291,4.291,0,0,0,.907-1.817,4.962,4.962,0,0,0,0-1.638,4,4,0,0,0,.181-1.453c0-.364-.181-1.455-.181-2,0-.364-.181-.909,0-1.273.181-.181.544-.363.726-.544a2.566,2.566,0,0,1,1.09-.364,3.847,3.847,0,0,1,1.27.546c.546.181,1.271.909,1.816,1.09a4.455,4.455,0,0,0,2.179.181,2.074,2.074,0,0,0,1.09-.544c.363-.364.544-1.273.907-1.638.181-.181.544-.363.544-.544a2.505,2.505,0,0,0,0-1.636c-.181-.364-.907-.909-1.088-1.455a5.352,5.352,0,0,1-.544-1.819,5.609,5.609,0,0,1-.181-1.817l.726-2.182c.363-.363,1.088-.909,1.453-1.273a16.73,16.73,0,0,1,1.816-.909c.544-.181,1.814-.181,2.36-.363a13.715,13.715,0,0,0,2.36-1.092,5.768,5.768,0,0,0,.907-1.09c.181-.363,0-1.092,0-1.455.181-.363.363-1.455.544-1.817a3.14,3.14,0,0,1,1.09-1.092c.181-.363.907-.727,1.09-1.09a2.435,2.435,0,0,0,.544-.909,2.714,2.714,0,0,0,.181-1.092.671.671,0,0,1,.181-.546.178.178,0,0,0,.181.183c.181,0,.363-.364.544-.364.363-.181.727-.363,1.09-.546.181-.181.544-.363.726-.544s.544-.364.727-.546c.181,0,.544-.181.726,0a1.091,1.091,0,0,1,.726.181c.181,0,.544.546.909.727.181.364.907.727,1.27,1.092.363.181.909.726,1.271.909s1.088.727,1.453.727c.363.181,1.27-.364,1.633-.181.181.181.364.726.546.909s.544.363.544.544c.181.183.363.727.544.91s.727.181.909.181.544-.364.726-.546c.181-.363-.181-1.273,0-1.636a2.19,2.19,0,0,1,.907-.909,2.7,2.7,0,0,1,1.09.181c.181,0,.544.546.544.727a4.518,4.518,0,0,1,.181,1.636c0,.181-.363.727-.181,1.092,0,.363.363.726.363.909.181.363.181,1.271.364,1.636.181.181.907.546,1.088.727.363,0,1.271.181,1.816.181.363,0,1.088-.181,1.453-.181.363-.181.907-.546,1.27-.727a6.058,6.058,0,0,1,1.816,0c.181,0,.544.546.726.727q.547.272,1.09.546a1.916,1.916,0,0,0,.907.363h1.816c.181,0,.727-.181.909-.181.363-.181.726-.546,1.088-.727a3.077,3.077,0,0,1,1.09-.546c.363,0,.726.364.907.364a3.928,3.928,0,0,1,.909.727h1.27c.363,0,.909-.183,1.09-.183.363-.181.907-.363,1.27-.544.364,0,1.09-.364,1.453-.364a2.629,2.629,0,0,1,1.271.364c.363.181.907.727,1.27.909a1.549,1.549,0,0,0,.909.546,3.087,3.087,0,0,0,1.27.181c.183-.181.546-.364.727-.546s.363-.727.544-.909c.363-.363.726-1.092,1.088-1.455a2.428,2.428,0,0,1,.546-.909,5.57,5.57,0,0,1,1.088-.727,8.859,8.859,0,0,1,1.271-.546c.181,0,.726.181,1.088.181.183,0,.909-.181,1.09-.181a14.409,14.409,0,0,0,1.634-.727c.363,0,1.27-.181,1.816-.181.181,0,.726.363.907.363a6.223,6.223,0,0,1,1.09.546,3.783,3.783,0,0,1,.363,1.09c.181.364,0,1.092.181,1.455l.363.364a1.091,1.091,0,0,0,.726-.181c.181-.183.363-.546.546-.727a7.652,7.652,0,0,1,.907-1.273,10.1,10.1,0,0,1,1.634-1.273c.181-.181.907-.181,1.088-.363a5.779,5.779,0,0,0,1.634-.546c.544-.181,1.453-.546,2-.727a3.363,3.363,0,0,1,1.271-.363h1.816a3.087,3.087,0,0,1,1.27.181c.363,0,.726.727.909.909a6.793,6.793,0,0,1,1.088,1.273,10.12,10.12,0,0,0,.909,1.455c.363.181.907.363,1.27.546a5.555,5.555,0,0,0,1.816-.183c.363,0,.907-.546,1.09-.909A9.035,9.035,0,0,0,234.5,64.3a4.278,4.278,0,0,1,1.453-.363c.544-.181,1.634-.181,2-.364a11.92,11.92,0,0,0,2.723-.909c.544-.181,1.634-.909,2.178-1.09a9.424,9.424,0,0,1,2.36-1.092c.546-.181,1.634-.363,2.178-.544a2.7,2.7,0,0,1,1.09.181" transform="translate(541.745 3820.778)" fill="#d83a0b" stroke="#fff" stroke-width="0.5" fill-rule="evenodd"/>
    <path id="Path_44" data-name="Path 44" d="M275.6,95.061a1.683,1.683,0,0,0,.551.912h-.365a1.975,1.975,0,0,0-1.1.364,1.6,1.6,0,0,0-.734.912c0,.181,0,.729.183.91,0,.364.734.912.919,1.276a6.035,6.035,0,0,1,.551,1.093v1.459a4.748,4.748,0,0,1-.918,1.641,16.272,16.272,0,0,1-1.839,1.458,5.878,5.878,0,0,1-1.656.547,13.06,13.06,0,0,1-2.755-.183c-.737-.181-2.025-.364-2.576-.546-.551-.364-1.655-.912-2.206-1.276a7.024,7.024,0,0,1-2.389-1.093,4.631,4.631,0,0,1-1.471-1.824c-.186-.364-.368-1.093-.551-1.458a3.092,3.092,0,0,1,.183-1.276c.181-.183.368-.183.551-.364,0-.183.183-.731,0-1.095a2.45,2.45,0,0,0-.551-.91c-.183-.183-.737-.729-.737-.912-.183-.183-.183-.729-.183-.912a3.737,3.737,0,0,1,.368-1.093c.183,0,.183.181.369.181a10.272,10.272,0,0,1,1.652,1.276c.369.547.92,1.641,1.471,1.824s2.023-.547,2.576-.731c.551,0,1.839-.363,2.389-.363.551.181,1.1,1.093,1.469,1.093a4.142,4.142,0,0,0,2.576-.547c.368-.183.551-1.093.92-1.458a3.848,3.848,0,0,1,2.389-.547c.368.183.551,1.276.918,1.641" transform="translate(637.089 3842.916)" fill="#d83a0b" stroke="#fff" stroke-width="0.5" fill-rule="evenodd"/>
    <path id="Path_48" data-name="Path 48" d="M307.233,56.325a4.325,4.325,0,0,1-.546,2.545c-.181.546-1.456,1.636-2,2.363-.181.546-.909,1.455-.909,2,0,.726.909,1.634,1.273,2,.364.546,1.456,1.092,1.638,1.638,0,.18.181.726,0,.909-.546.546-1.819-.183-2.365,0a3.688,3.688,0,0,0-1.638,1.092,6.76,6.76,0,0,0-.183,2,10.2,10.2,0,0,1,.729,2.183,3.257,3.257,0,0,1-.729,1.634c-.181.363-.727.909-1.092.909a7.288,7.288,0,0,1-2,0,7.946,7.946,0,0,0-1.275.729,8.585,8.585,0,0,0-1.092,1.636,5.353,5.353,0,0,0-.363,2.363c.181.546,1.092,1.092,1.273,1.455a3.223,3.223,0,0,1,.727,1.817,10.762,10.762,0,0,1-.363,2.546,20.223,20.223,0,0,1-1.275,2.906,18.914,18.914,0,0,1-1.455,2,7.886,7.886,0,0,1-1.821,1.638c-.363.363-1.819,1.088-1.819,1.817a2.833,2.833,0,0,0,1.092,1.454c.364.18,1.273-.183,1.819-.183.364.183,1.456.183,1.821.546a2.246,2.246,0,0,1,.727,1.455c0,.363-.546,1.088-.727,1.455a6.441,6.441,0,0,1-1.638.726,9.152,9.152,0,0,0-1.275,1.456c-.363.726,0,2.726-.363,3.453a7.128,7.128,0,0,1-1.456,1.816c-.546.366-2,.729-2.548,1.092a4.694,4.694,0,0,0-1.273,2c-.364.363-.364,1.455-.546,1.817a7.46,7.46,0,0,1-1.638.909,8.717,8.717,0,0,1-2.183,0c-.364.183-1.092.546-1.454.726a11.984,11.984,0,0,0-.729,2.729,12.956,12.956,0,0,0-.727,3.818,7.769,7.769,0,0,0,.91,2.907,23.608,23.608,0,0,0,2.728,3.27,20.432,20.432,0,0,0,1.821,1.456c-.183.181-.364.363-.546.363-.364.363-.729.909-1.092,1.092a15.98,15.98,0,0,1-1.821,1.454c-.544.363-1.273,1.271-1.819,1.634a20.815,20.815,0,0,0-2.365,1.817,22.2,22.2,0,0,1-2.183,1.455,7.127,7.127,0,0,1-2,1.092,3.814,3.814,0,0,1-1.273.546h-1.456a9.54,9.54,0,0,0-2.183.546c-.181,0-.546.363-.727.543-.364.183-.727.366-.727.729-.183.183-.183.727-.364,1.092a1.1,1.1,0,0,1-.181.727,5.712,5.712,0,0,1-.729,1.09c-.363.363-1.092,1.088-1.455,1.455a13.459,13.459,0,0,1-1.638.909,4.3,4.3,0,0,1-1.456.363,3.1,3.1,0,0,1-1.273-.181.9.9,0,0,0-.183-.548,1.387,1.387,0,0,0-.363-.726c-.183-.183-.91,0-1.092,0-.183.183-.546.364-.729.546s-.181.727-.363.909c-.364.183-.91.727-1.275.91H255.2a7.4,7.4,0,0,1-2,0c-.727-.183-1.638-1.456-2.183-1.819s-1.455-1.271-2-1.638c-.183-.18-.546-.726-.91-.726a1.9,1.9,0,0,0-.91-.363h-1.455a3.063,3.063,0,0,0-1.821.546,6.8,6.8,0,0,0-1.273,1.09,5.647,5.647,0,0,0-.91,1.817,3.681,3.681,0,0,1-1.092,1.273,1.375,1.375,0,0,1-.909.18h-.91a3.881,3.881,0,0,1-.91-.544c-.181-.181-.546-.544-.727-.544-.181-.183-.727-.183-.91-.183-.363,0-1.092,0-1.273.183a5.483,5.483,0,0,0-1.092.727c-.181.181-.364.909-.727,1.27,0,.183-.546.366-.729.366a.668.668,0,0,1-.546.181c-.181,0-.546-.364-.727-.547-.181,0-.546-.361-.727-.543-.364-.183-.729-.366-1.092-.546h-4.913a5.556,5.556,0,0,0-1.092.727,2.679,2.679,0,0,0-.91,1.09,13.906,13.906,0,0,0-.727,2,9.92,9.92,0,0,1-1.638,1.271,3.064,3.064,0,0,1-1.819,0,6.518,6.518,0,0,1-2-.543,9.491,9.491,0,0,0-1.819-1.092,3.974,3.974,0,0,0-1.456-.909H211.71c.363-.363.727-.727.727-.909a3.264,3.264,0,0,0,.727-1.636,10.309,10.309,0,0,0,.183-2.363,5.289,5.289,0,0,0-.364-1.636,4.375,4.375,0,0,1-.91-.909c0-.183-.181-.548-.181-.727s.181-.546.181-.729a1.361,1.361,0,0,0,.364-.726,1.931,1.931,0,0,0,.364-.909,4.962,4.962,0,0,0,0-1.638c0-.546-.183-1.455-.183-2,.183-.363.729-.726,1.092-1.088a5.731,5.731,0,0,1,1.092-.729,6.734,6.734,0,0,0,1.275-1.088,3.084,3.084,0,0,0,.546-1.092,8.024,8.024,0,0,0,.363-1.817,9.525,9.525,0,0,0-.546-2.182c-.181-.546-.363-1.638-.546-2.363a2.634,2.634,0,0,1-.363-1.271,9.133,9.133,0,0,1,.363-2.182,5.773,5.773,0,0,1,.546-1.636,6.384,6.384,0,0,1,1.092-2.546,4.939,4.939,0,0,1,1.275-1.455,12.358,12.358,0,0,1,1.819-.726,3.145,3.145,0,0,0,1.092-1.092,1.1,1.1,0,0,0,.181-.726c.183-.366.364-.912.546-1.275v-1.088a5.919,5.919,0,0,0-.546-1.092,3.716,3.716,0,0,0-1.273-1.092c-.181-.18-.727-.18-1.092-.18s-.91.18-1.273.18a2.4,2.4,0,0,1-.91-.546c-.364-.18-.727-.726-1.092-1.088a5.674,5.674,0,0,0-1.092-.909c-.181,0-.91.181-1.273.181a5.839,5.839,0,0,1-1.092.909,3.39,3.39,0,0,1-1.275.364h-1.092a9.162,9.162,0,0,1-2.365-.91,6.914,6.914,0,0,1-2.365-1.636,9.729,9.729,0,0,1-2.183-1.636c0-.183-.183-.727,0-1.092a1.489,1.489,0,0,1,.727-1.088,8.274,8.274,0,0,1,1.273-1.273,5.155,5.155,0,0,0,1.638-1.09,4.29,4.29,0,0,0,1.275-1.275A5.307,5.307,0,0,0,208.8,94.5a4.918,4.918,0,0,0,0-1.638,4.309,4.309,0,0,1,.364-1.455,5.856,5.856,0,0,1,1.092-.909,8.457,8.457,0,0,0,1.273-.546c.364-.18.91-.363,1.092-.726a4.322,4.322,0,0,0,.546-1.638,1.387,1.387,0,0,0-.363-.726c0-.546-.183-1.455-.183-1.817,0-.183.364-.727.546-.727.183-.181.729-.181.91-.181.364,0,1.092.181,1.638.181a2.941,2.941,0,0,0,1.638-.544,3.557,3.557,0,0,0,.181-1.455,5.306,5.306,0,0,0-.363-1.636,3.7,3.7,0,0,0-1.275-1.092c-.363-.363-1.092-.727-1.454-1.092a1.939,1.939,0,0,1-1.092-.363c-.546,0-1.275-.181-1.638-.181a2.532,2.532,0,0,0-1.638,0H208.8c-.363.181-.909.364-1.092.727a1.144,1.144,0,0,0,0,1.09c0,.183.364.546.546.727s.546.546.729.727.546.546.546.909a2.2,2.2,0,0,1-.91.91c-.181.363-.91.544-1.273.727a7.555,7.555,0,0,1-2,.18,10.218,10.218,0,0,1-2.365,0,4.32,4.32,0,0,1-1.638-.363,2.179,2.179,0,0,1-.91-.909c-.181-.181-.364-1.09-.727-1.271-.183-.183-.729-.364-.91-.183a1.383,1.383,0,0,0-.727.364c-.183,0-.364.181-.546.363-.364,0-.729.181-.91,0a1.551,1.551,0,0,1-.91-.544c-.181,0-.546-.546-.546-.546-.363-.364-.727-.727-1.092-.727.364-.181.729-.181.91-.364a9.691,9.691,0,0,0,2-.909,2.929,2.929,0,0,0,.727-1.273,5.4,5.4,0,0,0,.727-1.817,5.441,5.441,0,0,1,.729-1.817,9.085,9.085,0,0,1,2.183-1.455c.546-.183,2-.363,2.546-.546a15.85,15.85,0,0,0,2.912-.18,12.661,12.661,0,0,0,2.729-1.275c.546-.546,1.638-1.455,2.183-2,.727-.543,1.638-1.817,2.183-2.18a10.96,10.96,0,0,1,1.819-1.271,23.443,23.443,0,0,1,3.094-1.455c.546-.183,1.455-.363,2-.546.183-.181.91-.181,1.275-.363.181,0,.727-.546.909-.727.183-.363.546-.909.729-1.271.181-.183.546-.91.727-.91a1.163,1.163,0,0,1,1.092,0c.181,0,.364.364.546.546h2a4.731,4.731,0,0,0,1.456-.546,6.974,6.974,0,0,0,2-2,6.758,6.758,0,0,0,.727-2.729,12.872,12.872,0,0,0,.181-2.726c-.181-.726-.546-2-.727-2.543a4.169,4.169,0,0,0-1.273-1.821,4.625,4.625,0,0,0-1.821-1.451c-.363-.366-1.092-.729-1.273-.909-.364-.183-.727-.729-.91-.909a2.808,2.808,0,0,1-.727-1.092,3.37,3.37,0,0,1-.363-1.271c0-.546.181-1.455.181-1.819a13.929,13.929,0,0,1,.364-2.726,11.1,11.1,0,0,1,.544-2.363c0-.546.364-1.273.364-1.817.181-.183.181-.546.364-.912a.392.392,0,0,0,.363.366,4.859,4.859,0,0,0,2.183.546c.546,0,1.638-.183,2.183-.183a3.835,3.835,0,0,1,1.275-.546,4.628,4.628,0,0,1,2.183.363c.546.183,1.455.91,2,1.092a10.516,10.516,0,0,0,2.548-.726c.727-.183,1.819-.912,2.548-1.092.546-.183,1.638-.546,2.365-.729,1.273-.18,4,.366,5.277,0a14.491,14.491,0,0,0,4-1.088,27.28,27.28,0,0,0,4-1.817c.546-.366,1.456-1.275,2-1.638a5.738,5.738,0,0,1,1.819-.909,9.537,9.537,0,0,1,3.275.546,6.508,6.508,0,0,1,2.548,2,17.2,17.2,0,0,1,.91,3.272c.363,1.088.546,3.452.909,4.545a32.823,32.823,0,0,0,1.456,3.816,8.976,8.976,0,0,0,1.819,2.728c.729.543,2.548.726,3.458.909a24.141,24.141,0,0,1,3.457.909,12.6,12.6,0,0,1,2.365,2,12.5,12.5,0,0,0,2.365,2,5.678,5.678,0,0,0,1.821.909,18.266,18.266,0,0,0,3.092-.546,8.3,8.3,0,0,0,1.821-.909c.363-.18.909-1.088,1.273-1.088a5.807,5.807,0,0,1,3.457.909c.546.363,1.092,1.817,1.456,2.363.364.363.91,1.455,1.273,1.817a5.206,5.206,0,0,0,1.638,1.092,6.546,6.546,0,0,0,1.821.363c.546,0,1.638-.363,2-.363a2.711,2.711,0,0,1,1.638.726,5.145,5.145,0,0,1,1.456,2" transform="translate(596.215 3800.794)" fill="#d83a0b" stroke="#fff" stroke-width="0.5" fill-rule="evenodd"/>
    <path id="Path_52" data-name="Path 52" d="M284.857,164.972v1.271c0,.364,0,.909-.181,1.09s-.546.364-.729.546c-.181.363-.363,1.09-.544,1.453,0,.364-.183.909-.183,1.09.183.364.91.546,1.092.909,0,.181-.364.546-.364.727a5.589,5.589,0,0,1-.727,1.09,7.445,7.445,0,0,1-1.636.909,5.51,5.51,0,0,0-1.819,1.271,4.072,4.072,0,0,0-.183.727,1.553,1.553,0,0,0,0,1.271c0,.181.364.363.727.363a5.441,5.441,0,0,0,1.819.727c.364.181,1.275.181,1.638.363a2.106,2.106,0,0,1,.91,1.272,2.527,2.527,0,0,1,0,1.636,5.608,5.608,0,0,1-.729,1.09,2.652,2.652,0,0,1-.909,1.09c-.364.364-1.638.546-2,.909a2.669,2.669,0,0,0-1.092.909,6.39,6.39,0,0,0-.91,1.453,16.483,16.483,0,0,1-1.454,2.363,6.42,6.42,0,0,1-1.455.907,17.5,17.5,0,0,1-3.275.546c-.727,0-2.182.181-2.911.181a3.562,3.562,0,0,0-1.273.181,1.383,1.383,0,0,0-.727.364c-.181.363-.727.909-.727,1.271-.181.363,0,1.271-.181,1.817a3.091,3.091,0,0,1-.546,1.09c-.183.181-.546.363-.729.544h-1.09l-1.092.546c-.181,0-.91-.181-1.273-.181-.183,0-.91-.183-1.273,0H260.3c0,.181-.183.726-.183.909a.82.82,0,0,0,.546.544c.364.181,1.092.181,1.455.363s.91.546,1.275.727a26.846,26.846,0,0,1,1.636,2.362,19.921,19.921,0,0,1,1.456,2.726,12.229,12.229,0,0,1,1.09,2.18c.183.363.546,1.09.729,1.453,0,.364.363,1.273.363,1.636a5.618,5.618,0,0,1-.181,1.817c-.181.363-.91.909-1.092,1.271a4.552,4.552,0,0,0-1.273.727,2.628,2.628,0,0,0-.364,1.271,6.049,6.049,0,0,0,.546,1.09,8.677,8.677,0,0,1,.546,1.271c.183.181.91.363.91.727a.82.82,0,0,1-.546.544,3.112,3.112,0,0,1-1.092,1.09c-.546.183-1.455.909-2,1.09a18.27,18.27,0,0,1-3.092.546,7.765,7.765,0,0,1-2,.363h-2.182a13.685,13.685,0,0,0-2.729,0,1.961,1.961,0,0,0-1.092.364,3.842,3.842,0,0,1-1.273.544h-1.273c-.363-.181-.909-.909-1.273-1.09-.363,0-.727-.363-1.092-.363s-.909.544-1.273.727-.909.544-1.273.726h-1.092a2.7,2.7,0,0,1-1.09-.181,7.9,7.9,0,0,1-.729-1.271,2.665,2.665,0,0,0-.909-1.09,1.383,1.383,0,0,0-.727-.364,1.5,1.5,0,0,0-.729,1.09c-.181.364,0,.909,0,1.273a5.569,5.569,0,0,0,.183,1.817,10.287,10.287,0,0,1-.183,2.362v1.453a7.04,7.04,0,0,1-1.09,2,13.7,13.7,0,0,1-2,2.543c-.546.546-2,1.636-2.728,2.182-.546.181-1.638.726-2.183.907a1.832,1.832,0,0,0-.546.183h-.909a1.1,1.1,0,0,0-.727.181c-.183.181-.183.727-.183.909s.183.726.183.909c.181.181.909.544,1.09.726.183.364.729.909.91,1.273a3.839,3.839,0,0,1,.546,1.271,6.818,6.818,0,0,1,.181,1.816,4.831,4.831,0,0,0,.546,2.182,1.842,1.842,0,0,0,.727,1.271,3.155,3.155,0,0,0,1.092,1.09,3.108,3.108,0,0,0,1.819,0c.364-.181,1.092-.727,1.455-.909h1.638c.364.181,1.092.363,1.456.544.363,0,1.09.546,1.455.727a3.675,3.675,0,0,0,1.092,1.271,1.952,1.952,0,0,0,1.092.364c.181.181.544.544.727.726,0,.183-.183.909-.183,1.09,0,.546.183,1.636.183,2.182a5.032,5.032,0,0,0,.181,1.634,1.371,1.371,0,0,0,.364.727c.181.363.909.727,1.092,1.09a3.849,3.849,0,0,1,.544,1.271,2.757,2.757,0,0,1-.727,1.454,5.683,5.683,0,0,1-1.819.907,19.4,19.4,0,0,0-1.819.727,12.191,12.191,0,0,0-2.182,1.09,9.934,9.934,0,0,0-1.638,1.271,2.44,2.44,0,0,0-.546.909c0,.364.181,1.09.181,1.455s0,.907-.181,1.09a5.663,5.663,0,0,1-.727,1.09c-.546.363-1.456.909-2,1.271a6.536,6.536,0,0,0-1.817,1.271,9.554,9.554,0,0,0-1.821,2,12.282,12.282,0,0,0-1.09,2.18,9.067,9.067,0,0,0-.364,2.18c-.181.181-.181.909-.181,1.09,0,.364.181,1.09.181,1.455a10.146,10.146,0,0,1-.909,1.453,14.036,14.036,0,0,1-1.638,1.636c-.546.544-1.456,1.272-1.819,1.634-.181.364-.546.909-.727,1.271a7.909,7.909,0,0,0-.183.909,6.114,6.114,0,0,1-2.182.727,9.971,9.971,0,0,1-3.275-.181,10.452,10.452,0,0,1-2.546-.727c-.909-.181-2.728,0-3.457-.544a2.2,2.2,0,0,1-.544-1.817c0-.363.727-1.09.909-1.455a10.77,10.77,0,0,0,1.092-2,7.752,7.752,0,0,0-.364-3.453,15.721,15.721,0,0,0-1.273-1.816,15.284,15.284,0,0,1-1.455-2.18,3.632,3.632,0,0,1-.364-2.363,4.709,4.709,0,0,1,1.273-2c.364-.544,1.638-1.271,2-1.817a7.523,7.523,0,0,0,1.273-2.724,6.514,6.514,0,0,0-.364-3.27,12.131,12.131,0,0,0-2-3.27c-.364-.364-1.092-.727-1.273-1.09-.183-.546.181-1.817-.183-2.363a5.045,5.045,0,0,0-2.365-.544c-.727-.181-1.817,0-2.363-.181a5.482,5.482,0,0,1-1.456-1.455,6.141,6.141,0,0,1-1.092-2.18,4.924,4.924,0,0,1,.546-2.726c.183-.544,1.273-1.453,1.638-2a13.687,13.687,0,0,0,2-2.545,5.9,5.9,0,0,0,.727-2.543,6.44,6.44,0,0,0-.544-2c0-.546-.183-1.271-.183-1.817.183-.363,1.092-1.09,1.273-1.453a8.958,8.958,0,0,0,.729-2.363c0-.726-.364-2.18-.364-2.907a16.88,16.88,0,0,1,.909-1.816c.183-.727.729-2,.91-2.726.181-.363,0-1.271.364-1.634a3.241,3.241,0,0,1,1.273-.909c.363,0,1.09.909,1.455.726s.727-1.271.91-1.634c0-.546-.183-1.455-.183-2,0-.364-.363-1.271-.181-1.817,0-.363.546-.909.727-1.09.181-.546.727-1.271.91-1.817a2.145,2.145,0,0,0-.183-1.816c-.181-.364-1.273-.909-1.636-1.09-.729,0-2,.181-2.548.181a7.989,7.989,0,0,1-2.909-.365,4.359,4.359,0,0,1-1.092-1.453c-.181-.363-.364-.909-.727-1.09a1.977,1.977,0,0,0-2,0c-.363.181-.181,1.09-.363,1.453a7.516,7.516,0,0,1-1.819,2.363,3.1,3.1,0,0,1-1.456,1.09c-.363.363-1.455.181-1.819.544a3.724,3.724,0,0,0-1.273,1.09,4.76,4.76,0,0,0-.909,1.636c0,.544.363,1.816,0,2.362a6.934,6.934,0,0,1-2.546,2c-.91.546-3.094.546-3.821,1.09a8.913,8.913,0,0,0-2.911,2.907,6.065,6.065,0,0,0-.363,3.089,22,22,0,0,0,.909,3.27A18.224,18.224,0,0,1,193,234.2a26.525,26.525,0,0,1-.544,4,15.709,15.709,0,0,1-1.275,3.089,9.379,9.379,0,0,1-3.092,2.363,13.421,13.421,0,0,1-3.638.909c-.909.363-2.546.726-3.455,1.09-1.092.363-3.092,1.816-4.184,2.18-.91.363-2.911.363-3.821.907s-2.182,2.363-3.092,2.907a19.8,19.8,0,0,1-4.184,2.545,8.583,8.583,0,0,1-3.092.727,19.061,19.061,0,0,1-4.547,0,1.634,1.634,0,0,1-.91-.183,1.367,1.367,0,0,0,.364-.726,2.656,2.656,0,0,1,1.092-.909c.181-.364.727-.727.909-.909a4.9,4.9,0,0,0,.364-3.089,7,7,0,0,0-1.092-2,15.865,15.865,0,0,0-1.638-2c-.363-.544-1.819-1.636-2-2.362a5.788,5.788,0,0,1-.363-2.545,16.136,16.136,0,0,1,.363-2.724c0-.364.181-1.271.181-1.636a5.4,5.4,0,0,0-.363-1.817c-.181-.363-.727-1.271-.91-1.634a6.957,6.957,0,0,1-1.092-.909V216.209s-.544-2.543-.727-3.27a4,4,0,0,0-.181-1.453c0-.365-.546-.909-.91-1.273-.181-.181-.544-.726-.727-.907a7.556,7.556,0,0,0-1.273-.909,6.163,6.163,0,0,1-.546-1.09c0-.183,0-.727.183-.909,0-.363.544-.546.727-.727.181-.363.909-.727,1.092-1.09a3.7,3.7,0,0,0,1.09-1.272,3.973,3.973,0,0,0,.183-1.454,5.032,5.032,0,0,0,.181-1.634c0-.546-.181-1.636-.181-2.18a4.277,4.277,0,0,0,.363-1.454c.183-.363.727-.726.727-1.09a4.244,4.244,0,0,0,.364-1.453,4.236,4.236,0,0,0-1.273-1.271,1.6,1.6,0,0,0-1.273-.181,2.941,2.941,0,0,0-1.638.544c-.363.181-.546.546-.727.727-.364.363-1.092,1.09-1.455,1.453a5.405,5.405,0,0,1-1.819.363,7.346,7.346,0,0,1-1.638-.907c-.364-.181-.727-.909-1.092-1.09a19.584,19.584,0,0,0-2-1.817,5.587,5.587,0,0,1-.727-1.09,3.353,3.353,0,0,1-.364-1.271,2.938,2.938,0,0,1,.727-1.273,12.869,12.869,0,0,1,1.638-1.271,11.132,11.132,0,0,1,2.365-.544c.546-.181,1.636,0,2.182-.181a4.3,4.3,0,0,0,1.456-.364c.363-.181,1.273-.363,1.454-.727.364-.181.727-1.09,1.092-1.453a2.675,2.675,0,0,1,.909-1.09c.183-.363.729-1.271.91-1.636.364-.181.909-.544,1.273-.726s1.092-.364,1.456-.546.909-.726,1.273-.726a3.073,3.073,0,0,1,1.273-.183,4.015,4.015,0,0,1,.909.727,3.288,3.288,0,0,0,1.819.181,4.3,4.3,0,0,0,1.456-.363,5.769,5.769,0,0,0,1.09-.909,5.491,5.491,0,0,0,.91-1.272,7.719,7.719,0,0,1,.909-1.273c.364-.363.729-1.09,1.092-1.271a3.387,3.387,0,0,1,1.273-.363,3.263,3.263,0,0,1,1.638.727c.364.181.909,1.09,1.273,1.271.364.363.91.909,1.455.909a17.585,17.585,0,0,0,3.094,0c.544,0,1.455-.181,2-.181a4.977,4.977,0,0,0,2.365-1.273,2.65,2.65,0,0,0,1.092-1.634,3.772,3.772,0,0,0-1.092-1.817,13.09,13.09,0,0,1-.91-1.636,12.284,12.284,0,0,1,.364-2.543,14.443,14.443,0,0,1,.727-1.636,15.981,15.981,0,0,1,1.092-1.816,5.354,5.354,0,0,0,.546-1.817,6.2,6.2,0,0,1,.727-4.179,5.807,5.807,0,0,1,.546-1.636c0-.363.181-1.271.181-1.816a2.394,2.394,0,0,0-.546-.909,5.718,5.718,0,0,0-.909-1.09c-.364-.181-1.273-.364-1.819-.546-.183-.181-.91-.544-1.092-.909a2.522,2.522,0,0,1,0-1.634,4.765,4.765,0,0,1,.546-1.455,7.371,7.371,0,0,1,.909-1.634,6.445,6.445,0,0,0,.729-1.636,10.646,10.646,0,0,0,.363-2.362,6.048,6.048,0,0,0,0-1.817,5.659,5.659,0,0,0-.727-1.09c-.546-.181-1.454,0-1.819-.181a3.657,3.657,0,0,1-2-.546,2.394,2.394,0,0,1-.546-.909,10.241,10.241,0,0,1,.909-1.453l1.456-1.453a3.7,3.7,0,0,0,1.09-1.271,7.949,7.949,0,0,0,.364-1.817,3.23,3.23,0,0,0-.727-1.817,3.465,3.465,0,0,0-1.638-.544c.364-.364.91-.909.91-1.273a5.447,5.447,0,0,0,.727-1.453c.181-.546.363-1.455.546-2,.363-.181,1.273-.727,1.638-.909a4.016,4.016,0,0,1,1.454.181c.363,0,1.092.546,1.454.727a10.285,10.285,0,0,0,2.183.727,5.461,5.461,0,0,0,1.819-.727,6.871,6.871,0,0,0,1.092-1.271,3,3,0,0,0,.181-1.817,2.428,2.428,0,0,0-.546-.909,10.507,10.507,0,0,1-.546-2.543,5.647,5.647,0,0,1,.91-1.817,3.553,3.553,0,0,1,1.273-.181,5.316,5.316,0,0,1,1.636.363c.183.181.729.909,1.092.909a2.12,2.12,0,0,0,1.819.363c.183,0,.364-.726.546-.909a4.261,4.261,0,0,1,.91-.907,5.556,5.556,0,0,1,1.092-.727,4.3,4.3,0,0,1,1.455.363c.181.364.363,1.09.546,1.455s.363,1.271.727,1.453a3.152,3.152,0,0,0,1.819-.181,11.8,11.8,0,0,0,2.365-.727c1.455-.363,4.184-1.271,5.638-1.634,1.273-.364,3.819-1.092,4.911-1.455s2.911-1.09,3.821-1.453c.727-.364,2.182-1.273,2.909-1.636.91-.544,2.365-2,3.457-2.362a5.153,5.153,0,0,1,2.365-.727,12.57,12.57,0,0,1,1.819.727c.364,0,1.273-.181,1.819-.181h.727v1.634c0,.546-.363,1.454-.363,1.817.181.363.181.727.363.909a1.21,1.21,0,0,0,.727.909,12.614,12.614,0,0,0,1.456.544,10.082,10.082,0,0,1,1.273,1.636,13.692,13.692,0,0,1,1.455,2c.546.909,1.819,2.907,2.365,4,.365.909.91,2.724,1.273,3.814a5.755,5.755,0,0,1,.546,1.636c0,.363-.181,1.09-.181,1.271a1.379,1.379,0,0,1-.364.909,1.818,1.818,0,0,1-.909.727,5.721,5.721,0,0,0-.91,1.09c-.181.181-.363,1.09-.181,1.271a1.5,1.5,0,0,0,.727,1.09c.365.181,1.092-.181,1.456-.363s1.09-.727,1.454-.909c.181-.363.727-.909.909-1.271.183-.183.546-.546.729-.546a2.7,2.7,0,0,1,1.09-.181,3.906,3.906,0,0,1,.91.727c.181.363.364,1.09.546,1.453.181.546.546,1.636.727,2a3.979,3.979,0,0,0,.546.909c.364.181,1.092-.181,1.455-.181a1.3,1.3,0,0,1,1.092.544,1.238,1.238,0,0,1,.546.909c.364.363.727.909,1.092,1.271a6.74,6.74,0,0,0,1.273,1.09,10.9,10.9,0,0,1,1.454.727,3.73,3.73,0,0,1,.364,1.09,6.826,6.826,0,0,1,.181,1.817,9.037,9.037,0,0,0,.546,1.271,1.379,1.379,0,0,0,.727.363c.364,0,.729-.544,1.092-.726.181-.181.364-.546.546-.727a6.059,6.059,0,0,1,.546-1.09.91.91,0,0,1,1.455,0,6.452,6.452,0,0,1,.729,1.636,13.2,13.2,0,0,0,.909,1.634c.364.546,1.273,1.271,1.638,1.817a19.277,19.277,0,0,1,1.273,2,18.844,18.844,0,0,1,.727,1.816,4.951,4.951,0,0,1,0,1.636,2.407,2.407,0,0,1-.546.909,1.951,1.951,0,0,0-.363,1.09,3.345,3.345,0,0,0-.364,1.271,3.487,3.487,0,0,0,.546,1.455,4.774,4.774,0,0,0,1.454.544c.364,0,1.092-.181,1.456-.181a5.041,5.041,0,0,1,1.636.181c.183,0,.729.181.91.181.181.181.727.546.909.909a4.993,4.993,0,0,1,.183,1.636c0,.363-.183,1.271-.183,1.634a2.636,2.636,0,0,0,.364,1.273c.181.544,1.092,1.088,1.455,1.271s1.092,0,1.456,0c.546-.183,1.454-.546,2-.727.364-.181.91-.909,1.273-1.09a7.6,7.6,0,0,1,1.456-1.09c.363-.181,1.09-.727,1.454-.727h1.819c.546,0,1.273.181,1.819.181a.9.9,0,0,0,.546-.181c0,.181.181.363.181.546.181.181.546.726.727.909a4.245,4.245,0,0,1,.364,1.453" transform="translate(561.528 3853.317)" fill="#d83a0b" stroke="#fff" stroke-width="0.5" fill-rule="evenodd"/>
    <path id="Path_56" data-name="Path 56" d="M195.623,122.607v-.181c.181-.364.729-.909.729-1.273a5.085,5.085,0,0,0,.18-1.636c0-.546.183-1.636.183-2.182a7.823,7.823,0,0,1,.363-2c.183-.546.546-1.636.729-2.182a33.3,33.3,0,0,1,.726-4.181c.183-1.09.729-3.09.909-4.181.183-.546,0-1.636.366-2.182a3.866,3.866,0,0,1,.909-.727h1.271a2.382,2.382,0,0,1,.909.546,3.724,3.724,0,0,1,1.092,1.271,4.589,4.589,0,0,1,.363,1.273,14.428,14.428,0,0,0,.729,1.636,5.423,5.423,0,0,0,.726,1.455,19.416,19.416,0,0,0,2,1.636,4.352,4.352,0,0,0,1.638.363c.18-.181.726-.544.907-.909.181,0,.363-.181.546-.363h1.271a3.932,3.932,0,0,1,1.455.909,9.663,9.663,0,0,1,1.821,1.09,6.453,6.453,0,0,0,2,.546,3.1,3.1,0,0,0,1.821,0,9.916,9.916,0,0,0,1.634-1.273,14.061,14.061,0,0,1,.729-2,2.667,2.667,0,0,1,.909-1.092,5.627,5.627,0,0,1,1.092-.726h4.906l1.092.544c.181.181.546.546.727.546.181.181.544.546.729.546a.666.666,0,0,0,.544-.183c.181,0,.726-.181.726-.363.364-.364.547-1.09.731-1.273a5.593,5.593,0,0,1,1.088-.727c.181-.181.909-.181,1.275-.181.18,0,.726,0,.909.181.18,0,.546.364.726.546a4.015,4.015,0,0,0,.909.546h.909a1.372,1.372,0,0,0,.912-.181,3.7,3.7,0,0,0,1.088-1.273,5.711,5.711,0,0,1,.909-1.817,6.759,6.759,0,0,1,1.275-1.092,3.071,3.071,0,0,1,1.817-.544h1.455a1.921,1.921,0,0,1,.909.363c.363,0,.727.546.91.727.544.363,1.453,1.273,2,1.636s1.453,1.636,2.179,1.817a7.321,7.321,0,0,0,2,0h1.819c.363-.181.909-.727,1.271-.909.183-.181.183-.727.366-.909s.546-.363.726-.546c.183,0,.909-.181,1.092,0a1.374,1.374,0,0,1,.363.727.894.894,0,0,1,.183.546,3.1,3.1,0,0,0,1.272.181,4.287,4.287,0,0,0,1.454-.363,13.589,13.589,0,0,0,1.638-.909c.363-.364,1.088-1.092,1.455-1.455a5.759,5.759,0,0,0,.726-1.092,1.091,1.091,0,0,0,.181-.726c.183-.364.183-.91.366-1.092,0-.363.361-.546.726-.727.183-.181.544-.544.727-.544a9.5,9.5,0,0,1,2.182-.546h1.453a3.848,3.848,0,0,0,1.273-.546,7.072,7.072,0,0,0,2-1.09,22.893,22.893,0,0,0,2.183-1.455,20.428,20.428,0,0,1,2.363-1.817c.546-.364,1.271-1.273,1.817-1.636a15.959,15.959,0,0,0,1.817-1.455c.363-.181.729-.727,1.092-1.092.181,0,.364-.181.546-.363a4.233,4.233,0,0,1,1.636,1.273,11.634,11.634,0,0,1,1.453,3.453,5.146,5.146,0,0,1,.727,2.363,6.41,6.41,0,0,1-.363,1.817c-.181.546-1.092,1.092-1.273,1.636a3.73,3.73,0,0,0,.909,1.636,4.038,4.038,0,0,0,2,.909c.547,0,1.09-.726,1.456-1.09a7,7,0,0,0,1.634-1.636c.366-.363,1.455-1.817,1.636-2a8.434,8.434,0,0,1,1.275-1.271,6.064,6.064,0,0,1,2.545.181,3.733,3.733,0,0,0-.363,1.09c0,.183,0,.727.18.91,0,.181.548.727.729.909a2.4,2.4,0,0,1,.544.909c.183.363,0,.909,0,1.09-.181.183-.361.183-.544.364a3.1,3.1,0,0,0-.181,1.271c.181.364.364,1.092.544,1.455a4.589,4.589,0,0,0,1.456,1.817,6.855,6.855,0,0,0,2.362,1.092c.547.363,1.636.909,2.182,1.271.546.183,1.817.364,2.545.546a12.92,12.92,0,0,0,2.728.181,5.81,5.81,0,0,0,1.638-.544,16.416,16.416,0,0,0,1.819-1.455,4.814,4.814,0,0,0,.907-1.636v-1.455a6.052,6.052,0,0,0-.546-1.092c-.18-.363-.909-.909-.909-1.271-.18-.181-.18-.727-.18-.909a1.6,1.6,0,0,1,.727-.909,1.934,1.934,0,0,1,1.09-.364h.363c.181.364.364.546.546.546a2.543,2.543,0,0,0,2,0c.727-.364,1.272-1.455,1.817-1.817a4.462,4.462,0,0,1,2.18-.183,8.542,8.542,0,0,1,2.728,1.092c.909.363,2.729.909,3.638,1.271a4.4,4.4,0,0,1,1.817,1.092,4.614,4.614,0,0,1,.363,2.18,8.878,8.878,0,0,0,.729,2.363,3.675,3.675,0,0,0,1.271,1.092c.546,0,1.817-.91,2.363-1.092a14.07,14.07,0,0,1,2.728-.363,10.437,10.437,0,0,1,2.545.909,13.661,13.661,0,0,1,2.728,2.909c.363.544,1.09,1.817,1.454,2.363.544.909,1.819,2.907,2.363,3.816a30.385,30.385,0,0,1,2.182,2.909,9.708,9.708,0,0,1,1.092,1.817c.181.546-.364,1.455-.364,2a11.15,11.15,0,0,0,.546,2.363c.183.544.544,1.636,1.092,1.817.361,0,.909-.727,1.272-1.09.363-.183.729-.909,1.09-1.092.548,0,1.456.183,2,.183a19.9,19.9,0,0,0,2.728,1.453,8.78,8.78,0,0,0,2.182,0c.544,0,1.453,0,1.819.364a2.958,2.958,0,0,1,.907,1.636c0,.181-.546.546-.726.727s-.909.181-1.092.363c-.364.364,0,1.273-.183,1.636a5.6,5.6,0,0,1-.726,1.092,7.415,7.415,0,0,1-1.636.909c-.546.363-1.456.727-2,1.09-.909.546-2.546,1.817-3.273,2.363-.361.364-.909,1.09-1.273,1.455-.361.546-1.089,1.273-1.272,1.636-.183.546-.726,1.455-.546,2,0,.363.546.909.909,1.09s1.638.181,1.821.544a2.116,2.116,0,0,1-.366,1.819c-.181.363-1.09.727-1.09,1.09a1.21,1.21,0,0,0,.727.909c.181.364.729.546,1.09.727.364.364.909,1.092,1.275,1.455.361.546.909,1.454,1.27,2s1.092,1.819,1.639,2,1.634-.363,2-.546c.546-.181,1.09-.909,1.453-1.09.366,0,1.275.727,1.638.727s1.09-.364,1.455-.364c.544.183,1.092.91,1.636,1.092a2.558,2.558,0,0,0,1.09-.364c.366-.181.91-.909,1.275-1.09.544-.181,1.636.363,2.18.546a8.978,8.978,0,0,0,1.456,1.271c.361.364,1.09.727,1.273,1.09.361.729.18,2.546.18,3.273,0,.544-.363,1.636-.18,2.18s1.636.727,2.179,1.092c.366.181,1.456.363,1.819.727a6.394,6.394,0,0,1,.729,1.636,7.075,7.075,0,0,1,.363,2.726c-.183,1.09-1.455,2.726-1.817,3.636a36.111,36.111,0,0,0-2,3.635c-.183.546-.91,2.182-.727,2.909a4.738,4.738,0,0,0,.727,1.817,8.4,8.4,0,0,0,1.817,1.817,16.262,16.262,0,0,1,2.546,1.273,7.24,7.24,0,0,1,1.816,2.182,6.541,6.541,0,0,1,.546,3.272,6.757,6.757,0,0,1-.726,2.545,9.367,9.367,0,0,1-3.636,1.636,6.2,6.2,0,0,1-1.817.181,22.958,22.958,0,0,1-2.183-1.817,3.92,3.92,0,0,0-2-.181,5.433,5.433,0,0,0-1.817.727c-.364.363-1.273,1.09-1.634,1.453a9.7,9.7,0,0,0-.912,2c-.18.909-.18,2.726-.361,3.635-.183.727-.183,2.728-.727,3.272-.183.546-1.456.91-2,1.092-.729,0-2-.364-2.546-.364-.727.183-2.18.183-2.728.727-.544.364-.909,2-1.271,2.545a8.657,8.657,0,0,1-1.638,2c-.543.181-1.636.181-2.18.364s-1.817.544-2.183,1.09a3.667,3.667,0,0,0-.543,2,4.6,4.6,0,0,0,.361,2.182c.364.727,1.819,1.817,2.365,2.545a3.785,3.785,0,0,1,1.092,1.819c.18.726-.729,2-1.275,2.545a17.569,17.569,0,0,1-3.272.544c-.363.183-1.271.364-1.636.546s-1.273.909-1.273,1.455c0,.727,1.09,1.817,1.273,2.545a5.954,5.954,0,0,1,.726,3.09,4.926,4.926,0,0,1-1.27,1.454,4.606,4.606,0,0,1-2.183-.364,3.426,3.426,0,0,1-1.454-.363c-.546-.546-.546-2-.546-2.728,0-.544.546-1.817.546-2.363s0-1.453-.363-1.817c-.183-.363-.909-.546-1.273-.546a4.278,4.278,0,0,0-2.18.183c-.912.544-1.454,2.545-2,3.09a4.3,4.3,0,0,1-1.817.909,4.086,4.086,0,0,1-2.548-1.092,4.329,4.329,0,0,1-1.09-2c-.183-.546,0-1.817-.363-2.182a2.2,2.2,0,0,0-.909-.909c.18-.363.361-.727.544-1.09.364-.364.909-1.092,1.273-1.454a3.341,3.341,0,0,0,.363-1.273c0-.181.181-.727,0-.909a1.541,1.541,0,0,0-.546-.909c-.181,0-.546-.181-.726-.181-.364,0-.909.181-1.092,0a.391.391,0,0,1-.364-.364c-.181-.363-.726-.909-.909-1.271a3.833,3.833,0,0,1,.547-1.273,10.354,10.354,0,0,1,.18-1.271V192.228a5.953,5.953,0,0,0-1.092-1.09,12.676,12.676,0,0,0-1.089-1.636,18.467,18.467,0,0,0-2-1.819,9.81,9.81,0,0,0-2-.909c-.364-.181-.909-.727-1.273-.909a10.281,10.281,0,0,0-2.362,0c-.547,0-1.819.181-2.365.181s-1.638-.181-2.18-.181c-.183-.181-.912-.181-1.275-.364-.181-.181-.726-.726-.907-.909a5.689,5.689,0,0,1-1.093-.909,2.567,2.567,0,0,0-1.634-.181,2.607,2.607,0,0,0-1.273.365c-.364.181-.727.726-.91.909a5.952,5.952,0,0,1-.546,1.09,4.3,4.3,0,0,0,.364,1.455c0,.363.544.909.544,1.09a5.922,5.922,0,0,1,.548,1.092c.181.544-.183,1.453-.183,2-.181.546-.181,1.273-.364,1.636,0,.363-.544.727-.726,1.092,0,.181-.183.544-.183.726,0,.364,0,.909.183,1.092,0,.181.726.181.909.181s.729-.364.909-.364h1.273c.364,0,1.09,0,1.273.183v.909a3.982,3.982,0,0,1-.183,1.455,3.262,3.262,0,0,1-1.273.909c-.181,0-.727.181-.909.181a5.306,5.306,0,0,1-1.636.363,11.1,11.1,0,0,1-2.363-.181,4.253,4.253,0,0,0-1.455.364,2.66,2.66,0,0,0-.907,1.09,2.432,2.432,0,0,1-.91.546,1.543,1.543,0,0,1-.909-.546c-.364-.181-1.092-1.09-1.456-1.273a2.624,2.624,0,0,0-1.272-.363,9.635,9.635,0,0,0-2.365-.181c-.361.181-1.09.181-1.453.363s-.909.727-1.273.909a5.635,5.635,0,0,1-1.819-.181c-.181,0-.546-.546-.546-.909a3.935,3.935,0,0,1,.183-2c.181-.364,1.09-.727,1.456-1.092.181-.363.909-.727,1.09-1.09s.727-.909.727-1.273a3.984,3.984,0,0,0-.183-1.455c-.181-.181-.544-.726-.726-.909a6.105,6.105,0,0,1-1.093-.544,7.394,7.394,0,0,0-2-.183,7.735,7.735,0,0,1-1.273-.727,4.254,4.254,0,0,1-.909-.909,3.114,3.114,0,0,1,0-1.817c0-.363.729-.546.909-.909.363-.181.909-.364,1.09-.727.183,0,.364-.364.547-.546a1.838,1.838,0,0,0,.18-.544c-.18,0-.544-.183-.544-.364a1.379,1.379,0,0,1-.364-.909c0-.181.364-.363.364-.546.181-.181.544-.544.544-.727a3.07,3.07,0,0,0,.183-1.271c-.183-.181-.546-.727-.727-.727-.183-.181-.727,0-.91,0-.181.181-.543.363-.543.546a6.874,6.874,0,0,1-3.092.544,5.327,5.327,0,0,1-1.638-.363c-.363-.181-1.271-.546-1.636-.727-.363-.364-1.088-.909-1.455-1.273a8.553,8.553,0,0,1-1.817-1.817c-.546-.546-1.455-1.636-2-2.182a3.687,3.687,0,0,0-1.271-1.09,5.731,5.731,0,0,1-1.092-.727,4.354,4.354,0,0,0-1.634-.546c-.185-.181-.912-.181-1.093-.181-.361,0-1.09.364-1.453.364a4.768,4.768,0,0,1-1.456.544,2.076,2.076,0,0,1-1.09.546,5.283,5.283,0,0,1-1.636-.364c-.364-.181-.91-.909-1.273-1.09a15.4,15.4,0,0,0-1.273-1.817c-.363-.365-1.088-1.455-1.454-1.817a5.935,5.935,0,0,0-1.088-.546,3.773,3.773,0,0,0-2-.181,5.379,5.379,0,0,0-1.817.363c-.546.181-1.092.727-1.638.727-.183.181-.909-.181-1.271-.363l-.912-.91a5.516,5.516,0,0,0-.727-1.09,2.185,2.185,0,0,0-.909-.909,1.952,1.952,0,0,0-1.09-.364c-.18,0-.727,0-.91.183a1.541,1.541,0,0,0-.544.909,3.1,3.1,0,0,0-.181,1.271,3.876,3.876,0,0,0,.544,1.273c0,.181.364.546.546.909,0,.181.366.909.366,1.092v1.09c0,.363-.366.727-.548.909a8.263,8.263,0,0,1-1.819,1.273c-.363.181-1.455.363-1.817.544-.181,0-.546.183-.726.183a.906.906,0,0,1-.547.181c-.546,0-1.271-.181-1.817-.181h-1.817c-.363,0-1.092.544-1.455.726a7.611,7.611,0,0,0-1.455,1.092c-.363.181-.909.909-1.271,1.09-.546.181-1.455.546-2,.727-.366,0-1.092.181-1.455,0s-1.275-.727-1.455-1.271a2.623,2.623,0,0,1-.366-1.273c0-.364.183-1.273.183-1.636a5,5,0,0,0-.183-1.636,4.218,4.218,0,0,0-.909-.909c-.181,0-.726-.183-.909-.183a5.043,5.043,0,0,0-1.634-.181c-.366,0-1.093.181-1.456.181a4.758,4.758,0,0,1-1.455-.544,3.5,3.5,0,0,1-.546-1.454,3.364,3.364,0,0,1,.366-1.273,1.939,1.939,0,0,1,.363-1.09,2.444,2.444,0,0,0,.544-.909,4.952,4.952,0,0,0,0-1.636,18.321,18.321,0,0,0-.727-1.817,19.224,19.224,0,0,0-1.271-2c-.363-.546-1.275-1.273-1.638-1.817a13.778,13.778,0,0,1-.909-1.636,6.5,6.5,0,0,0-.726-1.636.908.908,0,0,0-1.454,0,5.842,5.842,0,0,0-.546,1.09c-.183.181-.363.546-.546.727-.363.181-.729.727-1.092.727a1.367,1.367,0,0,1-.726-.364,8.5,8.5,0,0,1-.546-1.271,6.764,6.764,0,0,0-.183-1.817,3.724,3.724,0,0,0-.363-1.092,10.915,10.915,0,0,0-1.455-.727,6.8,6.8,0,0,1-1.271-1.09c-.366-.363-.729-.909-1.093-1.273a1.238,1.238,0,0,0-.546-.909,1.292,1.292,0,0,0-1.09-.544c-.364,0-1.09.363-1.454.181a4.04,4.04,0,0,1-.546-.909c-.181-.364-.544-1.455-.727-2-.18-.363-.363-1.09-.543-1.455a4.007,4.007,0,0,0-.912-.727,2.678,2.678,0,0,0-1.088.183c-.183,0-.546.363-.729.544-.18.364-.726.91-.909,1.273-.363.181-1.092.727-1.454.909s-1.092.546-1.455.364a1.5,1.5,0,0,1-.726-1.092c-.183-.181,0-1.09.18-1.273a5.894,5.894,0,0,1,.909-1.09,1.811,1.811,0,0,0,.912-.727,1.4,1.4,0,0,0,.363-.909c0-.181.18-.909.18-1.271a5.841,5.841,0,0,0-.543-1.638c-.366-1.09-.912-2.907-1.275-3.816-.546-1.092-1.817-3.09-2.363-4a13.784,13.784,0,0,0-1.454-2,10.166,10.166,0,0,0-1.271-1.636,12.237,12.237,0,0,1-1.455-.544,1.214,1.214,0,0,1-.729-.91c-.18-.181-.18-.544-.364-.909,0-.363.364-1.271.364-1.817Z" transform="translate(596.976 3840.111)" fill="#d83a0b" stroke="#fff" stroke-width="0.5" fill-rule="evenodd"/>
    <path id="Path_60" data-name="Path 60" d="M233.118,140.935a3.458,3.458,0,0,1,1.636.544,3.23,3.23,0,0,1,.727,1.816,8.007,8.007,0,0,1-.364,1.816,3.7,3.7,0,0,1-1.09,1.271l-1.455,1.453a10.264,10.264,0,0,0-.909,1.451,2.428,2.428,0,0,0,.546.909,3.668,3.668,0,0,0,2,.544c.364.181,1.273,0,1.817.181a5.661,5.661,0,0,1,.727,1.09,6.092,6.092,0,0,1,0,1.816,10.632,10.632,0,0,1-.363,2.36,6.46,6.46,0,0,1-.727,1.634,7.3,7.3,0,0,0-.909,1.634,4.739,4.739,0,0,0-.546,1.453,2.522,2.522,0,0,0,0,1.634c.181.363.909.726,1.09.907.546.181,1.454.363,1.817.544a5.713,5.713,0,0,1,.909,1.09,2.4,2.4,0,0,1,.546.907c0,.546-.181,1.453-.181,1.816a5.8,5.8,0,0,0-.546,1.634,8.892,8.892,0,0,0-.727,2,8.754,8.754,0,0,0,0,2.179,5.321,5.321,0,0,1-.544,1.816,16.135,16.135,0,0,0-1.09,1.816,14.248,14.248,0,0,0-.727,1.634,12.281,12.281,0,0,0-.364,2.543,13.362,13.362,0,0,0,.909,1.633,3.77,3.77,0,0,1,1.092,1.816,2.638,2.638,0,0,1-1.092,1.634,4.942,4.942,0,0,1-2.362,1.271c-.546,0-1.454.181-2,.181a17.55,17.55,0,0,1-3.09,0c-.544,0-1.09-.544-1.453-.907-.364-.181-.909-1.09-1.273-1.271a3.264,3.264,0,0,0-1.634-.726,3.378,3.378,0,0,0-1.273.363c-.363.181-.727.907-1.09,1.271a7.681,7.681,0,0,0-.909,1.27,5.531,5.531,0,0,1-.909,1.271,5.768,5.768,0,0,1-1.09.907,4.28,4.28,0,0,1-1.455.365,3.27,3.27,0,0,1-1.817-.183,3.935,3.935,0,0,0-.909-.726,3.1,3.1,0,0,0-1.271.181c-.363,0-.909.544-1.271.727s-1.092.363-1.454.544-.909.544-1.272.726c-.183.363-.727,1.271-.909,1.634a2.652,2.652,0,0,0-.909,1.09c-.364.363-.727,1.27-1.09,1.451-.183.364-1.092.546-1.455.727a4.277,4.277,0,0,1-1.454.363c-.544.181-1.634,0-2.18.181a11.121,11.121,0,0,0-2.363.544,12.96,12.96,0,0,0-1.634,1.271,2.916,2.916,0,0,0-.727,1.271,3.364,3.364,0,0,0,.363,1.27,5.61,5.61,0,0,0,.727,1.09,19.747,19.747,0,0,1,2,1.816c.364.181.727.909,1.09,1.09a7.409,7.409,0,0,0,1.636.907,5.379,5.379,0,0,0,1.817-.363c.364-.363,1.09-1.09,1.454-1.453.181-.181.363-.544.727-.726a2.934,2.934,0,0,1,1.634-.546,1.6,1.6,0,0,1,1.273.183,4.245,4.245,0,0,1,1.272,1.27,4.278,4.278,0,0,1-.363,1.453c0,.363-.546.726-.727,1.09a4.235,4.235,0,0,1-.364,1.451c0,.546.183,1.634.183,2.178a4.985,4.985,0,0,1-.183,1.634,4,4,0,0,1-.181,1.453,3.7,3.7,0,0,1-1.09,1.271c-.181.363-.909.726-1.09,1.088-.181.181-.727.364-.727.727-.181.181-.181.726-.181.907a5.946,5.946,0,0,0,.546,1.09,7.7,7.7,0,0,1,1.271.907c.181.181.544.727.727.909.363.363.909.907.909,1.271a3.994,3.994,0,0,1,.181,1.451c.181.727.727,3.269.727,3.269v15.251a6.846,6.846,0,0,0,1.09.909c.181.363.727,1.27.909,1.634a5.369,5.369,0,0,1,.363,1.816c0,.363-.181,1.27-.181,1.633a16.155,16.155,0,0,0-.363,2.724,5.773,5.773,0,0,0,.363,2.541c.181.727,1.636,1.816,2,2.361a15.59,15.59,0,0,1,1.636,2,7.03,7.03,0,0,1,1.09,2,4.912,4.912,0,0,1-.363,3.086c-.181.181-.727.546-.909.909a2.661,2.661,0,0,0-1.09.907,1.389,1.389,0,0,1-.365.727c-.727-.183-1.636-.364-2.18-.546-1.09-.363-2.907-1.088-4-1.451a38.223,38.223,0,0,1-4.179-.546,11.54,11.54,0,0,1-2.545-1.453c-.727-.363-1.636-1.633-2.18-1.814-.727-.365-2.363,0-3.09.181l-2.907.726a32.805,32.805,0,0,1-3.816,1.453,15.934,15.934,0,0,1-2.907-.363,12.287,12.287,0,0,1-2.18-1.09,15.185,15.185,0,0,0-1.455-2.179,11.876,11.876,0,0,0-2.362-.727c-.727,0-2,.183-2.545-.181a2.892,2.892,0,0,1-.909-1.816c0-.544,1.271-1.088,1.453-1.633a3.264,3.264,0,0,0,.183-1.816c-.183-.727-1.273-1.634-1.636-2.18a3.752,3.752,0,0,1-1.09-1.816,3.815,3.815,0,0,1,.726-2,3.7,3.7,0,0,1,1.092-1.27,6.406,6.406,0,0,1,1.634-.727c.546-.181,1.817-.363,2.182-.544a6.173,6.173,0,0,0,1.09-1.09c.181-.544.181-1.633.546-2a12.539,12.539,0,0,1,1.453-.544,6.7,6.7,0,0,0,2-.907,2.045,2.045,0,0,0,.909-1.453c.181-.363-.181-1.271-.363-1.816a9.634,9.634,0,0,0-1.09-1.816c-.364-.546-1.092-1.453-1.454-2a5.032,5.032,0,0,1-.181-1.634,6.4,6.4,0,0,1,.727-1.634c0-.363.363-.907.181-1.271a2.652,2.652,0,0,0-1.09-1.634,6.406,6.406,0,0,0-3.635-.544c-.546,0-1.455.727-2,.727a4.6,4.6,0,0,1-2.182-.364,3.45,3.45,0,0,1-1.271-2,4.477,4.477,0,0,1,.727-1.634l1.453-1.451c.181-.364.727-1.09.727-1.453a12.6,12.6,0,0,0,.546-3.631c.181-.909.544-2.541.726-3.45a20.147,20.147,0,0,1,.364-3.45,11.918,11.918,0,0,1,.909-2.723,9.494,9.494,0,0,1,2-1.816c.727-.544,2.18-1.271,2.726-1.816.363-.363,1.453-.909,1.636-1.453a4.411,4.411,0,0,0,0-2.178c-.364-.544-1.454-1.09-1.817-1.453a23.586,23.586,0,0,0-2.907-1.634c-.365-.181-.909-.907-1.273-.907a2.715,2.715,0,0,0-1.271.544,1.416,1.416,0,0,0-.181,1.453c.181.544,1.271,1.088,1.271,1.453,0,.544-.909,1.451-1.455,1.633a2.5,2.5,0,0,1-1.634,0,3.045,3.045,0,0,1-2-1.633c-.544-.727-.363-2.906-.726-3.813-.364-.727-1.092-2-1.455-2.543-.727-.726-2-2.36-2.726-3.086s-2.726-2-3.635-2.724a20.1,20.1,0,0,1-2.545-1.634c-.363-.544-.544-2.179-.909-2.9a3.67,3.67,0,0,0-1.09-1.271c-.363-.363-1.453-.181-1.817-.181a16.416,16.416,0,0,0-2.907.544,24.3,24.3,0,0,0-3.27,1.271c-.909.363-2.545,1.27-3.453,1.634a10,10,0,0,1-3.089.907,8.023,8.023,0,0,1-2.909-.363,5.661,5.661,0,0,1-1.634-1.271c-.727-.544-1.817-2-2.545-2.541a20.083,20.083,0,0,0-3.09-.909,16.012,16.012,0,0,0-3.089-.363,15.929,15.929,0,0,0-2.907-.363,14.052,14.052,0,0,0-2.726.363,11.026,11.026,0,0,0-2.363.546,16.583,16.583,0,0,0-2.362,1.451,6.737,6.737,0,0,0-.909,2c-.181.546-.181,1.816-.363,2.362-.183.363-.546,1.453-.909,1.634s-1.092,0-1.455,0-1.271-.181-1.636.181c-.363.181-.363,1.088-.727,1.088a1.538,1.538,0,0,1-1.271,0,6.7,6.7,0,0,1-.909-2c-.181-.544-.363-1.816-.546-2.36a16.592,16.592,0,0,0-1.453-2.36,28.954,28.954,0,0,1-1.273-3.631,3.716,3.716,0,0,1,0-2,9.138,9.138,0,0,1,.909-2.362,10.98,10.98,0,0,0,.909-2.178c0-.907-.726-2.541-.726-3.45-.183-1.088.363-3.45.363-4.538,0-.726-.181-2-.181-2.724-.364-1.088-.727-2.9-1.09-3.813a18.356,18.356,0,0,0-2.363-2.9,10.939,10.939,0,0,0-2.362-1.634c-.909-.363-2.909-.909-4-1.271-.544,0-1.453-.363-1.817-.363a22.2,22.2,0,0,0-3.089-1.271H97.549c-.544.181-1.271,1.09-1.817,1.271a7.74,7.74,0,0,1-2-.363,2.526,2.526,0,0,1-1.455-1.271c-.181-.181-.181-1.088-.181-1.27.181-.546.727-1.453.909-2,.181-.181.909-.907.909-1.27a2.313,2.313,0,0,0-1.271-1.634,3.82,3.82,0,0,0-2-.726,5.037,5.037,0,0,0-1.636.181c-.546.363-1.09,1.451-1.636,2a13.9,13.9,0,0,1-1.636,1.634,11.761,11.761,0,0,1-2.362.726c-.546.181-1.817,0-2.545.181-.546.181-1.455,1.09-2,1.271a3.726,3.726,0,0,1-1.636.907,17.546,17.546,0,0,1-3.27-.544c-.364-.181-1.092-.909-1.455-1.09a11.764,11.764,0,0,0-1.455-1.634c-.544-.363-2.18-.544-2.907-.907a6.374,6.374,0,0,1-1.453-.907,19.135,19.135,0,0,1-1.636-2,15.953,15.953,0,0,1-1.636-3.63,14.053,14.053,0,0,1-.363-2.724,20.863,20.863,0,0,1-.181-3.269c.181-.907.544-2.723.726-3.45a7.3,7.3,0,0,0,0-2,14.63,14.63,0,0,0-1.817-1.633,10.312,10.312,0,0,1-1.453-2.362c-.181-.363,0-1.451-.181-1.816a11.119,11.119,0,0,0-.909-2.179,14.355,14.355,0,0,1-.546-2.723A10.645,10.645,0,0,1,58.3,113.7a9.7,9.7,0,0,1,.909-2,7.893,7.893,0,0,0,1.09-1.27,3.143,3.143,0,0,0,.181-1.816,9.7,9.7,0,0,0-.909-3.269c-.363-.544-.909-1.816-1.455-2-.363-.363-1.453-.181-2-.181a12.229,12.229,0,0,1-2.18-1.09,8.33,8.33,0,0,1-1.455-2.36c-.544-1.09-.544-3.269-.909-4.176A11.857,11.857,0,0,0,50.3,92.819a.946.946,0,0,0,.727-.363,25.13,25.13,0,0,1,3.635-.544,12.622,12.622,0,0,1,2.362.907c.546.363,1.09,2,1.817,2.36S61.2,95,62.113,95a12.251,12.251,0,0,1,3.635.181,6.742,6.742,0,0,1,2.543,1.271c.364.544.546,2,.909,2.541.364.909.909,2.543,1.636,3.087a8.959,8.959,0,0,0,2.726,1.816,6.917,6.917,0,0,0,2.726-.907,20.53,20.53,0,0,0,3.272-2.18c.909-.726,2.543-2.36,3.452-3.086.909-.909,2.909-2.36,3.818-3.269A6.528,6.528,0,0,0,88.1,92.638a.178.178,0,0,0,.181-.181c.181.181.364.363.364.544.363.181,1.09.364,1.453.546s1.09.363,1.455.544a9.572,9.572,0,0,0,2.18.544c.546,0,1.455-.544,1.817-.544a8.025,8.025,0,0,1,1.817-.363c.363,0,1.09.181,1.271.544.364.363.183,1.634.364,2.178a23.258,23.258,0,0,0,1.636,2.906,7.484,7.484,0,0,0,2,1.27,7.459,7.459,0,0,0,2,.181c.909,0,2.545-.363,3.27-.363.183.181.727.181.909.363.364,0,.727.546.909.727.183.363,0,1.088.364,1.271.181.181.909-.183,1.09-.364a1.494,1.494,0,0,0,1.09-.726,2.07,2.07,0,0,0,.546-1.09,22.368,22.368,0,0,0,.909-2.541,10.413,10.413,0,0,1,.726-2.541,5.225,5.225,0,0,1,1.454-2.362,4.993,4.993,0,0,1,1.636-1.27,8.857,8.857,0,0,1,2.18-.181c.364.181,1.273.544,1.636.726.181.181.546,1.09.727,1.271a3.1,3.1,0,0,0,1.817,0c.363,0,.726-.727.909-.909a4.278,4.278,0,0,1,1.453-.363c.181,0,.727,0,.909.181a6.4,6.4,0,0,1,.727,1.634,3.545,3.545,0,0,0,.181,1.453A6.722,6.722,0,0,0,130.624,97a7.4,7.4,0,0,1,2,.183,5.768,5.768,0,0,1,1.636.544c.181.181.727.544.909.726.363.181.909.727,1.271.727.546.181,1.273-.364,1.817-.546a13.568,13.568,0,0,1,2.182-1.27c.544-.181,1.817-.727,2.362-.546s1.09.909,1.455,1.271c.181.363.544,1.453.727,1.816a6.858,6.858,0,0,0,1.271,1.09c-.181.181-.363.544-.546.726a6.008,6.008,0,0,0-.544,1.09,3.774,3.774,0,0,0-.364,1.088,5.333,5.333,0,0,0,.546,1.816,10.42,10.42,0,0,0,2,2,8.2,8.2,0,0,0,2.18,1.09c.727.363,2.182,1.27,3.09,1.634a10.646,10.646,0,0,0,2.362.363,7.477,7.477,0,0,0,2-.181c.363-.181,1.09-.909,1.453-.909a6.833,6.833,0,0,1,1.817-.181c.909,0,2.545-.181,3.272-.181h1.271a3.071,3.071,0,0,0,1.817-.544c.546-.181,1.271-1.09,1.817-1.634a8.4,8.4,0,0,1,1.271-1.271c.183-.181.727-.181,1.092-.363a6.182,6.182,0,0,1,1.816.181c.183.181.183.909.183,1.271a2.582,2.582,0,0,1-.364,1.088c-.181.183-.544.727-.727.909a1.915,1.915,0,0,0-.363.907c-.181.727,0,2-.181,2.543a10.266,10.266,0,0,1,0,2.36v2.723a8.857,8.857,0,0,0,.181,2.18,5.766,5.766,0,0,0,1.09.907,3.693,3.693,0,0,0,1.273,1.09,4.278,4.278,0,0,1,1.453.363h2a2.667,2.667,0,0,0,1.092-.909,18.974,18.974,0,0,0,1.271-2,3.7,3.7,0,0,1,1.09-1.27,1.608,1.608,0,0,1,.909-.727h1.273c.363.181,1.09.363,1.453.544a5.7,5.7,0,0,1,.909,1.817,5.6,5.6,0,0,1,.181,1.816v1.27a3.136,3.136,0,0,0,1.09,1.09c.183.181.727,0,1.092,0a2.628,2.628,0,0,1,1.271.363,2.93,2.93,0,0,1,1.272.726c.364.364.909.909.909,1.271a3.969,3.969,0,0,1,.183,1.453,5.463,5.463,0,0,0,.726,1.453c.183.181.546.726.909.907.183,0,.909-.181,1.273-.181a3.094,3.094,0,0,1,1.271.181c.363.181,1.09.363,1.271.726a1.943,1.943,0,0,1,.364,1.09c.181.544.181,1.634.363,2.36a7.453,7.453,0,0,0,.181,2,3.126,3.126,0,0,0,1.092,1.09,4.329,4.329,0,0,0,2,1.09,4.434,4.434,0,0,0,2.18,0,5.928,5.928,0,0,0,2.545-.727c.363-.181,1.09-.726,1.636-1.088.726-.183,2.18-.727,2.907-.909a8.879,8.879,0,0,1,3.089.181,14.512,14.512,0,0,1,2.726.544,29.368,29.368,0,0,1,3.816.909c.364.363,1.454.907,1.454,1.271.181.363-.181,1.088-.181,1.27-.183.364-.909.727-.909.909a2.257,2.257,0,0,0,1.09,1.453c.181.181.909.181,1.09.363a6.068,6.068,0,0,1,1.817,0c.363,0,.727.726.909.907.363.181.909,0,1.09.181a8.872,8.872,0,0,0,2.182-.181,12.754,12.754,0,0,0,1.634-1.088,6.741,6.741,0,0,1,1.273-1.09,5.307,5.307,0,0,1,1.634-.363.668.668,0,0,1,.546.181" transform="translate(505.073 3842.326)" fill="#d83a0b" stroke="#fff" stroke-width="0.5" fill-rule="evenodd"/>
    <path id="Path_64" data-name="Path 64" d="M48.414,94.214a2.5,2.5,0,0,0-.544-.735c-.181-.366-.546-.915-.727-1.283-.363-.366-.544-1.468-.726-1.834-.181-.551-.546-1.286-.727-1.835,0-.368.181-1.1,0-1.286-.181-.366-1.088-.549-1.453-.549a8.769,8.769,0,0,0-2.179.183c-.363,0-.907.735-1.271.918-.363,0-1.088.183-1.634.183-.181,0-.907-.183-1.088,0a2.194,2.194,0,0,0-.909.917c-.181.183-.181.735-.181.918a6.044,6.044,0,0,1,.544,1.1,6.787,6.787,0,0,1,1.09,1.285v1.283c-.181.183-.544.552-.726.552-.364.183-.909.366-1.271.551s-.909.732-1.271.915c-.544.183-1.271.366-1.816.552a3.986,3.986,0,0,1-.909.734,5.55,5.55,0,0,1-1.816.183H29.166a6.432,6.432,0,0,1-1.634-.734,3.764,3.764,0,0,0-1.088-.369c-.364,0-1.09.552-1.453.735-.181.185-.727.551-.727.734-.181.366,0,.918,0,1.285,0,.183-.363.551-.363.917,0,.183.363.549.544.735,0,.366-.181.917-.181,1.283l.727,2.2c.181.183.181.366.181.732,0,0,1.088.92,1.453,1.286.363.185,1.088.366,1.453.549a2.2,2.2,0,0,1,.907.918c.544.368.909,2.018,1.634,2.018.544.183,1.271-.735,1.634-1.1a8.454,8.454,0,0,0,1.453-2.386,17.335,17.335,0,0,0,.726-2.935A20.718,20.718,0,0,1,35.7,99.9a4.3,4.3,0,0,1,1.634-1.466c.363-.369,1.271-.369,1.816-.552a15,15,0,0,0,2.724-.732c.544-.183,1.453-.734,2-.917.546-.369,1.634-.735,2.18-1.1a8.153,8.153,0,0,0,2-.549Z" transform="translate(488.342 3839.109)" fill="#d83a0b" stroke="#fff" stroke-width="0.5" fill-rule="evenodd"/>
    <path id="Path_68" data-name="Path 68" d="M335.8,182.371c.181.181,0,.729,0,.91a3.385,3.385,0,0,1-.363,1.275c-.364.363-.909,1.092-1.273,1.455l-.544,1.093h-.181a3.768,3.768,0,0,0-2-.183c-.364.183-1.273.91-1.636,1.092-.544.364-1.634.729-2,1.275s-.363,2.366-.544,3.094a18.43,18.43,0,0,1-1.273,4.187,14.252,14.252,0,0,1-1.816,2.731,15.987,15.987,0,0,1-3.816,2.183c-.727.364-2.361.729-2.907,1.275a14.308,14.308,0,0,0-.909,2.548,18.418,18.418,0,0,1-.544,3.094,12.382,12.382,0,0,1-1.09,2.185c-.364.546-1.636,1.092-1.817,1.638a8.867,8.867,0,0,0-.181,3.094,13.829,13.829,0,0,1,.181,2.731,9.23,9.23,0,0,1-1.636,2.366,28.825,28.825,0,0,0-2.362,2.367c-.364.546-1.09,1.456-1.09,2s.909,1.456,1.09,2a9.041,9.041,0,0,1,.363,3.094,4.831,4.831,0,0,1-1.817,2c-.726.546-2.362.729-3.089,1.093a5.9,5.9,0,0,0-2.362,1.819c-.546.729-.546,2.548-.909,3.277a26.711,26.711,0,0,1-1.817,4c-.726,1.092-2.362,2.731-3.089,3.639a11.214,11.214,0,0,0-.909,2.185c.183.546,1.455,1.275,2,1.638.727.364,2,.91,2.726,1.275.363.364,1.453.727,1.453,1.273.183.364-.544,1.093-.726,1.456-.365.364-1.272,1.093-1.636,1.456-.363.546-1.271,1.821-1.636,2.549-.182.727-.363,2.548-.544,3.275,0,1.093.181,3.1.181,4a13.656,13.656,0,0,0,.909,2.912,3.2,3.2,0,0,0,1.636,1.456,9.685,9.685,0,0,0,1.816-.546,2.938,2.938,0,0,1,1.273-.727c.363-.183,1.271.364,1.453.727.181.546-.544,1.821-.544,2.366a8.958,8.958,0,0,0,1.09,3.1c.363.546,1.453,1.273,1.816,1.819a9.069,9.069,0,0,1,1.454,1.275,9.41,9.41,0,0,1,.363,2,13.808,13.808,0,0,0,.181,2.729,3.214,3.214,0,0,0,1.455,1.639c.544.181,1.817-.546,2.362-.546a4.262,4.262,0,0,1,2,.363,3.066,3.066,0,0,1,1.09,2,4.631,4.631,0,0,1-.363,2.185,3.666,3.666,0,0,1-.546,2c-.363.364-1.272.729-1.453,1.275a3.287,3.287,0,0,0,.363,1.819,4.875,4.875,0,0,0,1.455,1.275c.544.181,2,0,2.543.364a4.692,4.692,0,0,1,1.636,1.638,4.335,4.335,0,0,1,.544,2.185,4.469,4.469,0,0,1-.726,2.183c-.364.729-1.636,1.456-2.182,2a4.241,4.241,0,0,0-1.271,1.275,21.207,21.207,0,0,0-.726,3.275c0,1.093.363,3.1.363,4.187a12.284,12.284,0,0,1-.181,3.64,13.6,13.6,0,0,1-2.545,3.1,9.777,9.777,0,0,1-2.362,1.273,5.584,5.584,0,0,1-2.362.546,5.723,5.723,0,0,1-1.636-.546c-.363-.181-1.09-1.092-1.636-1.456a3.853,3.853,0,0,0-1.271-.546,6.449,6.449,0,0,0-2,.546c-.544.364-1.09,1.456-1.634,2-.364.364-1.273,1.456-1.817,1.639a2.942,2.942,0,0,1-1.636.546,8.782,8.782,0,0,1-2.18-.183c-.546-.363-1.453-1.455-2-1.819a7.664,7.664,0,0,0-.909-1.275,5.376,5.376,0,0,0-1.817-.365,5.235,5.235,0,0,0-2.362-.181,9.558,9.558,0,0,0-1.817,2c-.363.91-.727,2.912-1.09,3.823-.363.729-.727,2-1.09,2.548-.363.183-1.271.729-1.636.546-.726,0-1.634-1.092-2.18-1.638-.363-.364-.726-1.275-1.272-1.638a6.042,6.042,0,0,0-1.09-.548,7.514,7.514,0,0,0-2.907.364,10.921,10.921,0,0,0-2.362,1.639,24.986,24.986,0,0,1-2.18,2.183c-.727.183-2,.364-2.726.546a10.628,10.628,0,0,1-3.452-.363,3.084,3.084,0,0,1-1.454-1.093,3.14,3.14,0,0,1-.363-2.183c.181-.364,1.09-.91,1.453-1.275a2.052,2.052,0,0,0,.181-1.456c0-.727-.907-1.638-1.271-2.183-.181-.548-1.09-1.275-1.271-1.821a14.46,14.46,0,0,1-.727-1.638c-.181-.729-.181-2-.363-2.731s-.727-2-.909-2.731a6.747,6.747,0,0,0-.909-2c-.181-.546-1.09-1.092-1.636-1.456s-2-1.092-2.724-1.456a19.352,19.352,0,0,1-2-1.092c-.364-.181-.909-1.092-1.455-1.273a3.512,3.512,0,0,0-2.724-.364c-.546.181-1.273,1.273-1.817,1.638a12.688,12.688,0,0,1-2.362.91,5.908,5.908,0,0,1-2.363-2.366,4.108,4.108,0,0,1-.181-2.548,8.531,8.531,0,0,1,1.636-2.183,7.14,7.14,0,0,0,1.453-1.821,3.158,3.158,0,0,0-.181-1.821c-.363-.727-1.817-1.456-2.362-1.821a20.546,20.546,0,0,1-3.272-2.183c-.363-.364-1.09-1.275-1.453-1.638a5.727,5.727,0,0,0-1.636-.548,7.133,7.133,0,0,0-1.816,1.458c-.546.363-1.273,1.092-1.636,1.273a4.521,4.521,0,0,1-1.636-.181c-.363,0-.909-.729-1.271-.729a6.455,6.455,0,0,0-1.817-.363,8.77,8.77,0,0,1-2.18,0,7.749,7.749,0,0,1-2.18-2,6.525,6.525,0,0,1-.727-2c-.181-.364-.363-1.092-.726-1.273-.364-.364-1.454-.183-1.817-.364a7.391,7.391,0,0,1-1.636-.91,11.918,11.918,0,0,1-.727-2.366,10.465,10.465,0,0,0-.726-2.548,5.322,5.322,0,0,0-1.271-2.183,6.686,6.686,0,0,0-2.545-1.275c-.727-.181-2.362,0-3.089-.181a5.9,5.9,0,0,1-2.362-.729,12.191,12.191,0,0,1-3.453-2.548c-.726-.546-1.817-2-2.543-2.548a5.8,5.8,0,0,0-.909-1.093,8.9,8.9,0,0,0-2-.727,6.017,6.017,0,0,0-1.817,0c-.544.181-1.271,1.275-1.817,1.638q-.544.275-1.09.546a7.9,7.9,0,0,1,.181-.909c.183-.364.546-.91.727-1.275.363-.364,1.272-1.092,1.817-1.638a14.081,14.081,0,0,0,1.636-1.639,10.111,10.111,0,0,0,.907-1.456c0-.363-.181-1.092-.181-1.456,0-.181,0-.909.181-1.092a9.162,9.162,0,0,1,.364-2.183,12.214,12.214,0,0,1,1.09-2.185,9.514,9.514,0,0,1,1.817-2,6.536,6.536,0,0,1,1.816-1.275c.546-.363,1.455-.909,2-1.273a5.6,5.6,0,0,0,.727-1.092c.181-.183.181-.729.181-1.093s-.181-1.092-.181-1.456a2.406,2.406,0,0,1,.546-.909,9.934,9.934,0,0,1,1.634-1.275,12.183,12.183,0,0,1,2.18-1.092,19.039,19.039,0,0,1,1.817-.729,5.647,5.647,0,0,0,1.817-.91,2.761,2.761,0,0,0,.727-1.456,3.862,3.862,0,0,0-.546-1.273c-.181-.364-.909-.729-1.09-1.092a1.39,1.39,0,0,1-.363-.729,5.058,5.058,0,0,1-.181-1.638c0-.546-.183-1.639-.183-2.185,0-.181.183-.909.183-1.092-.183-.181-.546-.546-.727-.727a1.946,1.946,0,0,1-1.09-.364,3.7,3.7,0,0,1-1.09-1.275c-.364-.181-1.09-.727-1.455-.727-.363-.183-1.09-.364-1.453-.546h-1.636c-.363.181-1.09.727-1.453.91a3.1,3.1,0,0,1-1.817,0,3.146,3.146,0,0,1-1.09-1.093,1.845,1.845,0,0,1-.727-1.273,4.868,4.868,0,0,1-.544-2.185,6.857,6.857,0,0,0-.181-1.821,3.876,3.876,0,0,0-.546-1.273c-.181-.364-.727-.91-.909-1.275-.181-.181-.909-.546-1.09-.727,0-.183-.181-.729-.181-.91s0-.729.181-.91a1.1,1.1,0,0,1,.727-.181h.909a1.816,1.816,0,0,1,.544-.183c.546-.181,1.636-.727,2.18-.91.727-.546,2.18-1.638,2.726-2.183a13.7,13.7,0,0,0,2-2.548,7.083,7.083,0,0,0,1.09-2v-1.456a10.414,10.414,0,0,0,.181-2.366,5.633,5.633,0,0,1-.181-1.821c0-.365-.181-.91,0-1.273a1.5,1.5,0,0,1,.727-1.093,1.379,1.379,0,0,1,.726.364,2.667,2.667,0,0,1,.909,1.092,8.077,8.077,0,0,0,.727,1.275,2.7,2.7,0,0,0,1.09.181h1.09c.364-.181.909-.546,1.271-.727s.909-.729,1.273-.729.726.364,1.09.364c.363.181.909.91,1.272,1.092h1.271a3.862,3.862,0,0,0,1.273-.546,1.946,1.946,0,0,1,1.09-.365,13.64,13.64,0,0,1,2.724,0h2.18a7.726,7.726,0,0,0,2-.363,18.359,18.359,0,0,0,3.089-.546c.546-.183,1.455-.91,2-1.093a3.114,3.114,0,0,0,1.09-1.092.819.819,0,0,0,.546-.546c0-.364-.727-.546-.909-.729a8.9,8.9,0,0,0-.544-1.273,5.946,5.946,0,0,1-.546-1.092,2.636,2.636,0,0,1,.363-1.275,4.529,4.529,0,0,1,1.273-.727c.181-.364.909-.91,1.09-1.275a5.634,5.634,0,0,0,.181-1.821c0-.364-.363-1.273-.363-1.638-.183-.364-.546-1.092-.727-1.456a12.264,12.264,0,0,0-1.09-2.185,19.933,19.933,0,0,0-1.455-2.729,26.727,26.727,0,0,0-1.634-2.366c-.364-.181-.909-.546-1.273-.727s-1.09-.183-1.453-.364a.822.822,0,0,1-.546-.546c0-.183.183-.729.183-.91h.726a2.953,2.953,0,0,1,1.273,0c.363,0,1.09.181,1.271.181l1.09-.546h1.09c.181-.181.546-.364.727-.546a3.078,3.078,0,0,0,.544-1.092c.181-.546,0-1.456.181-1.821,0-.364.546-.91.727-1.275a1.38,1.38,0,0,1,.727-.363,3.52,3.52,0,0,1,1.271-.183c.727,0,2.18-.181,2.907-.181a17.416,17.416,0,0,0,3.27-.546,6.4,6.4,0,0,0,1.454-.91,16.64,16.64,0,0,0,1.453-2.366,6.4,6.4,0,0,1,.909-1.456,2.679,2.679,0,0,1,1.09-.91c.363-.363,1.636-.546,2-.91a2.669,2.669,0,0,0,.909-1.092,5.706,5.706,0,0,0,.727-1.092,2.532,2.532,0,0,0,0-1.638,2.108,2.108,0,0,0-.909-1.275c-.364-.181-1.273-.181-1.636-.364a5.467,5.467,0,0,1-1.817-.727c-.363,0-.726-.183-.726-.364a1.548,1.548,0,0,1,0-1.275,4.141,4.141,0,0,1,.181-.727,5.542,5.542,0,0,1,1.817-1.275,7.372,7.372,0,0,0,1.634-.909,5.693,5.693,0,0,0,.727-1.093c0-.181.363-.546.363-.727-.181-.364-.909-.546-1.09-.91,0-.181.181-.729.181-1.092.183-.364.364-1.093.546-1.456.181-.183.544-.364.727-.546s.181-.729.181-1.093v-1.273a4.26,4.26,0,0,0-.364-1.456c-.181-.183-.544-.729-.726-.91,0-.181-.181-.364-.181-.546.181,0,.544-.183.726-.183.364-.181,1.455-.363,1.817-.546a3.921,3.921,0,0,0,.909-.546,3.971,3.971,0,0,0,.909-.727,1.551,1.551,0,0,0,.544-.91v-1.092c0-.183-.363-.91-.363-1.093-.181-.363-.546-.727-.546-.909a3.864,3.864,0,0,1-.544-1.275,3.11,3.11,0,0,1,.181-1.275,1.541,1.541,0,0,1,.546-.909c.181-.183.726-.183.909-.183a1.956,1.956,0,0,1,1.09.364,2.2,2.2,0,0,1,.909.91,5.628,5.628,0,0,1,.726,1.092l.909.91c.363.181,1.09.546,1.271.364.546,0,1.09-.546,1.636-.729a5.378,5.378,0,0,1,1.817-.364,3.769,3.769,0,0,1,2,.183,6.05,6.05,0,0,1,1.09.546c.363.364,1.09,1.456,1.453,1.819a15.609,15.609,0,0,1,1.271,1.821c.364.183.909.91,1.273,1.092a5.264,5.264,0,0,0,1.634.364,2.07,2.07,0,0,0,1.09-.546,4.749,4.749,0,0,0,1.454-.546c.363,0,1.09-.364,1.453-.364.181,0,.909,0,1.09.183a4.313,4.313,0,0,1,1.636.546,5.663,5.663,0,0,0,1.09.727,3.725,3.725,0,0,1,1.271,1.092c.546.547,1.455,1.639,2,2.185a8.649,8.649,0,0,0,1.817,1.821c.363.363,1.09.909,1.453,1.273.364.183,1.273.546,1.636.729a5.306,5.306,0,0,0,1.636.363,6.818,6.818,0,0,0,3.089-.546c0-.181.363-.363.544-.546.181,0,.727-.181.909,0,.181,0,.546.546.727.729a3.1,3.1,0,0,1-.181,1.273c0,.183-.364.546-.546.729,0,.181-.363.364-.363.546a1.391,1.391,0,0,0,.363.91c0,.181.363.364.546.364a1.832,1.832,0,0,1-.183.546c-.181.181-.363.546-.544.546-.181.364-.727.546-1.09.727-.181.364-.909.546-.909.91a3.1,3.1,0,0,0,0,1.821,4.335,4.335,0,0,0,.909.91,7.9,7.9,0,0,0,1.271.727,7.46,7.46,0,0,1,2,.181,6.043,6.043,0,0,0,1.09.547c.181.181.546.727.727.909a4.025,4.025,0,0,1,.181,1.456c0,.364-.546.91-.727,1.275s-.909.729-1.09,1.092c-.363.364-1.271.729-1.453,1.093a3.928,3.928,0,0,0-.181,2c0,.363.363.91.544.91a5.612,5.612,0,0,0,1.817.181c.363-.181.909-.729,1.271-.91s1.09-.181,1.455-.364a9.534,9.534,0,0,1,2.362.183,2.629,2.629,0,0,1,1.271.363c.364.183,1.09,1.093,1.455,1.275a1.543,1.543,0,0,0,.909.546,2.422,2.422,0,0,0,.907-.546,2.682,2.682,0,0,1,.909-1.092,4.252,4.252,0,0,1,1.454-.364,11.089,11.089,0,0,0,2.362.181,5.326,5.326,0,0,0,1.636-.363c.181,0,.726-.183.909-.183a3.249,3.249,0,0,0,1.271-.91,4.015,4.015,0,0,0,.181-1.456v-.909c-.181-.183-.909-.183-1.271-.183h-1.271c-.183,0-.727.364-.909.364s-.909,0-.909-.181c-.182-.183-.182-.729-.182-1.093,0-.181.182-.546.182-.727.181-.364.726-.729.726-1.092.183-.364.183-1.093.364-1.639,0-.546.363-1.456.181-2a5.944,5.944,0,0,0-.546-1.092c0-.181-.544-.727-.544-1.092a4.3,4.3,0,0,1-.363-1.456,6.131,6.131,0,0,0,.544-1.092,4.257,4.257,0,0,1,.909-.91,2.611,2.611,0,0,1,1.271-.364,2.57,2.57,0,0,1,1.636.181,5.711,5.711,0,0,0,1.09.91c.181.183.727.729.909.91.363.181,1.09.181,1.271.364.546,0,1.636.181,2.18.181s1.817-.181,2.362-.181a10.2,10.2,0,0,1,2.363,0c.363.181.909.727,1.271.91a9.637,9.637,0,0,1,2,.91,17.992,17.992,0,0,1,2,1.819,12.807,12.807,0,0,1,1.09,1.638,5.975,5.975,0,0,1,1.09,1.093v14.924a10.3,10.3,0,0,0-.181,1.275,3.87,3.87,0,0,0-.544,1.273c.181.364.726.91.907,1.275a.393.393,0,0,0,.364.364c.181.181.726,0,1.09,0,.181,0,.544.181.727.181a1.551,1.551,0,0,1,.544.91" transform="translate(595.302 3870.062)" fill="#d83a0b" stroke="#fff" stroke-width="0.5" fill-rule="evenodd"/>
    <g id="Group_234" data-name="Group 234" transform="translate(374 -412.09)">
      <circle id="Ellipse_17" data-name="Ellipse 17" cx="2" cy="2" r="2" transform="translate(356 4232)" fill="#fff"/>
      <circle id="Ellipse_18" data-name="Ellipse 18" cx="2" cy="2" r="2" transform="translate(266 4322)" fill="#fff"/>
      <circle id="Ellipse_19" data-name="Ellipse 19" cx="2" cy="2" r="2" transform="translate(273 4317)" fill="#fff"/>
      <circle id="Ellipse_20" data-name="Ellipse 20" cx="2" cy="2" r="2" transform="translate(273 4327)" fill="#fff"/>
      <circle id="Ellipse_92" data-name="Ellipse 92" cx="2" cy="2" r="2" transform="translate(274 4322)" fill="#fff"/>
      <circle id="Ellipse_21" data-name="Ellipse 21" cx="2" cy="2" r="2" transform="translate(280 4322)" fill="#fff"/>
      <circle id="Ellipse_22" data-name="Ellipse 22" cx="2" cy="2" r="2" transform="translate(285 4307)" fill="#fff"/>
      <circle id="Ellipse_23" data-name="Ellipse 23" cx="2" cy="2" r="2" transform="translate(316 4330)" fill="#fff"/>
      <circle id="Ellipse_24" data-name="Ellipse 24" cx="2" cy="2" r="2" transform="translate(321 4325)" fill="#fff"/>
      <circle id="Ellipse_25" data-name="Ellipse 25" cx="2" cy="2" r="2" transform="translate(321 4333)" fill="#fff"/>
      <circle id="Ellipse_26" data-name="Ellipse 26" cx="2" cy="2" r="2" transform="translate(316 4312)" fill="#fff"/>
      <circle id="Ellipse_27" data-name="Ellipse 27" cx="2" cy="2" r="2" transform="translate(365 4235)" fill="#fff"/>
      <circle id="Ellipse_28" data-name="Ellipse 28" cx="2" cy="2" r="2" transform="translate(359 4240)" fill="#fff"/>
      <circle id="Ellipse_76" data-name="Ellipse 76" cx="2" cy="2" r="2" transform="translate(376 4217)" fill="#fff"/>
      <circle id="Ellipse_77" data-name="Ellipse 77" cx="2" cy="2" r="2" transform="translate(381 4223)" fill="#fff"/>
      <circle id="Ellipse_78" data-name="Ellipse 78" cx="2" cy="2" r="2" transform="translate(352 4211)" fill="#fff"/>
      <circle id="Ellipse_79" data-name="Ellipse 79" cx="2" cy="2" r="2" transform="translate(364 4245)" fill="#fff"/>
      <circle id="Ellipse_80" data-name="Ellipse 80" cx="2" cy="2" r="2" transform="translate(390 4279)" fill="#fff"/>
      <circle id="Ellipse_81" data-name="Ellipse 81" cx="2" cy="2" r="2" transform="translate(418 4305)" fill="#fff"/>
      <circle id="Ellipse_82" data-name="Ellipse 82" cx="2" cy="2" r="2" transform="translate(446 4281)" fill="#fff"/>
      <circle id="Ellipse_83" data-name="Ellipse 83" cx="2" cy="2" r="2" transform="translate(458 4329)" fill="#fff"/>
      <circle id="Ellipse_84" data-name="Ellipse 84" cx="2" cy="2" r="2" transform="translate(400 4327)" fill="#fff"/>
      <circle id="Ellipse_85" data-name="Ellipse 85" cx="2" cy="2" r="2" transform="translate(358 4351)" fill="#fff"/>
      <circle id="Ellipse_86" data-name="Ellipse 86" cx="2" cy="2" r="2" transform="translate(360 4323)" fill="#fff"/>
      <circle id="Ellipse_87" data-name="Ellipse 87" cx="2" cy="2" r="2" transform="matrix(0.998, -0.07, 0.07, 0.998, 357.865, 4377.145)" fill="#fff"/>
      <circle id="Ellipse_88" data-name="Ellipse 88" cx="2" cy="2" r="2" transform="matrix(0.998, -0.07, 0.07, 0.998, 290.731, 4355.279)" fill="#fff"/>
      <circle id="Ellipse_89" data-name="Ellipse 89" cx="2" cy="2" r="2" transform="matrix(0.998, -0.07, 0.07, 0.998, 196, 4337.01)" fill="#fff"/>
      <circle id="Ellipse_90" data-name="Ellipse 90" cx="2" cy="2" r="2" transform="matrix(0.998, -0.07, 0.07, 0.998, 222.731, 4310.145)" fill="#fff"/>
      <circle id="Ellipse_91" data-name="Ellipse 91" cx="2" cy="2" r="2" transform="matrix(0.998, -0.07, 0.07, 0.998, 224.731, 4274.01)" fill="#fff"/>
      <circle id="Ellipse_29" data-name="Ellipse 29" cx="2" cy="2" r="2" transform="translate(390 4275)" fill="#fff"/>
      <circle id="Ellipse_30" data-name="Ellipse 30" cx="2" cy="2" r="2" transform="translate(395 4268)" fill="#fff"/>
      <circle id="Ellipse_31" data-name="Ellipse 31" cx="2" cy="2" r="2" transform="translate(385 4270)" fill="#fff"/>
      <circle id="Ellipse_32" data-name="Ellipse 32" cx="2" cy="2" r="2" transform="translate(383 4280)" fill="#fff"/>
      <circle id="Ellipse_33" data-name="Ellipse 33" cx="2" cy="2" r="2" transform="translate(357 4268)" fill="#fff"/>
      <circle id="Ellipse_34" data-name="Ellipse 34" cx="2" cy="2" r="2" transform="translate(236 4263)" fill="#fff"/>
      <circle id="Ellipse_35" data-name="Ellipse 35" cx="2" cy="2" r="2" transform="translate(295 4266)" fill="#fff"/>
      <circle id="Ellipse_36" data-name="Ellipse 36" cx="2" cy="2" r="2" transform="translate(225 4305)" fill="#fff"/>
      <circle id="Ellipse_37" data-name="Ellipse 37" cx="2" cy="2" r="2" transform="translate(248 4331)" fill="#fff"/>
      <circle id="Ellipse_38" data-name="Ellipse 38" cx="2" cy="2" r="2" transform="translate(261 4285)" fill="#fff"/>
      <circle id="Ellipse_39" data-name="Ellipse 39" cx="2" cy="2" r="2" transform="translate(364 4349)" fill="#fff"/>
      <circle id="Ellipse_40" data-name="Ellipse 40" cx="2" cy="2" r="2" transform="translate(404 4331)" fill="#fff"/>
      <circle id="Ellipse_41" data-name="Ellipse 41" cx="2" cy="2" r="2" transform="translate(395 4326)" fill="#fff"/>
      <circle id="Ellipse_42" data-name="Ellipse 42" cx="2" cy="2" r="2" transform="translate(398 4335)" fill="#fff"/>
      <circle id="Ellipse_43" data-name="Ellipse 43" cx="2" cy="2" r="2" transform="translate(368 4238)" fill="#fff"/>
      <circle id="Ellipse_44" data-name="Ellipse 44" cx="2" cy="2" r="2" transform="translate(360 4270)" fill="#fff"/>
      <circle id="Ellipse_45" data-name="Ellipse 45" cx="2" cy="2" r="2" transform="translate(283 4325)" fill="#fff"/>
      <circle id="Ellipse_64" data-name="Ellipse 64" cx="2" cy="2" r="2" transform="translate(284 4334)" fill="#fff"/>
      <circle id="Ellipse_65" data-name="Ellipse 65" cx="2" cy="2" r="2" transform="translate(289 4344)" fill="#fff"/>
      <circle id="Ellipse_66" data-name="Ellipse 66" cx="2" cy="2" r="2" transform="translate(308 4334)" fill="#fff"/>
      <circle id="Ellipse_67" data-name="Ellipse 67" cx="2" cy="2" r="2" transform="translate(308 4342)" fill="#fff"/>
      <circle id="Ellipse_68" data-name="Ellipse 68" cx="2" cy="2" r="2" transform="translate(320 4338)" fill="#fff"/>
      <circle id="Ellipse_69" data-name="Ellipse 69" cx="2" cy="2" r="2" transform="translate(314 4274)" fill="#fff"/>
      <circle id="Ellipse_70" data-name="Ellipse 70" cx="2" cy="2" r="2" transform="translate(319 4280)" fill="#fff"/>
      <circle id="Ellipse_71" data-name="Ellipse 71" cx="2" cy="2" r="2" transform="translate(240 4268)" fill="#fff"/>
      <circle id="Ellipse_72" data-name="Ellipse 72" cx="2" cy="2" r="2" transform="translate(237 4278)" fill="#fff"/>
      <circle id="Ellipse_73" data-name="Ellipse 73" cx="2" cy="2" r="2" transform="translate(257 4289)" fill="#fff"/>
      <circle id="Ellipse_74" data-name="Ellipse 74" cx="2" cy="2" r="2" transform="translate(318 4238)" fill="#fff"/>
      <circle id="Ellipse_75" data-name="Ellipse 75" cx="2" cy="2" r="2" transform="translate(313 4245)" fill="#fff"/>
      <circle id="Ellipse_46" data-name="Ellipse 46" cx="2" cy="2" r="2" transform="translate(264 4325)" fill="#fff"/>
      <circle id="Ellipse_47" data-name="Ellipse 47" cx="2" cy="2" r="2" transform="translate(262 4320)" fill="#fff"/>
      <circle id="Ellipse_48" data-name="Ellipse 48" cx="2" cy="2" r="2" transform="translate(200 4330)" fill="#fff"/>
      <circle id="Ellipse_49" data-name="Ellipse 49" cx="2" cy="2" r="2" transform="translate(209 4338)" fill="#fff"/>
      <circle id="Ellipse_50" data-name="Ellipse 50" cx="2" cy="2" r="2" transform="translate(192 4249)" fill="#fff"/>
      <circle id="Ellipse_51" data-name="Ellipse 51" cx="2" cy="2" r="2" transform="translate(230 4271)" fill="#fff"/>
      <circle id="Ellipse_52" data-name="Ellipse 52" cx="2" cy="2" r="2" transform="translate(314 4338)" fill="#fff"/>
      <circle id="Ellipse_53" data-name="Ellipse 53" cx="2" cy="2" r="2" transform="translate(333 4366)" fill="#fff"/>
      <circle id="Ellipse_54" data-name="Ellipse 54" cx="2" cy="2" r="2" transform="translate(348 4341)" fill="#fff"/>
      <circle id="Ellipse_55" data-name="Ellipse 55" cx="2" cy="2" r="2" transform="translate(350 4347)" fill="#fff"/>
      <circle id="Ellipse_56" data-name="Ellipse 56" cx="2" cy="2" r="2" transform="translate(358 4340)" fill="#fff"/>
      <circle id="Ellipse_57" data-name="Ellipse 57" cx="2" cy="2" r="2" transform="translate(423 4258)" fill="#fff"/>
      <circle id="Ellipse_58" data-name="Ellipse 58" cx="2" cy="2" r="2" transform="translate(345 4283)" fill="#fff"/>
      <circle id="Ellipse_59" data-name="Ellipse 59" cx="2" cy="2" r="2" transform="translate(310 4290)" fill="#fff"/>
      <circle id="Ellipse_60" data-name="Ellipse 60" cx="2" cy="2" r="2" transform="translate(319 4273)" fill="#fff"/>
      <circle id="Ellipse_61" data-name="Ellipse 61" cx="2" cy="2" r="2" transform="translate(338 4302)" fill="#fff"/>
      <circle id="Ellipse_62" data-name="Ellipse 62" cx="2" cy="2" r="2" transform="translate(278 4333)" fill="#fff"/>
      <circle id="Ellipse_63" data-name="Ellipse 63" cx="2" cy="2" r="2" transform="translate(290 4317)" fill="#fff"/>
    </g>
  </g>
</svg>
