<svg xmlns="http://www.w3.org/2000/svg" xmlns:xlink="http://www.w3.org/1999/xlink" width="751" height="533" viewBox="0 0 751 533">
  <defs>
    <clipPath id="clip-path">
      <rect id="Rectangle_56" data-name="Rectangle 56" width="751" height="533" transform="translate(0 4880)" fill="#e65125"/>
    </clipPath>
  </defs>
  <g id="reviews-bg" transform="translate(0 -4880)" opacity="0.23" clip-path="url(#clip-path)">
    <path id="Path_24" data-name="Path 24" d="M204.956,7.116c.358.7.358,3.157-.358,3.509-.358.352-1.429-.352-2.144,0-1.071.352-1.429,3.509-1.786,4.56,0,1.051.358,2.806,0,3.509a10.168,10.168,0,0,1-3.215,2.106,9.283,9.283,0,0,1-4.289-1.754,7.121,7.121,0,0,1-2.5-3.157,6.917,6.917,0,0,1-.713-4.564c.355-1.4,2.5-2.806,3.573-3.506a10,10,0,0,1,3.573-3.157,10.368,10.368,0,0,1,4.647,0c1.071.348,2.857,1.4,3.215,2.454" transform="translate(179.098 4793.769)" fill="#d83a0b" stroke="#fff" stroke-width="0.5" fill-rule="evenodd"/>
    <path id="Path_28" data-name="Path 28" d="M150.117,189.178c-.355,0-.713-.355-1.067-.713a11.07,11.07,0,0,0-2.132-1.422h-1.78c-.709.355-1.064,1.422-1.422,1.78-.355.709-.355,1.777-1.067,2.135-.355.355-1.422.355-1.777.355a5.017,5.017,0,0,1-2.131-.713,14.967,14.967,0,0,1-1.78-2.489,6.4,6.4,0,0,1-1.777-2.493c-.355-.709-1.422-2.135-1.422-2.844,0-1.071.355-2.847.355-3.56v-4.269a16.006,16.006,0,0,0-.355-3.915c-.355-.355-1.067-1.425-1.422-1.78-.355-.713-1.422-1.422-1.422-2.135-.358-.355-.358-1.78-.358-2.493,0-.355-.355-1.777,0-2.135A5.616,5.616,0,0,1,133.049,160a12.473,12.473,0,0,1,2.844-1.78c1.425-.713,4.27-1.78,5.692-2.493a25.843,25.843,0,0,0,3.2-1.777h5.688a15.356,15.356,0,0,0,5.688.355,27.955,27.955,0,0,0,4.979-.709c1.067-.358,3.2-1.425,4.266-1.78.713-.713,2.489-1.78,3.2-2.493a14.818,14.818,0,0,0,2.49-3.915,18.076,18.076,0,0,0,.709-4.624c0-1.067-.355-3.56-.355-4.982a24.781,24.781,0,0,0-1.777-4.627,21.938,21.938,0,0,0-2.489-4.982,38.166,38.166,0,0,0-2.49-3.915c-.713-1.78-2.844-5.337-3.2-7.117-.713-1.78-1.067-6.05-1.067-8.184a24.166,24.166,0,0,1,1.067-6.762,31.32,31.32,0,0,1,3.2-7.117c.355-1.067,2.132-2.847,2.132-3.915.358-.713,0-2.135,0-2.847-.355-.713-1.422-2.844-2.132-3.2-.355-.713-2.135-1.067-2.844-1.422a14.473,14.473,0,0,1-3.2-1.78,5.213,5.213,0,0,1-2.132-1.78c-.358-.709-.358-2.135-.713-2.847a10.435,10.435,0,0,0-.709-3.2,31.225,31.225,0,0,0-.713-5.692c-.355-.713-1.422-2.493-1.777-3.205a8.477,8.477,0,0,0-1.777-1.78,3.834,3.834,0,0,0-2.135-.709c0-.358-.355-.713-.713-1.067.358-1.425.358-4.627,1.067-5.695a11.951,11.951,0,0,1,5.688-3.557c2.135-1.071,9.6-1.071,9.958-1.071a46.1,46.1,0,0,1,6.756,2.138c1.422,1.067,3.2,4.624,4.621,5.337,1.78,1.067,6.756,1.78,8.891,2.135s6.043.713,8.178,0c1.422-.713,3.912-2.493,4.621-3.915a11.86,11.86,0,0,0,.713-6.05c-.355-1.422-2.844-3.915-3.912-5.337s-4.266-3.915-5.334-5.695c-.355-1.067-1.422-3.2-1.422-4.269.355-1.425,2.489-3.56,2.489-4.982a8.785,8.785,0,0,0-.355-4.269c-.358-.713-1.78-1.425-2.135-1.78a9.87,9.87,0,0,1,.355-3.2c.713-1.425,4.266-1.425,5.692-1.78s4.621,0,6.043-.358a19.022,19.022,0,0,0,4.621-2.489c1.425-1.067,3.2-3.56,4.624-4.627a30.328,30.328,0,0,1,4.979-2.135c2.132-.355,5.688-1.067,7.82-.713A11.878,11.878,0,0,1,225.5,9.47c.713,1.067.713,3.915.355,5.337s-2.486,3.915-3.2,5.337c-.355,1.425-1.422,4.273-1.422,5.695.355,1.422,1.067,4.269,2.135,4.982.71.713,3.2.713,4.266.355,1.422-.355,2.844-2.135,4.266-2.489a23.976,23.976,0,0,1,7.11.355c1.777.355,5.334,2.847,7.468,3.2,2.132.713,7.111,2.493,8.887,1.067.713-.709.358-2.847.358-3.915s-.713-3.2-.358-4.269,2.489-3.2,3.2-3.915a43.234,43.234,0,0,1,4.976-3.557,55.4,55.4,0,0,0,4.624-4.269c1.422-1.067,4.621-3.915,6.043-5.34,1.067-1.067,2.135-4.269,3.557-4.982A12.9,12.9,0,0,1,283.81.573c1.78-.358,4.624.709,6.046,1.067,1.777.713,4.979,1.78,6.4,2.847,1.064,1.067,3.554,3.557,3.912,5.337.355.713,0,2.493-.358,3.56-.355.709-1.777,2.135-2.132,3.2s0,3.557,0,4.624c0,1.78.709,5.34.709,7.12,0,1.064.355,2.844-.355,3.2-.713.709-2.489-.358-3.2-.713s-2.135-1.78-2.844-2.135a8.527,8.527,0,0,0-3.2-1.067,6.317,6.317,0,0,0-3.554,1.422c-1.067.355-2.135,2.135-2.49,3.2,0,1.067,1.064,2.847,1.777,3.915,1.067,1.067,3.557,3.2,5.334,3.56,1.422.709,4.621,0,6.4-.358,2.132-.709,6.043-2.489,8.533-2.844,1.777,0,5.334-.713,6.756,0,1.422.355,3.912,2.844,5.334,3.557a10.462,10.462,0,0,0,4.621,1.78c1.067.355,3.912-.713,4.979-1.067a11.06,11.06,0,0,0,3.2-2.493c.713-1.067,2.135-3.2,2.847-4.269s2.486-3.2,3.554-4.627a31.868,31.868,0,0,0,3.2-3.557c.71-1.067,2.844-3.2,3.554-4.269a59.62,59.62,0,0,0,1.78-6.407c.355-1.422.355-4.269.709-5.692.355-.713,1.067-2.493,1.78-2.847.709,0,2.132,1.067,2.844,1.422a25.2,25.2,0,0,1,4.976,3.56c1.78,1.067,5.334,3.2,6.4,4.624a15.56,15.56,0,0,1,3.2,6.407,28.589,28.589,0,0,1,.358,5.337,30.466,30.466,0,0,1-.358,5.695c-.355,1.422-2.132,3.915-2.486,5.337a19.417,19.417,0,0,0-.358,6.4,15.958,15.958,0,0,0,1.78,6.762c1.064,1.78,5.688,4.269,6.756,6.05,1.064,1.067,1.777,3.56,2.132,4.982a31.44,31.44,0,0,1,1.78,5.34,27.03,27.03,0,0,0,2.132,5.692,15.348,15.348,0,0,0,3.557,3.205,45.438,45.438,0,0,0,6.756.355c1.777-.355,5.334-1.422,7.11-1.78,1.067,0,3.557-.355,4.624.358,1.064.355,2.131,2.132,2.486,3.2a10.223,10.223,0,0,1-.355,4.624c-.355,1.422-2.131,3.2-2.844,4.627-.355,1.067-1.422,2.847-1.067,3.915a3.633,3.633,0,0,0,1.78,2.847c-.358.709-.358,1.422-.713,1.777,0,1.067-.713,2.493-.713,3.56a21.757,21.757,0,0,0-1.064,4.627,27.272,27.272,0,0,0-.713,5.337c0,.713-.355,2.489-.355,3.557a6.62,6.62,0,0,0,.71,2.493,5.446,5.446,0,0,0,1.422,2.135c.358.355,1.067,1.422,1.78,1.78.355.355,1.777,1.067,2.489,1.78a8.992,8.992,0,0,1,3.554,2.844,8.133,8.133,0,0,1,2.489,3.56c.355,1.067,1.067,3.557,1.422,4.982a25.283,25.283,0,0,1-.355,5.337,13.242,13.242,0,0,1-1.422,5.34,13.639,13.639,0,0,1-3.912,3.912,9.234,9.234,0,0,1-2.844,1.067h-3.912c-.355-.355-.713-1.067-1.067-1.067a2.268,2.268,0,0,0-2.132,0c-.358,0-1.067,1.425-1.425,1.78-.355.713-1.064,1.78-1.419,2.493-.358.355-1.425,1.422-1.78,1.422-.709.358-2.132.358-2.489.713-1.067.355-2.844.709-3.911,1.067-1.422.713-4.621,1.78-6.043,2.847-1.067.355-2.49,1.78-3.557,2.489s-2.844,3.2-4.266,4.27c-1.067,1.071-3.2,2.847-4.266,3.915a24.582,24.582,0,0,1-5.334,2.493,30.647,30.647,0,0,1-5.688.355c-1.067.358-3.911.713-4.979,1.067-1.067.713-3.557,1.78-4.266,2.847-.713.713-1.067,2.493-1.422,3.56s-.713,2.847-1.422,3.557a5.757,5.757,0,0,1-1.422,2.493,19.1,19.1,0,0,1-3.911,1.777c-.358.358-1.067.358-1.78.713a5.286,5.286,0,0,0-2.132-.355c-1.067.355-3.2.713-4.266,1.067a18.331,18.331,0,0,0-4.624,2.135c-1.067.355-3.2,1.78-4.266,2.135a23.39,23.39,0,0,1-5.334,1.78c-.709.355-2.844.355-3.912.713a8.4,8.4,0,0,0-2.844.709,17.725,17.725,0,0,1-2.844,2.493c-.355.713-1.422,1.78-2.135,1.78a10.976,10.976,0,0,1-3.554.355c-.713-.355-1.78-.713-2.489-1.067a20.044,20.044,0,0,1-1.78-2.847,13.083,13.083,0,0,0-2.132-2.489c-.355-.358-1.067-1.78-1.777-1.78a6.024,6.024,0,0,0-2.489-.358h-3.557a6.628,6.628,0,0,0-2.489.713c-1.067.358-2.844,1.067-3.912,1.425a11.289,11.289,0,0,1-3.2,1.067c-.355.355-1.777.355-2.135.709a19.755,19.755,0,0,0-3.2,2.493,15.092,15.092,0,0,0-1.777,2.489c-.358.358-.713,1.067-1.067,1.425a2.141,2.141,0,0,1-1.422.355l-.713-.713c-.355-.709,0-2.135-.355-2.844a7.4,7.4,0,0,0-.71-2.138,12.208,12.208,0,0,0-2.135-1.067c-.355,0-1.422-.709-1.777-.709-1.067,0-2.844.355-3.557.355a28.5,28.5,0,0,1-3.2,1.422c-.358,0-1.78.358-2.135.358-.709,0-1.777-.358-2.135-.358a17.292,17.292,0,0,0-2.486,1.071,11.006,11.006,0,0,0-2.135,1.422,4.732,4.732,0,0,0-1.067,1.78c-.71.709-1.422,2.135-2.132,2.847-.358.355-.713,1.422-1.067,1.777s-1.067.713-1.422,1.067a6.066,6.066,0,0,1-2.489-.355,3.018,3.018,0,0,1-1.777-1.067c-.713-.355-1.78-1.422-2.49-1.78a5.153,5.153,0,0,0-2.489-.713c-.713,0-2.135.713-2.844.713-.713.358-1.777.713-2.489,1.067-.355,0-1.422.358-2.135.358H218.03a7.7,7.7,0,0,0-1.777-1.425c-.355,0-1.067-.713-1.777-.713a6.012,6.012,0,0,0-2.135,1.071c-.709.355-1.422,1.067-2.132,1.422-.358,0-1.422.355-1.78.355h-3.554a3.766,3.766,0,0,1-1.78-.709c-.709-.358-1.422-.713-2.132-1.067-.355-.358-1.067-1.425-1.422-1.425-1.067-.355-2.844,0-3.557,0-.709.355-1.777,1.067-2.489,1.425-.709,0-2.132.355-2.844.355-1.067,0-2.844-.355-3.554-.355-.358-.358-1.78-1.071-2.135-1.425-.355-.713-.355-2.489-.713-3.2,0-.355-.709-1.067-.709-1.78-.355-.713.355-1.78.355-2.135a8.86,8.86,0,0,0-.355-3.2c0-.358-.713-1.425-1.067-1.425a5.293,5.293,0,0,0-2.132-.355,4.267,4.267,0,0,0-1.78,1.78c-.355.713.355,2.489,0,3.2-.355.355-1.067,1.067-1.422,1.067s-1.422,0-1.777-.355-.713-1.425-1.067-1.78c0-.355-.709-.713-1.067-1.067s-.709-1.425-1.067-1.78c-.709-.355-2.486.713-3.2.355-.713,0-2.135-1.067-2.844-1.422s-1.777-1.422-2.49-1.78c-.713-.709-2.132-1.422-2.489-2.135-.71-.355-1.422-1.422-1.777-1.422a2.126,2.126,0,0,0-1.422-.358c-.355-.355-1.067,0-1.422,0-.358.358-1.067.713-1.422,1.067s-1.067.713-1.422,1.067l-2.135,1.071c-.355,0-.709.709-1.067.709a.347.347,0,0,1-.355-.355" transform="translate(48.662 4785.21)" fill="#d83a0b" stroke="#fff" stroke-width="0.5" fill-rule="evenodd"/>
    <path id="Path_32" data-name="Path 32" d="M233.89,258.773a.347.347,0,0,1-.355.355,12.768,12.768,0,0,1-2.493,3.547c-1.777,1.774-5.692,4.611-7.472,6.385-1.777,1.419-4.979,4.611-6.759,6.03-1.422,1.064-4.624,3.547-6.4,4.257a13.555,13.555,0,0,1-5.337,1.774c-1.422-.355-4.27-2.483-5.337-3.547-1.422-1.064-2.489-4.257-3.2-6.03-.713-1.064-1.067-3.9-1.78-4.966a13.148,13.148,0,0,0-4.982-2.483c-1.777-.71-5.337-.355-7.114-.355s-4.982,1.064-6.4.355-2.493-3.9-3.56-4.611a24.741,24.741,0,0,0-4.624-1.774,49.273,49.273,0,0,0-7.117,1.064,1.844,1.844,0,0,1-1.422.709,2.673,2.673,0,0,0-.713-1.419c-.709-1.064-1.422-3.9-2.489-4.966-1.067-.709-3.557-1.419-4.979-2.128-1.067-.355-2.847-1.419-3.915-1.419a9.324,9.324,0,0,0-2.847,1.064,30.569,30.569,0,0,1-3.557,2.483c-.713.355-2.135,1.419-2.847,1.774a10.986,10.986,0,0,1-3.557.355c-1.067,0-3.557-.355-4.982-.355-1.067,0-2.844-.355-3.912,0-.713,0-1.422.709-2.489,1.419a4.956,4.956,0,0,0-1.067-1.419c-.358-.709-1.067-1.774-1.425-2.483-.709-.709-1.067-2.838-1.422-3.547-.355-1.064-1.067-2.483-1.422-3.547,0-.709.355-2.128,0-2.483-.358-.709-2.135-1.064-2.847-1.064a17.372,17.372,0,0,0-4.27.355c-.713,0-1.78,1.419-2.489,1.774-.713,0-2.135.355-3.2.355-.358,0-1.78-.355-2.135,0a4.27,4.27,0,0,0-1.78,1.774c-.355.355-.355,1.419-.355,1.774A11.715,11.715,0,0,1,101.9,249.9a13.424,13.424,0,0,1,2.135,2.483v2.483c-.358.355-1.067,1.064-1.425,1.064-.709.355-1.777.709-2.489,1.064s-1.78,1.419-2.489,1.774c-1.067.355-2.493.709-3.557,1.064a7.789,7.789,0,0,1-1.78,1.419,11,11,0,0,1-3.557.355h-3.2c-.713,0-2.493-1.064-3.2-1.419a7.413,7.413,0,0,0-2.135-.709c-.713,0-2.135,1.064-2.847,1.419-.355.355-1.422,1.064-1.422,1.419-.358.709,0,1.774,0,2.483,0,.355-.713,1.064-.713,1.774,0,.355.713,1.064,1.067,1.419,0,.709-.355,1.774-.355,2.483.355,1.064,1.067,3.193,1.422,4.257.355.355.355.709.355,1.419l-2.135-1.064a30.694,30.694,0,0,0-5.692-.355,34.587,34.587,0,0,1-6.046-.355,13.6,13.6,0,0,1-3.56-1.064,8.9,8.9,0,0,1-2.135-4.966c-.355-1.419,1.78-3.547,1.425-4.611-.358-1.419-3.915-3.193-5.337-4.257a15.553,15.553,0,0,1-2.493-1.419c-.355-1.419,1.067-3.9.713-5.321a9.583,9.583,0,0,0-2.489-2.838c-1.067-.709-3.56-.709-4.269-1.419-1.067-.709-2.135-3.193-2.493-4.257-.709-1.419-1.422-4.257-2.132-5.676-.713-1.064-2.135-3.9-3.56-4.611-1.422-1.064-4.979-1.064-6.759-.709-1.067,0-3.2,1.419-4.269,1.774a16.085,16.085,0,0,1-3.915,1.064,7.035,7.035,0,0,1-4.269-2.128c-.709-1.419.713-4.611.358-6.03-.713-1.064-2.847-2.483-3.56-3.193s-2.489-2.486-2.489-3.55c-.355-1.064,1.78-2.835,2.135-3.9a38.858,38.858,0,0,0,1.78-6.027c.355-1.422,1.067-4.615.355-6.033-.355-1.419-2.847-3.193-3.2-4.257a15.1,15.1,0,0,1-.713-6.74,17.967,17.967,0,0,1,.713-4.611c.713-1.774,3.2-4.611,4.269-6.385a21.04,21.04,0,0,0,2.135-3.9A44.367,44.367,0,0,0,19,172.571c-.713-1.774-1.78-5.321-2.847-7.095a30.936,30.936,0,0,0-3.912-3.193c-1.067-.709-3.56-.709-4.269-1.419-.713-1.064-.358-3.9-.713-4.966a39.351,39.351,0,0,0-1.78-4.611c-.355-1.064-2.135-2.838-2.489-4.257s1.067-4.615,1.067-6.385a34.572,34.572,0,0,0-.713-6.03c-.355-1.064-1.422-2.841-1.777-3.905C1.213,130,.855,128.231.5,127.163v-3.193c.713-.355,1.422-.355,1.78-.709a81.808,81.808,0,0,0,8.181-3.547c3.557-1.774,9.961-5.676,13.163-7.449,3.56-1.774,10.319-4.966,13.521-6.74,4.269-2.483,12.1-7.8,16.011-10.287,3.912-2.128,11.028-5.676,14.94-7.8a42.157,42.157,0,0,0,5.337-3.193,66.169,66.169,0,0,0,6.762-3.9c1.422-.709,4.624-1.774,6.046-2.483a49.871,49.871,0,0,1,5.695-3.547c2.489-1.419,7.114-4.611,9.6-6.385,1.425-1.064,4.982-3.547,6.762-4.611,1.422-1.064,4.979-3.9,6.4-4.966a60.49,60.49,0,0,1,4.979-3.547,73.945,73.945,0,0,0,6.049-4.966c2.135-1.422,6.4-4.615,8.181-6.034,1.78-1.064,4.627-3.193,6.05-4.257,1.422-.709,3.915-2.483,5.337-2.838a17.372,17.372,0,0,1,4.269-.355h4.982a45.957,45.957,0,0,0,7.468-1.774,66.374,66.374,0,0,0,7.83-2.483c1.422-.355,4.269-.709,5.692-1.064,1.78-.709,5.337-2.128,7.472-2.838,1.067-.706,3.557-1.774,4.624-2.483A49.569,49.569,0,0,0,194.4,23.58c1.422-.355,4.266-1.774,5.692-2.128a72.553,72.553,0,0,1,7.826-3.193c.713-.355,2.847-1.419,3.915-2.128,0,.355.355,1.064.355,1.419.355.709,1.067,2.483,1.422,3.193.358,1.064,2.135,3.193,2.135,4.611.358,1.419-.355,4.26-1.067,5.676-.355,1.064-2.489,2.838-2.844,4.257a8.573,8.573,0,0,0,0,4.257c.355,1.419,2.489,3.547,2.844,4.969.358,1.064,0,3.547-.355,4.963,0,1.422-.713,4.26-.355,5.324a16.348,16.348,0,0,0,3.2,5.321c.709.709,1.422,1.064,2.135,1.774-.358.355-.358,1.064-.713,1.419V66.86c0,1.064.355,3.547,0,4.611s-2.847,1.774-3.2,2.483a7.236,7.236,0,0,0-1.78,3.193c-.355,1.419.358,3.547.358,4.966.355.709.709,2.838,1.067,3.547.355,1.774,2.489,4.611,3.2,6.03s1.777,3.9,2.489,4.966a31.514,31.514,0,0,1,1.067,4.966,33.4,33.4,0,0,1-1.067,3.193c-.355.355-1.78,1.064-1.78,1.774-.355.709.713,2.483.358,3.193s-1.78,1.419-2.135,1.774a29.683,29.683,0,0,0-2.847,4.257,31.417,31.417,0,0,1-2.489,3.55c-.713.352-2.847,1.416-3.56,1.77s-2.489,1.064-2.844,1.774a2.672,2.672,0,0,0-1.067,2.838,7.5,7.5,0,0,0,1.067,2.486,25.5,25.5,0,0,0,3.2,2.128c1.067.352,3.2,1.064,4.269,1.416,1.067.713,3.2,2.128,4.27,2.841,1.067,1.416,2.135,4.608,2.844,6.03.713.706,1.78,2.128,2.489,2.838.713.355,2.135.709,3.2,1.064.713,0,2.493-.355,3.56,0a4.879,4.879,0,0,1,1.777,2.838c0,.709-.709,1.774-1.067,1.774-.709.709-2.489.709-2.844,1.064-.713.709-.358,2.128-.358,2.838a36.7,36.7,0,0,0,1.425,3.547c.355,1.064,1.067,2.838,1.422,3.9.355,1.419,1.422,4.257,1.067,5.676,0,1.064-1.422,2.838-1.78,3.9-.709,1.064-2.844,2.483-3.557,3.547a15.27,15.27,0,0,0,0,5.676,13.04,13.04,0,0,0,.713,3.193c.355.355.355,1.419,1.067,1.774.355.709,2.489.709,3.2,1.064a11.208,11.208,0,0,1,2.135,1.419,6.683,6.683,0,0,1,.709,2.838c0,.709-.355,2.838-1.067,3.547s-2.135,1.419-2.844,2.128-2.135,1.774-2.847,2.483c-.355.709-1.422,2.483-1.78,3.193-.355,1.064-1.422,3.193-1.067,3.9s1.425,1.064,1.78,1.419c1.067.355,3.2,0,4.269,0s2.847-.709,3.557-.355,2.135,1.064,2.135,1.774c.713,1.064.358,3.9.358,4.966V219.4c0,.706-.358,2.128,0,2.835.355,1.064,2.135,1.777,2.844,2.128.713.713,2.135,2.132,2.847,2.841s1.422,2.483,2.135,3.193a53.443,53.443,0,0,1,2.135,7.095,48.98,48.98,0,0,1,1.067,7.094c0,1.064,0,3.547-.713,4.611-.709.709-3.557,1.419-4.624,1.774a36.092,36.092,0,0,0-4.624,3.193,20.143,20.143,0,0,0-2.847,4.611" transform="translate(-236.5 4819.532)" fill="#d83a0b" stroke="#fff" stroke-width="0.5" fill-rule="evenodd"/>
    <path id="Path_36" data-name="Path 36" d="M207.195,269.094h0a13.282,13.282,0,0,1-2.489-2.132c-.355-.709-1.064-2.838-1.422-3.55-.709-.709-1.777-2.128-2.844-2.483s-3.554.709-4.621,1.064a26.331,26.331,0,0,0-4.266,2.486c-1.067.355-2.489,1.419-3.554,1.064-.713,0-1.78-1.064-2.49-1.419-.355-.358-1.422-1.067-1.777-1.422a11.332,11.332,0,0,0-3.2-1.064,14.6,14.6,0,0,0-3.908-.355c-1.067-.355-4.266-1.422-4.979-2.486-.355-.355-.355-2.132-.355-2.841-.355-.709-.709-2.486-1.422-3.2-.355-.355-1.422-.355-1.777-.355a8.364,8.364,0,0,0-2.844.71c-.355.355-1.067,1.777-1.78,1.777a6.066,6.066,0,0,1-3.554,0c-.355-.355-1.067-2.132-1.422-2.486-.713-.355-2.489-1.064-3.2-1.419a17.347,17.347,0,0,0-4.266.355,9.764,9.764,0,0,0-3.2,2.483,10.19,10.19,0,0,0-2.844,4.618c-.713,1.064-1.067,3.55-1.422,4.969a43.219,43.219,0,0,1-1.78,4.973,4.046,4.046,0,0,1-1.064,2.128,2.923,2.923,0,0,1-2.135,1.422c-.355.355-1.777,1.064-2.132.709-.713-.355-.358-1.774-.713-2.486-.355-.355-1.067-1.419-1.777-1.419-.355-.355-1.422-.355-1.777-.709-1.422,0-4.624.709-6.4.709a14.6,14.6,0,0,1-3.908-.355,14.659,14.659,0,0,1-3.912-2.486,45.256,45.256,0,0,1-3.2-5.682c-.358-1.064,0-3.551-.713-4.26-.355-.709-1.777-1.064-2.489-1.064a15.69,15.69,0,0,0-3.554.71c-.713,0-2.489,1.064-3.557,1.064a18.827,18.827,0,0,1-4.266-1.064c-.709-.355-2.132-.71-2.844-1.064s-2.132-.713-2.844-1.067c0-.355-.355-.709-.709-1.064a20.045,20.045,0,0,1,2.844-4.615,35.773,35.773,0,0,1,4.621-3.2c1.067-.355,3.912-1.067,4.621-1.777.713-1.064.713-3.55.713-4.615a49,49,0,0,0-1.067-7.1,53.833,53.833,0,0,0-2.132-7.1c-.713-.713-1.422-2.486-2.135-3.2s-2.132-2.132-2.844-2.841c-.709-.355-2.489-1.064-2.844-2.132-.355-.709,0-2.128,0-2.841v-6.746c0-1.064.355-3.905-.355-4.969,0-.709-1.422-1.419-2.135-1.777s-2.486.358-3.554.358-3.2.355-4.266,0c-.355-.358-1.422-.713-1.777-1.422s.709-2.841,1.064-3.905c.358-.709,1.422-2.486,1.78-3.2.709-.709,2.132-1.777,2.844-2.486s2.132-1.419,2.844-2.128,1.064-2.841,1.064-3.55a6.685,6.685,0,0,0-.709-2.841,11,11,0,0,0-2.135-1.422c-.709-.355-2.844-.355-3.2-1.064-.709-.355-.709-1.419-1.067-1.774a13.216,13.216,0,0,1-.709-3.2,15.3,15.3,0,0,1,0-5.682c.709-1.064,2.844-2.486,3.554-3.55.358-1.064,1.78-2.841,1.78-3.905.355-1.422-.713-4.263-1.067-5.682-.355-1.064-1.067-2.841-1.422-3.905a36.847,36.847,0,0,1-1.422-3.55c0-.709-.355-2.132.355-2.841.355-.355,2.135-.355,2.844-1.064.355,0,1.067-1.067,1.067-1.777a4.887,4.887,0,0,0-1.777-2.841c-1.067-.355-2.844,0-3.557,0a33.361,33.361,0,0,1-3.2-1.064c-.713-.709-1.777-2.132-2.489-2.841-.709-1.419-1.777-4.615-2.844-6.037-1.064-.709-3.2-2.128-4.266-2.838-1.064-.355-3.2-1.067-4.266-1.422a25.226,25.226,0,0,1-3.2-2.128,7.564,7.564,0,0,1-1.067-2.486,2.686,2.686,0,0,1,1.067-2.841c.355-.709,2.135-1.422,2.844-1.777l3.557-1.774a30.743,30.743,0,0,0,2.486-3.55,29.945,29.945,0,0,1,2.844-4.26c.355-.355,1.777-1.067,2.135-1.777s-.713-2.486-.358-3.2c0-.709,1.422-1.419,1.78-1.774.355-.713.709-2.132,1.064-3.2a31.471,31.471,0,0,0-1.064-4.973c-.713-1.064-1.78-3.55-2.489-4.969s-2.844-4.263-3.2-6.037c-.355-.709-.713-2.841-1.067-3.55,0-1.422-.709-3.55-.355-4.973A7.26,7.26,0,0,1,75.3,67.422c.355-.713,2.844-1.422,3.2-2.486s0-3.55,0-4.618v-3.55c.355-.355.355-1.064.713-1.419a74.409,74.409,0,0,0,8.533,4.969,28.677,28.677,0,0,0,7.82,2.486c2.135.355,6.4.709,8.887,0,1.78-.355,6.046-2.132,7.111-3.905.713-1.064.358-3.55,0-4.618,0-1.064-.709-3.193-.709-4.26a10.948,10.948,0,0,1,1.777-4.26,31.183,31.183,0,0,1,3.557-2.841,86.665,86.665,0,0,1,8.533-3.55c1.777-.709,5.685-2.132,7.465-1.419,1.422,0,3.554,3.2,5.33,3.905a18.759,18.759,0,0,0,6.4,1.419c1.067,0,3.912-1.064,4.976-.709,1.78.709,4.266,4.26,5.688,5.682a31.178,31.178,0,0,0,3.557,2.841,31.182,31.182,0,0,0,5.688.709c2.489.355,7.465.709,9.955,1.419a18.712,18.712,0,0,1,5.33,3.905,10.449,10.449,0,0,1,1.78,4.618c.709,1.774.355,5.682.709,7.456.355,1.419.713,3.905,1.777,4.969a23.771,23.771,0,0,0,5.334,2.132c1.422,0,3.912-.355,4.979-.355,1.777,0,4.976-.355,6.4.355,1.777.355,4.621,3.2,6.043,3.2a4.771,4.771,0,0,0,3.2-.355c.709-.355,1.064-2.132,1.777-2.841.355-.709,2.132-1.419,3.2-1.419,1.067-.358,3.2.709,4.266.709,1.067.355,3.557.355,4.266-.355,1.777-.713,3.912-3.905,4.976-5.327,1.067-1.064,2.844-3.55,3.912-4.26a21.8,21.8,0,0,1,6.043-2.486c2.489-1.064,7.111-2.486,9.245-3.55,1.777-.709,5.334-1.419,7.11-2.486,1.067-1.064,2.844-3.55,4.266-4.615,1.067-1.419,3.908-3.55,4.976-4.615,3.2-2.132,9.6-6.391,12.8-8.878,2.49-2.132,7.465-6.391,9.955-8.878,1.067-1.419,3.912-3.905,4.979-5.679.709-1.067,1.777-3.908,2.486-5.327.358.355.713.709.713,1.064a3.791,3.791,0,0,1,2.132.713c.713.355,1.422,1.419,1.78,1.774.355.709,1.422,2.486,1.777,3.2a31.114,31.114,0,0,1,.709,5.682,10.291,10.291,0,0,1,.713,3.2c.355.709.355,2.128.709,2.841a5.233,5.233,0,0,0,2.135,1.774,14.435,14.435,0,0,0,3.2,1.777c.713.355,2.49.709,2.844,1.419.709.355,1.777,2.486,2.135,3.2,0,.709.355,2.132,0,2.841,0,1.064-1.78,2.841-2.135,3.905a31.209,31.209,0,0,0-3.2,7.1,24.058,24.058,0,0,0-1.067,6.746c0,2.132.355,6.391,1.067,8.165.355,1.777,2.489,5.327,3.2,7.1a37.992,37.992,0,0,1,2.489,3.905,21.844,21.844,0,0,1,2.49,4.969,24.834,24.834,0,0,1,1.777,4.618c0,1.419.355,3.905.355,4.969a17.882,17.882,0,0,1-.713,4.618,14.727,14.727,0,0,1-2.486,3.905c-.713.709-2.489,1.774-3.2,2.483-1.064.355-3.2,1.422-4.263,1.777a27.953,27.953,0,0,1-4.979.709,15.425,15.425,0,0,1-5.688-.355h-5.688a25.621,25.621,0,0,1-3.2,1.774c-1.422.713-4.266,1.777-5.688,2.486a12.425,12.425,0,0,0-2.844,1.777,5.593,5.593,0,0,0-2.49,2.486c-.355.355,0,1.774,0,2.128,0,.709,0,2.132.355,2.486,0,.709,1.067,1.419,1.425,2.128.355.355,1.064,1.422,1.419,1.777a15.793,15.793,0,0,1,.358,3.905v4.26c0,.713-.358,2.486-.358,3.554,0,.709,1.067,2.128,1.422,2.838s1.067,2.132,1.78,2.486a15.059,15.059,0,0,0,1.777,2.486,5.055,5.055,0,0,0,2.132.709c.358,0,1.422,0,1.78-.355.709-.355.709-1.419,1.064-2.132.358-.355.713-1.419,1.422-1.774h1.78a11.075,11.075,0,0,1,2.132,1.419c.355.355.713.709,1.067.709a1.313,1.313,0,0,0-.355,1.067,5.23,5.23,0,0,1-.358,2.128,4.735,4.735,0,0,1-1.064,1.777c-.358.709-1.78,1.419-2.135,2.128a6.159,6.159,0,0,0-2.132,2.132c-.358.709-.713,2.841-1.067,3.55,0,.709.355,2.132,0,2.841a11.283,11.283,0,0,1-1.777,2.132,26.859,26.859,0,0,1-4.624,2.128c-1.064.355-3.554.355-4.621.709a32.78,32.78,0,0,0-3.554,1.777c-.713.709-2.135,1.774-2.844,2.486-.358,1.064-1.067,3.2-1.422,4.26a10.959,10.959,0,0,0,.355,3.55,10.359,10.359,0,0,0,1.067,3.55c.355,1.064,1.777,2.132,2.132,2.841a4.932,4.932,0,0,1,0,3.2c0,.355-.709.709-1.064,1.064-.713.709-1.067,2.486-1.78,3.2a4.057,4.057,0,0,1-2.132,1.064,8.731,8.731,0,0,1-4.266-.355c-1.067-.355-2.49-1.774-3.557-2.128a7.537,7.537,0,0,0-2.486-1.067,5.016,5.016,0,0,0-2.135.713c-.355.355-1.067.709-1.422,1.064-.355.709,0,1.774,0,2.486,0,1.064.355,3.2.355,3.905a7.835,7.835,0,0,1-.355,2.841c0,.709.355,2.483,0,3.193,0,1.067-1.067,2.486-1.777,3.554s-2.135,3.55-2.844,4.615a15.1,15.1,0,0,1-2.844,2.132c-.713,1.064-1.777,2.483-2.49,3.55-.355.709-1.067,2.128-1.422,2.838v5.327c.355.355,1.067.709,1.422,1.064h2.135c.355,0,1.064-.355,1.422,0V238.2c0,.709-.358,2.132-.358,3.2-.709,1.419-1.777,3.905-2.486,5.324a35.492,35.492,0,0,1-3.557,3.908c-1.067.709-2.844,2.483-3.912,2.838-1.777.355-4.976,0-6.4,0a50.178,50.178,0,0,0-7.465-.355,23.54,23.54,0,0,0-4.979.355c-1.064.355-2.132,1.777-2.844,2.132a7.206,7.206,0,0,0-2.486,2.131,5.093,5.093,0,0,0-.713,2.483c0,.713-.355,2.132,0,2.841s1.777,1.067,2.489,1.422a3.815,3.815,0,0,1,2.132.709,4.49,4.49,0,0,1,1.422,2.486,3.8,3.8,0,0,1-.709,2.128,9.347,9.347,0,0,1-2.844,1.067c-1.067.355-3.912,0-5.334-.358a5.406,5.406,0,0,1-2.844-1.419" transform="translate(-96.704 4826.118)" fill="#d83a0b" stroke="#fff" stroke-width="0.5" fill-rule="evenodd"/>
    <path id="Path_40" data-name="Path 40" d="M382.557,62.331h0c.709,0,1.419.709,2.128,1.422,0,0,.713,1.064,1.067,1.064a3,3,0,0,0,1.774,1.067c.355.358,1.064,0,1.777,0,.355-.355.709-.709,1.064-.709a2.673,2.673,0,0,1,1.419-.713c.355-.355,1.422,0,1.777.355.709.358,1.064,2.135,1.419,2.489a4.264,4.264,0,0,0,1.774,1.777,8.441,8.441,0,0,0,3.2.713c1.064.355,3.551,0,4.615,0a14.564,14.564,0,0,0,3.905-.355c.713-.358,2.131-.713,2.486-1.422a4.3,4.3,0,0,0,1.774-1.777,3.023,3.023,0,0,0-1.064-1.78c-.355-.355-1.064-1.064-1.419-1.422s-1.064-1.064-1.064-1.422a2.221,2.221,0,0,1,0-2.132c.355-.713,1.419-1.067,2.128-1.422H413.8a4.922,4.922,0,0,1,3.193,0c.713,0,2.131.355,3.2.355a3.815,3.815,0,0,0,2.132.713c.709.709,2.128,1.422,2.838,2.132a7.185,7.185,0,0,1,2.486,2.135,10.374,10.374,0,0,1,.709,3.2c0,.709,0,2.486-.355,2.844a5.723,5.723,0,0,1-3.2,1.064c-1.064,0-2.483-.355-3.193-.355-.358,0-1.422,0-1.777.355-.355,0-1.064,1.067-1.064,1.422,0,.713.355,2.489.355,3.557a2.687,2.687,0,0,1,.71,1.422,8.511,8.511,0,0,1-1.064,3.2c-.355.709-1.422,1.067-2.132,1.422a17.28,17.28,0,0,1-2.483,1.064,11.286,11.286,0,0,0-2.132,1.78,8.364,8.364,0,0,0-.709,2.844c0,.709.355,2.486,0,3.2a10.415,10.415,0,0,1-.709,3.2,8.357,8.357,0,0,1-2.486,2.49,10.05,10.05,0,0,1-3.2,2.132,16.411,16.411,0,0,0-2.483,2.489,2.927,2.927,0,0,0-1.422,2.132c-.355.713,0,1.777,0,2.135.713,1.064,3.2,2.486,4.263,3.2,1.064,1.067,3.193,2.844,4.615,3.2a17.685,17.685,0,0,0,4.615,1.777h2.128a6.591,6.591,0,0,0,2.486-.709,11.136,11.136,0,0,0,2.128-1.78c.713,0,2.132-.355,2.486-.355a11.173,11.173,0,0,1,2.132,1.78c.709.709,1.419,1.777,2.128,2.132a4.722,4.722,0,0,0,1.777,1.067c.709,0,1.774-.358,2.483-.358s1.777,0,2.132.358a7.229,7.229,0,0,1,2.483,2.132,11.976,11.976,0,0,1,1.067,2.135V121.7c-.358.709-.713,1.777-1.067,2.489a2.133,2.133,0,0,1-.355,1.419,6.106,6.106,0,0,1-2.128,2.135,24.178,24.178,0,0,0-3.55,1.422,9.557,9.557,0,0,0-2.486,2.844c-1.064,1.067-1.774,3.554-2.128,4.976a11.358,11.358,0,0,0-1.067,3.2,17.878,17.878,0,0,0-.709,4.266,5.142,5.142,0,0,0,.709,2.49c.358,1.422.713,3.554,1.067,4.621a18.783,18.783,0,0,1,1.064,4.266,15.658,15.658,0,0,1-.709,3.554,6.044,6.044,0,0,1-1.064,2.135,13.393,13.393,0,0,1-2.486,2.132,11.068,11.068,0,0,0-2.131,1.422c-.71.713-1.774,1.422-2.128,2.132,0,1.067.355,2.844.355,3.912,0,.713.355,2.489,0,3.2a3.742,3.742,0,0,1-.709,1.777,2.686,2.686,0,0,1-.709,1.422c0,.358-.358,1.067-.358,1.422s.358,1.067.358,1.422c.355.713,1.419,1.422,1.774,1.78a10.375,10.375,0,0,1,.71,3.2,20.323,20.323,0,0,1-.355,4.621,6.393,6.393,0,0,1-1.419,3.2c0,.355-.709,1.067-1.422,1.777-.355.358-.709.713-1.064.713a8.384,8.384,0,0,1-1.774,1.777,8.412,8.412,0,0,1-3.2-.713,37.373,37.373,0,0,1-3.905-3.2,10.611,10.611,0,0,1-1.419-2.844,27.979,27.979,0,0,1-1.422-3.2,9.086,9.086,0,0,0-.709-2.489,7.231,7.231,0,0,0-2.128-2.486,4.771,4.771,0,0,0-1.777-1.067h-2.483a7.7,7.7,0,0,0-1.777,1.422c-.709,1.067-.355,3.2-.709,4.266-.355,2.132-1.419,6.043-1.777,8.178-.709,2.132-1.064,6.04-1.419,8.175-.355,1.067-1.064,3.2-1.419,4.266a15.132,15.132,0,0,0-.709,3.908c0,1.067-.355,3.2-.355,4.266a9.764,9.764,0,0,1-.358,3.2c0,.713-1.064,1.78-1.419,2.489v.355h-1.419c-1.067,0-2.841.358-3.55.358-1.064-.358-2.841-1.422-3.55-1.422a10.038,10.038,0,0,0-4.615,1.422c-2.132.709-4.969,3.554-6.746,4.621-1.419.709-4.26,2.486-5.679,3.2-1.777.709-5.324,2.132-7.456,2.844s-7.1,2.132-9.584,2.844c-2.841.709-8.165,2.486-11.006,3.2-1.064.355-3.55,1.422-4.615,1.422a6.142,6.142,0,0,1-3.55.355c-.71-.355-1.064-2.132-1.419-2.844s-.713-2.132-1.067-2.844a8.35,8.35,0,0,0-2.838-.709,10.972,10.972,0,0,0-2.132,1.422c-.709.355-1.419,1.422-1.774,1.777s-.713,1.777-1.067,1.777a4.125,4.125,0,0,1-3.547-.71c-.713,0-1.777-1.422-2.132-1.78a10.377,10.377,0,0,0-3.2-.709,6.925,6.925,0,0,0-2.483.355,11.155,11.155,0,0,0-1.777,3.557,20.419,20.419,0,0,0,1.067,4.976,4.735,4.735,0,0,1,1.064,1.777,5.866,5.866,0,0,1-.355,3.557,13.285,13.285,0,0,1-2.132,2.486c-.709.355-2.483,1.422-3.55,1.422s-3.2-1.067-4.26-1.422c-.71-.355-2.128-1.422-2.841-1.422a7.809,7.809,0,0,0-2.838-.355c-.709.355-2.486,1.422-3.2,1.777-.355,1.067-.709,2.844-1.064,3.912a10.622,10.622,0,0,1-1.422,2.844c0,.709-1.064,1.777-1.774,2.486a1.3,1.3,0,0,0-1.064-.355,10.273,10.273,0,0,0-3.2.713,13.284,13.284,0,0,0-2.486,2.132c-.71.355-2.128,1.777-3.2,2.135a17.283,17.283,0,0,1-4.26.355c-.355-.355-1.419,0-2.128-.355-.355-.358-1.064-1.78-1.777-1.78-.71-.355-2.483,0-3.547,0-.355-.355-1.777-.355-2.132-.709-.709-.355-2.128-1.777-2.128-2.844,0-.355,1.419-1.067,1.774-1.777,0-.355.709-1.777.355-2.49,0-.71-2.128-1.777-2.841-2.489a56.766,56.766,0,0,0-7.452-1.777,28.348,28.348,0,0,0-5.327-1.067,17.324,17.324,0,0,0-6.034-.355c-1.422.355-4.26,1.422-5.682,1.777-1.064.713-2.483,1.78-3.193,2.135a11.578,11.578,0,0,1-4.973,1.422,8.66,8.66,0,0,1-4.26,0c-1.064,0-3.193-1.422-3.905-2.135a6.123,6.123,0,0,1-2.128-2.132,14.624,14.624,0,0,1-.355-3.912c-.355-1.422-.355-3.554-.709-4.621a3.815,3.815,0,0,0-.713-2.132c-.355-.713-1.774-1.067-2.483-1.422a6.051,6.051,0,0,0-2.486-.355c-.709,0-2.128.355-2.483.355-.713-.355-1.422-1.422-1.777-1.777a10.7,10.7,0,0,1-1.419-2.844,7.836,7.836,0,0,0-.355-2.844c0-.713-1.067-1.777-1.777-2.49a5.723,5.723,0,0,0-2.483-1.422,5.14,5.14,0,0,0-2.486-.709c-.709,0-1.774.355-2.128,0a6.114,6.114,0,0,1-2.132-2.135v-2.486a10.419,10.419,0,0,0-2.132-7.11c-.709-.355-2.128-.713-2.838-1.067h-2.486a3.154,3.154,0,0,0-1.774,1.422,7.223,7.223,0,0,0-2.132,2.489,37.529,37.529,0,0,1-2.483,3.908,5.239,5.239,0,0,1-2.132,1.78h-3.905a8.281,8.281,0,0,0-2.841-.713A7.23,7.23,0,0,1,162.1,222.3a11.292,11.292,0,0,1-2.132-1.78,17.323,17.323,0,0,1-.355-4.263v-5.334c.355-1.067,0-3.554,0-4.621.355-1.067,0-3.557.355-4.979a3.756,3.756,0,0,1,.709-1.777c.358-.355,1.067-1.422,1.422-1.777a5.054,5.054,0,0,0,.709-2.132c0-.713,0-2.135-.355-2.489a12.086,12.086,0,0,0-3.55-.355c-.709.355-1.774.355-2.128.709A16.3,16.3,0,0,0,154.289,196c-1.064,1.067-2.486,2.844-3.55,3.2a6.005,6.005,0,0,1-3.55,1.067h-2.483c-1.422,0-4.615.355-6.391.355a13.331,13.331,0,0,0-3.55.355c-.709,0-2.128,1.422-2.841,1.777a14.436,14.436,0,0,1-3.905.358,20.824,20.824,0,0,1-4.615-.713c-1.774-.709-4.615-2.489-6.033-3.2a15.973,15.973,0,0,1-4.26-2.132,20.4,20.4,0,0,1-3.905-3.912,10.447,10.447,0,0,1-1.064-3.554,7.382,7.382,0,0,1,.709-2.135,11.855,11.855,0,0,1,1.064-2.132c.355-.358.709-1.067,1.064-1.422a5.394,5.394,0,0,0,2.841,1.422c1.419.355,4.26.709,5.324.355a9.268,9.268,0,0,0,2.841-1.067,3.814,3.814,0,0,0,.709-2.132A4.52,4.52,0,0,0,121.274,180a3.805,3.805,0,0,0-2.132-.709c-.709-.358-2.128-.713-2.483-1.422s0-2.135,0-2.844a5.143,5.143,0,0,1,.709-2.49,7.211,7.211,0,0,1,2.486-2.132c.709-.358,1.774-1.78,2.838-2.135a23.447,23.447,0,0,1,4.969-.355,50.018,50.018,0,0,1,7.456.355c1.422,0,4.615.355,6.391,0,1.064-.355,2.838-2.132,3.905-2.844a35.732,35.732,0,0,0,3.55-3.908c.709-1.422,1.774-3.912,2.483-5.334,0-1.067.355-2.486.355-3.2v-8.533c-.355-.355-1.064,0-1.419,0h-2.132c-.355-.355-1.064-.709-1.419-1.067v-5.33c.355-.713,1.064-2.135,1.419-2.844.713-1.067,1.777-2.49,2.486-3.554a14.866,14.866,0,0,0,2.841-2.135c.709-1.067,2.128-3.554,2.841-4.621s1.774-2.489,1.774-3.554c.355-.713,0-2.489,0-3.2a7.828,7.828,0,0,0,.355-2.841c0-.713-.355-2.844-.355-3.912,0-.713-.355-1.777,0-2.489.355-.355,1.064-.709,1.419-1.064a5.017,5.017,0,0,1,2.132-.713,7.522,7.522,0,0,1,2.483,1.067c1.067.355,2.486,1.777,3.55,2.132a8.712,8.712,0,0,0,4.26.355,4.056,4.056,0,0,0,2.132-1.064c.709-.713,1.064-2.489,1.774-3.2.355-.355,1.064-.709,1.064-1.064a4.9,4.9,0,0,0,0-3.2c-.355-.713-1.774-1.777-2.128-2.844a10.465,10.465,0,0,1-1.064-3.557,10.967,10.967,0,0,1-.355-3.554l1.419-4.266c.71-.709,2.128-1.777,2.841-2.489a32.718,32.718,0,0,1,3.55-1.777c1.064-.355,3.547-.355,4.615-.709a26.82,26.82,0,0,0,4.615-2.135,11.277,11.277,0,0,0,1.774-2.132c.355-.709,0-2.135,0-2.844.355-.709.709-2.844,1.064-3.554a6.14,6.14,0,0,1,2.131-2.135c.355-.709,1.774-1.422,2.132-2.132a4.761,4.761,0,0,0,1.064-1.777,5.308,5.308,0,0,0,.355-2.135,1.313,1.313,0,0,1,.355-1.067.348.348,0,0,0,.355.358c.355,0,.71-.713,1.064-.713.709-.355,1.422-.709,2.132-1.067.355-.355,1.064-.709,1.419-1.064s1.064-.713,1.422-1.067c.355,0,1.064-.355,1.419,0a2.133,2.133,0,0,1,1.419.355c.355,0,1.064,1.067,1.777,1.422.355.713,1.774,1.422,2.483,2.135.709.355,1.777,1.419,2.486,1.777s2.128,1.422,2.841,1.422c.709.355,2.483-.713,3.193-.355.355.355.713,1.419,1.067,1.777s1.064.709,1.064,1.064c.355.358.71,1.422,1.064,1.78s1.422.355,1.777.355,1.064-.713,1.419-1.067c.355-.709-.355-2.489,0-3.2a4.282,4.282,0,0,1,1.774-1.777,5.286,5.286,0,0,1,2.132.355c.355,0,1.064,1.067,1.064,1.422a8.834,8.834,0,0,1,.355,3.2c0,.355-.71,1.422-.355,2.135,0,.709.709,1.419.709,1.777.355.709.355,2.486.713,3.2.355.355,1.774,1.067,2.128,1.422.709,0,2.486.355,3.55.355.709,0,2.128-.355,2.841-.355.709-.355,1.774-1.067,2.483-1.422.709,0,2.486-.355,3.551,0,.355,0,1.064,1.067,1.419,1.422q1.069.532,2.132,1.067a3.746,3.746,0,0,0,1.774.709h3.55c.355,0,1.422-.355,1.777-.355.709-.355,1.419-1.067,2.128-1.422a6.017,6.017,0,0,1,2.132-1.067c.71,0,1.419.713,1.774.713a7.68,7.68,0,0,1,1.777,1.422h2.483c.71,0,1.777-.358,2.132-.358.709-.355,1.774-.709,2.483-1.064.713,0,2.132-.713,2.841-.713a5.141,5.141,0,0,1,2.486.713c.709.355,1.774,1.422,2.483,1.777a3.028,3.028,0,0,0,1.777,1.067,6.037,6.037,0,0,0,2.483.355c.358-.355,1.067-.713,1.422-1.067s.71-1.422,1.064-1.777c.709-.709,1.419-2.135,2.128-2.844a4.747,4.747,0,0,1,1.067-1.777,10.889,10.889,0,0,1,2.128-1.422,17.322,17.322,0,0,1,2.486-1.067c.355,0,1.419.355,2.128.355.358,0,1.777-.355,2.131-.355a28.172,28.172,0,0,0,3.2-1.422c.709,0,2.483-.355,3.55-.355.355,0,1.419.709,1.774.709a12.167,12.167,0,0,1,2.132,1.067,7.4,7.4,0,0,1,.709,2.132c.355.713,0,2.135.355,2.844l.709.713a2.133,2.133,0,0,0,1.419-.355c.355-.358.71-1.067,1.067-1.422A14.964,14.964,0,0,1,317.591,73a19.747,19.747,0,0,1,3.2-2.489c.355-.355,1.774-.355,2.128-.709a11.3,11.3,0,0,0,3.2-1.067c1.064-.355,2.841-1.067,3.905-1.422A6.575,6.575,0,0,1,332.5,66.6h3.55a6.036,6.036,0,0,1,2.483.355c.71,0,1.419,1.422,1.777,1.777a13.284,13.284,0,0,1,2.128,2.489,19.785,19.785,0,0,0,1.777,2.844c.71.355,1.774.709,2.483,1.067a10.863,10.863,0,0,0,3.551-.358c.709,0,1.774-1.067,2.131-1.777a17.665,17.665,0,0,0,2.838-2.489,8.366,8.366,0,0,1,2.841-.709c1.064-.355,3.2-.355,3.905-.713a23.309,23.309,0,0,0,5.324-1.777c1.064-.355,3.2-1.777,4.26-2.132a18.428,18.428,0,0,1,4.615-2.135c1.067-.355,3.2-.709,4.26-1.064a5.279,5.279,0,0,1,2.132.355" transform="translate(-0.212 4911.07)" fill="#d83a0b" stroke="#fff" stroke-width="0.5" fill-rule="evenodd"/>
    <path id="Path_44" data-name="Path 44" d="M291.934,97.325a3.292,3.292,0,0,0,1.077,1.783H292.3a3.863,3.863,0,0,0-2.16.713A3.136,3.136,0,0,0,288.7,101.6c0,.355,0,1.425.358,1.78,0,.713,1.435,1.783,1.8,2.5a11.794,11.794,0,0,1,1.077,2.138v2.854a9.285,9.285,0,0,1-1.8,3.209,31.811,31.811,0,0,1-3.6,2.851A11.493,11.493,0,0,1,283.305,118a25.537,25.537,0,0,1-5.388-.358c-1.441-.355-3.96-.713-5.036-1.067-1.077-.713-3.237-1.783-4.314-2.5-1.077-.358-3.6-1.071-4.672-2.138a9.055,9.055,0,0,1-2.876-3.566c-.364-.713-.719-2.138-1.077-2.851a6.046,6.046,0,0,1,.358-2.5c.355-.358.719-.358,1.077-.713,0-.358.358-1.429,0-2.141A4.79,4.79,0,0,0,260.3,98.4c-.358-.358-1.441-1.425-1.441-1.783-.358-.358-.358-1.425-.358-1.783a7.307,7.307,0,0,1,.719-2.138c.358,0,.358.355.722.355a20.085,20.085,0,0,1,3.231,2.5c.722,1.071,1.8,3.208,2.876,3.566s3.956-1.071,5.036-1.428c1.077,0,3.6-.709,4.672-.709,1.077.355,2.16,2.138,2.873,2.138a8.1,8.1,0,0,0,5.036-1.071c.719-.358,1.077-2.138,1.8-2.851,1.077-.713,3.6-1.428,4.672-1.071.719.358,1.077,2.5,1.8,3.209" transform="translate(329.883 4987.695)" fill="#d83a0b" stroke="#fff" stroke-width="0.5" fill-rule="evenodd"/>
    <path id="Path_48" data-name="Path 48" d="M415.361,84.982c.355,1.422-.355,3.554-1.067,4.976-.355,1.067-2.847,3.2-3.915,4.621-.355,1.067-1.777,2.844-1.777,3.912,0,1.419,1.777,3.2,2.489,3.905.713,1.067,2.847,2.135,3.2,3.2,0,.352.355,1.419,0,1.777-1.067,1.067-3.557-.358-4.624,0a7.212,7.212,0,0,0-3.2,2.135,13.219,13.219,0,0,0-.358,3.905c.358,1.067,1.425,3.2,1.425,4.269a6.37,6.37,0,0,1-1.425,3.2c-.355.709-1.422,1.777-2.135,1.777-.71.358-2.844,0-3.912,0a15.536,15.536,0,0,0-2.493,1.425,16.786,16.786,0,0,0-2.135,3.2c-.355,1.064-1.067,3.554-.709,4.621s2.135,2.135,2.489,2.844a6.3,6.3,0,0,1,1.422,3.554,21.045,21.045,0,0,1-.709,4.979,39.545,39.545,0,0,1-2.493,5.682,36.992,36.992,0,0,1-2.844,3.912,15.421,15.421,0,0,1-3.56,3.2c-.71.709-3.557,2.128-3.557,3.554a5.539,5.539,0,0,0,2.135,2.844c.713.352,2.489-.358,3.557-.358.713.358,2.847.358,3.56,1.067a4.391,4.391,0,0,1,1.422,2.844c0,.709-1.067,2.128-1.422,2.844-.713.709-2.493,1.067-3.2,1.419a17.9,17.9,0,0,0-2.493,2.847c-.71,1.419,0,5.331-.71,6.753-.358,1.064-2.135,2.841-2.847,3.55-1.067.716-3.915,1.425-4.982,2.135A9.18,9.18,0,0,0,378,189.486c-.713.709-.713,2.844-1.067,3.554a14.588,14.588,0,0,1-3.2,1.777c-1.067.358-3.2,0-4.269,0-.713.358-2.135,1.067-2.844,1.419-.713,1.067-1.067,3.912-1.425,5.337a25.334,25.334,0,0,0-1.422,7.465,15.192,15.192,0,0,0,1.78,5.685,46.167,46.167,0,0,0,5.334,6.395,39.961,39.961,0,0,0,3.56,2.847c-.358.355-.713.71-1.067.71-.713.709-1.425,1.777-2.135,2.135a31.254,31.254,0,0,1-3.56,2.844c-1.064.709-2.489,2.486-3.557,3.2A40.707,40.707,0,0,0,359.5,236.4a43.4,43.4,0,0,1-4.269,2.844,13.937,13.937,0,0,1-3.915,2.135,7.459,7.459,0,0,1-2.49,1.067h-2.847a18.654,18.654,0,0,0-4.269,1.067c-.355,0-1.067.709-1.422,1.061-.713.358-1.422.716-1.422,1.425-.358.358-.358,1.422-.713,2.135a2.15,2.15,0,0,1-.355,1.422,11.171,11.171,0,0,1-1.425,2.132c-.71.709-2.135,2.128-2.844,2.844a26.324,26.324,0,0,1-3.2,1.777,8.4,8.4,0,0,1-2.847.709,6.059,6.059,0,0,1-2.49-.355,1.76,1.76,0,0,0-.358-1.071,2.712,2.712,0,0,0-.71-1.419c-.358-.358-1.78,0-2.135,0-.358.358-1.067.713-1.425,1.067s-.355,1.422-.709,1.777c-.713.358-1.78,1.422-2.493,1.78h-3.557c-1.067,0-2.847.355-3.915,0-1.422-.358-3.2-2.847-4.27-3.557s-2.844-2.486-3.912-3.2c-.358-.352-1.067-1.419-1.78-1.419a3.722,3.722,0,0,0-1.78-.709h-2.844a5.99,5.99,0,0,0-3.56,1.067,13.289,13.289,0,0,0-2.49,2.132,11.044,11.044,0,0,0-1.78,3.554,7.2,7.2,0,0,1-2.135,2.489,2.688,2.688,0,0,1-1.777.352h-1.78a7.588,7.588,0,0,1-1.78-1.064c-.355-.355-1.068-1.064-1.422-1.064-.355-.358-1.422-.358-1.78-.358-.709,0-2.135,0-2.489.358a10.72,10.72,0,0,0-2.135,1.422c-.355.355-.713,1.777-1.422,2.483,0,.358-1.067.716-1.425.716a1.307,1.307,0,0,1-1.067.355c-.355,0-1.067-.713-1.422-1.071-.355,0-1.067-.706-1.422-1.061-.713-.358-1.425-.716-2.135-1.067h-9.606a10.861,10.861,0,0,0-2.135,1.422,5.238,5.238,0,0,0-1.78,2.131c-.709,1.067-1.067,3.2-1.422,3.908a19.4,19.4,0,0,1-3.2,2.486,5.992,5.992,0,0,1-3.557,0,12.745,12.745,0,0,1-3.915-1.061,18.558,18.558,0,0,0-3.557-2.135,7.77,7.77,0,0,0-2.847-1.777h-2.49c.709-.709,1.422-1.422,1.422-1.777a6.383,6.383,0,0,0,1.422-3.2,20.158,20.158,0,0,0,.358-4.621,10.344,10.344,0,0,0-.713-3.2,8.554,8.554,0,0,1-1.78-1.777c0-.358-.355-1.071-.355-1.422s.355-1.067.355-1.425a2.662,2.662,0,0,0,.713-1.419,3.775,3.775,0,0,0,.713-1.777c.355-.716,0-2.493,0-3.2,0-1.067-.358-2.844-.358-3.912.358-.709,1.425-1.419,2.135-2.128a11.206,11.206,0,0,1,2.135-1.425,13.168,13.168,0,0,0,2.493-2.128,6.03,6.03,0,0,0,1.067-2.135,15.691,15.691,0,0,0,.709-3.554,18.624,18.624,0,0,0-1.067-4.266c-.355-1.067-.709-3.2-1.067-4.621a5.151,5.151,0,0,1-.709-2.486,17.858,17.858,0,0,1,.709-4.266,11.29,11.29,0,0,1,1.067-3.2c.358-1.425,1.067-3.912,2.135-4.979a9.658,9.658,0,0,1,2.493-2.844,24.165,24.165,0,0,1,3.557-1.419,6.149,6.149,0,0,0,2.135-2.135,2.141,2.141,0,0,0,.355-1.419c.358-.716.713-1.783,1.067-2.493v-2.128a11.569,11.569,0,0,0-1.067-2.135,7.265,7.265,0,0,0-2.489-2.135c-.355-.352-1.422-.352-2.135-.352s-1.78.352-2.489.352a4.69,4.69,0,0,1-1.78-1.067c-.713-.352-1.422-1.419-2.135-2.128a11.1,11.1,0,0,0-2.135-1.777c-.355,0-1.78.355-2.49.355a11.416,11.416,0,0,1-2.135,1.777,6.628,6.628,0,0,1-2.493.713h-2.135a17.918,17.918,0,0,1-4.624-1.78c-1.422-.355-3.557-2.132-4.624-3.2-1.067-.709-3.56-2.132-4.269-3.2,0-.358-.358-1.422,0-2.135a2.912,2.912,0,0,1,1.422-2.128,16.179,16.179,0,0,1,2.489-2.49,10.08,10.08,0,0,0,3.2-2.132,8.389,8.389,0,0,0,2.493-2.493,10.378,10.378,0,0,0,.709-3.2c.358-.716,0-2.493,0-3.2a8.427,8.427,0,0,1,.713-2.844,11.451,11.451,0,0,1,2.135-1.777,16.537,16.537,0,0,0,2.489-1.067c.713-.352,1.78-.709,2.135-1.419a8.452,8.452,0,0,0,1.067-3.2,2.711,2.711,0,0,0-.709-1.419c0-1.067-.358-2.844-.358-3.554,0-.358.713-1.422,1.067-1.422.358-.355,1.425-.355,1.78-.355.713,0,2.135.355,3.2.355a5.751,5.751,0,0,0,3.2-1.064c.355-.358.355-2.135.355-2.844a10.374,10.374,0,0,0-.709-3.2,7.237,7.237,0,0,0-2.493-2.135c-.709-.709-2.135-1.422-2.844-2.135a3.792,3.792,0,0,1-2.135-.709c-1.067,0-2.493-.355-3.2-.355a4.95,4.95,0,0,0-3.2,0h-2.493c-.709.355-1.777.713-2.135,1.422a2.238,2.238,0,0,0,0,2.132c0,.358.713,1.067,1.067,1.422s1.067,1.067,1.425,1.422,1.067,1.067,1.067,1.777a4.3,4.3,0,0,1-1.78,1.78c-.355.709-1.78,1.064-2.489,1.422a14.773,14.773,0,0,1-3.915.352c-1.067,0-3.557.358-4.624,0a8.448,8.448,0,0,1-3.2-.709,4.261,4.261,0,0,1-1.78-1.777c-.355-.355-.713-2.132-1.422-2.486-.358-.358-1.425-.713-1.78-.358a2.705,2.705,0,0,0-1.422.713c-.358,0-.713.355-1.067.709-.713,0-1.425.355-1.78,0a3.033,3.033,0,0,1-1.78-1.064c-.355,0-1.067-1.067-1.067-1.067-.71-.713-1.422-1.422-2.135-1.422.713-.355,1.425-.355,1.78-.713a18.95,18.95,0,0,0,3.915-1.777,5.727,5.727,0,0,0,1.422-2.489c.713-.709,1.067-2.486,1.422-3.554s.713-2.844,1.425-3.554c.709-1.067,3.2-2.135,4.27-2.844,1.067-.358,3.912-.709,4.979-1.067a30.994,30.994,0,0,0,5.695-.352,24.756,24.756,0,0,0,5.337-2.493c1.067-1.067,3.2-2.844,4.269-3.912,1.422-1.061,3.2-3.554,4.27-4.263s2.49-2.135,3.557-2.486c1.422-1.067,4.624-2.135,6.049-2.844,1.067-.358,2.844-.709,3.912-1.067.358-.355,1.78-.355,2.493-.709.355,0,1.422-1.067,1.777-1.422.358-.709,1.067-1.777,1.425-2.486.355-.358,1.067-1.78,1.422-1.78a2.274,2.274,0,0,1,2.135,0c.355,0,.713.713,1.067,1.067h3.912a9.251,9.251,0,0,0,2.847-1.067,13.638,13.638,0,0,0,3.915-3.908,13.215,13.215,0,0,0,1.422-5.337,25.169,25.169,0,0,0,.355-5.33c-.355-1.419-1.067-3.905-1.422-4.973a8.152,8.152,0,0,0-2.489-3.56,9.044,9.044,0,0,0-3.56-2.838c-.709-.716-2.135-1.425-2.49-1.777-.713-.358-1.422-1.425-1.78-1.777a5.49,5.49,0,0,1-1.422-2.135,6.59,6.59,0,0,1-.71-2.486c0-1.067.355-2.844.355-3.557a27.241,27.241,0,0,1,.713-5.33,21.7,21.7,0,0,1,1.064-4.621c0-1.067.713-2.489.713-3.554.355-.358.355-1.067.713-1.783a.766.766,0,0,0,.709.716,9.5,9.5,0,0,0,4.269,1.067c1.067,0,3.2-.358,4.27-.358a7.5,7.5,0,0,1,2.493-1.067c1.067-.358,3.2.358,4.269.709s2.844,1.78,3.911,2.135c1.425,0,3.915-1.067,4.982-1.419,1.422-.358,3.557-1.783,4.982-2.135,1.067-.358,3.2-1.067,4.624-1.425,2.489-.352,7.826.716,10.319,0,2.135,0,6.046-1.419,7.826-2.128A53.349,53.349,0,0,0,319.3,31.31c1.067-.716,2.847-2.493,3.915-3.2a11.218,11.218,0,0,1,3.557-1.777,18.65,18.65,0,0,1,6.4,1.067c1.425.352,3.915,2.486,4.982,3.912a33.641,33.641,0,0,1,1.78,6.4c.709,2.128,1.067,6.749,1.777,8.887.713,1.777,1.78,5.685,2.847,7.462.713,1.422,2.135,4.266,3.557,5.334s4.982,1.419,6.762,1.777a47.2,47.2,0,0,1,6.759,1.777,24.643,24.643,0,0,1,4.624,3.905,24.435,24.435,0,0,0,4.624,3.912,11.1,11.1,0,0,0,3.56,1.777,35.717,35.717,0,0,0,6.046-1.067c.713-.352,2.847-1.061,3.56-1.777.71-.352,1.777-2.128,2.489-2.128,1.78-.358,5.337.709,6.759,1.777,1.067.709,2.135,3.554,2.847,4.621.713.709,1.78,2.844,2.489,3.554a10.18,10.18,0,0,0,3.2,2.135,12.8,12.8,0,0,0,3.56.709c1.067,0,3.2-.709,3.912-.709a5.3,5.3,0,0,1,3.2,1.419,10.06,10.06,0,0,1,2.847,3.912" transform="translate(188.391 4841.927)" fill="#d83a0b" stroke="#fff" stroke-width="0.5" fill-rule="evenodd"/>
    <path id="Path_52" data-name="Path 52" d="M423.887,218.439v2.486c0,.713,0,1.777-.355,2.131s-1.067.713-1.425,1.067c-.355.709-.709,2.132-1.064,2.841,0,.713-.358,1.777-.358,2.131.358.713,1.78,1.067,2.135,1.777,0,.355-.713,1.067-.713,1.422a10.924,10.924,0,0,1-1.422,2.132,14.557,14.557,0,0,1-3.2,1.777c-.712.355-2.847,1.419-3.557,2.486a7.964,7.964,0,0,0-.358,1.422,3.037,3.037,0,0,0,0,2.486c0,.355.713.709,1.422.709.713.713,2.493,1.067,3.557,1.422.713.355,2.493.355,3.2.709a4.118,4.118,0,0,1,1.78,2.486,4.941,4.941,0,0,1,0,3.2,10.966,10.966,0,0,1-1.425,2.132,5.185,5.185,0,0,1-1.777,2.132c-.713.713-3.2,1.067-3.912,1.777a5.22,5.22,0,0,0-2.135,1.777,12.5,12.5,0,0,0-1.78,2.841c-.709,1.067-1.777,3.554-2.844,4.621a12.552,12.552,0,0,1-2.844,1.774c-1.425.713-4.624.713-6.4,1.067-1.422,0-4.266.355-5.692.355a6.966,6.966,0,0,0-2.489.355,2.7,2.7,0,0,0-1.422.713c-.355.709-1.422,1.777-1.422,2.486-.355.709,0,2.486-.355,3.554a6.043,6.043,0,0,1-1.067,2.132c-.358.355-1.067.71-1.425,1.064h-2.132c-.713.355-1.422.713-2.135,1.067-.355,0-1.78-.355-2.49-.355-.358,0-1.78-.358-2.489,0h-1.422c0,.355-.358,1.419-.358,1.777a1.6,1.6,0,0,0,1.067,1.064c.713.355,2.135.355,2.844.709s1.78,1.067,2.493,1.422a52.5,52.5,0,0,1,3.2,4.618c1.067,1.067,2.135,4.263,2.847,5.331A23.916,23.916,0,0,1,390.1,299.8c.358.709,1.067,2.132,1.425,2.841,0,.713.71,2.49.71,3.2a10.985,10.985,0,0,1-.355,3.554c-.355.709-1.78,1.777-2.135,2.486a8.9,8.9,0,0,0-2.489,1.422,5.14,5.14,0,0,0-.713,2.486,11.828,11.828,0,0,0,1.067,2.132,16.968,16.968,0,0,1,1.067,2.486c.358.355,1.78.709,1.78,1.422a1.6,1.6,0,0,1-1.067,1.064,6.088,6.088,0,0,1-2.135,2.132c-1.067.358-2.844,1.777-3.912,2.132a35.728,35.728,0,0,1-6.046,1.067,15.183,15.183,0,0,1-3.915.709h-4.266c-1.422,0-4.269-.355-5.337,0a3.836,3.836,0,0,0-2.135.713,7.512,7.512,0,0,1-2.489,1.064h-2.489c-.709-.355-1.777-1.777-2.489-2.132-.71,0-1.422-.709-2.135-.709s-1.777,1.064-2.49,1.422-1.777,1.064-2.489,1.419h-2.135a5.286,5.286,0,0,1-2.132-.355,15.452,15.452,0,0,1-1.425-2.486,5.21,5.21,0,0,0-1.777-2.132,2.7,2.7,0,0,0-1.422-.713,2.927,2.927,0,0,0-1.425,2.132c-.355.713,0,1.777,0,2.489a10.889,10.889,0,0,0,.358,3.554,20.112,20.112,0,0,1-.358,4.618v2.841a13.764,13.764,0,0,1-2.131,3.908,26.8,26.8,0,0,1-3.915,4.973c-1.067,1.067-3.911,3.2-5.334,4.266-1.067.355-3.2,1.419-4.269,1.774a3.582,3.582,0,0,0-1.068.358H318.25a2.141,2.141,0,0,0-1.422.355c-.358.355-.358,1.422-.358,1.777s.358,1.419.358,1.777c.355.355,1.777,1.064,2.132,1.419.358.713,1.425,1.777,1.78,2.49a7.507,7.507,0,0,1,1.067,2.486,13.329,13.329,0,0,1,.355,3.55,9.447,9.447,0,0,0,1.067,4.266,3.6,3.6,0,0,0,1.422,2.486,6.168,6.168,0,0,0,2.135,2.132,6.079,6.079,0,0,0,3.557,0c.713-.355,2.135-1.422,2.844-1.777h3.2c.713.355,2.135.709,2.847,1.064.709,0,2.131,1.067,2.844,1.422a7.186,7.186,0,0,0,2.135,2.486,3.817,3.817,0,0,0,2.135.713c.355.355,1.064,1.064,1.422,1.419,0,.358-.358,1.777-.358,2.132,0,1.067.358,3.2.358,4.266a9.837,9.837,0,0,0,.355,3.2,2.681,2.681,0,0,0,.713,1.422c.355.71,1.777,1.422,2.135,2.132a7.527,7.527,0,0,1,1.064,2.486,5.39,5.39,0,0,1-1.422,2.844,11.113,11.113,0,0,1-3.557,1.774,37.918,37.918,0,0,0-3.557,1.422,23.839,23.839,0,0,0-4.266,2.132,19.429,19.429,0,0,0-3.2,2.486,4.772,4.772,0,0,0-1.067,1.777c0,.713.355,2.132.355,2.844s0,1.774-.355,2.132a11.078,11.078,0,0,1-1.422,2.132c-1.068.709-2.848,1.777-3.915,2.486a12.78,12.78,0,0,0-3.554,2.486,18.683,18.683,0,0,0-3.56,3.908,24.014,24.014,0,0,0-2.132,4.263,17.726,17.726,0,0,0-.713,4.263c-.355.355-.355,1.777-.355,2.132,0,.713.355,2.132.355,2.844a19.843,19.843,0,0,1-1.777,2.841,27.456,27.456,0,0,1-3.2,3.2c-1.067,1.064-2.847,2.486-3.557,3.2-.355.713-1.067,1.777-1.422,2.486a15.465,15.465,0,0,0-.358,1.777,11.956,11.956,0,0,1-4.266,1.422,19.5,19.5,0,0,1-6.4-.355c-1.422,0-3.912-1.067-4.979-1.422-1.777-.355-5.334,0-6.759-1.064a4.294,4.294,0,0,1-1.064-3.554c0-.709,1.422-2.132,1.777-2.844a21.063,21.063,0,0,0,2.135-3.905,15.157,15.157,0,0,0-.713-6.753c-.355-1.064-2.135-2.841-2.489-3.55-.71-1.067-2.489-3.2-2.844-4.263a7.1,7.1,0,0,1-.713-4.621,9.207,9.207,0,0,1,2.49-3.908c.713-1.064,3.2-2.486,3.915-3.554,1.064-1.064,2.132-3.905,2.489-5.327a12.737,12.737,0,0,0-.713-6.395c-.355-1.777-2.844-4.976-3.912-6.395-.713-.713-2.135-1.422-2.489-2.132-.358-1.067.355-3.554-.358-4.621-.71-.709-3.557-1.064-4.624-1.064-1.422-.355-3.554,0-4.621-.355a10.72,10.72,0,0,1-2.847-2.844c-.709-1.064-2.135-3.2-2.135-4.263-.355-1.422.358-3.908,1.067-5.33.358-1.064,2.489-2.841,3.2-3.905a26.764,26.764,0,0,0,3.911-4.976,11.535,11.535,0,0,0,1.422-4.973,12.593,12.593,0,0,0-1.064-3.908c0-1.067-.358-2.486-.358-3.554.358-.709,2.135-2.132,2.489-2.841.358-1.067,1.425-3.2,1.425-4.621s-.713-4.263-.713-5.685a33.012,33.012,0,0,1,1.777-3.551c.358-1.422,1.425-3.908,1.78-5.331.355-.709,0-2.486.713-3.2a6.339,6.339,0,0,1,2.489-1.777c.71,0,2.132,1.777,2.844,1.419s1.422-2.486,1.78-3.2c0-1.067-.358-2.844-.358-3.908,0-.713-.71-2.486-.355-3.554,0-.709,1.067-1.777,1.422-2.132.355-1.067,1.422-2.486,1.78-3.554.355-.709.355-2.841-.358-3.55-.355-.713-2.489-1.777-3.2-2.132-1.425,0-3.915.355-4.982.355-1.422,0-4.266,0-5.688-.713a8.525,8.525,0,0,1-2.135-2.841c-.355-.709-.713-1.777-1.422-2.132a3.866,3.866,0,0,0-3.915,0c-.71.355-.355,2.132-.71,2.841-.358,1.422-2.489,3.554-3.557,4.621a6.068,6.068,0,0,1-2.847,2.132c-.71.709-2.844.355-3.557,1.064a7.281,7.281,0,0,0-2.489,2.132,9.309,9.309,0,0,0-1.777,3.2c0,1.064.709,3.55,0,4.618-.713,1.422-3.557,3.2-4.979,3.908-1.78,1.067-6.05,1.067-7.472,2.132-1.777,1.067-4.979,3.908-5.692,5.685a11.86,11.86,0,0,0-.709,6.04c0,1.777,1.422,4.618,1.777,6.395a35.63,35.63,0,0,1,2.489,5.33,51.866,51.866,0,0,1-1.064,7.814,30.716,30.716,0,0,1-2.493,6.04,18.34,18.34,0,0,1-6.046,4.621c-1.777,1.064-5.334,1.419-7.114,1.777-1.777.709-4.979,1.419-6.756,2.132-2.135.71-6.046,3.55-8.181,4.263-1.78.709-5.692.709-7.472,1.774s-4.266,4.621-6.046,5.685c-1.777,1.422-6.046,4.263-8.181,4.976a16.784,16.784,0,0,1-6.046,1.422,37.272,37.272,0,0,1-8.89,0,3.2,3.2,0,0,1-1.78-.358,2.674,2.674,0,0,0,.713-1.419,5.194,5.194,0,0,1,2.135-1.777c.355-.713,1.422-1.422,1.777-1.777a9.59,9.59,0,0,0,.713-6.04,13.7,13.7,0,0,0-2.135-3.908,31.034,31.034,0,0,0-3.2-3.908c-.709-1.064-3.557-3.2-3.912-4.618-.709-1.067-.709-3.554-.709-4.976a31.553,31.553,0,0,1,.709-5.327c0-.713.355-2.486.355-3.2a10.552,10.552,0,0,0-.709-3.554c-.355-.709-1.422-2.486-1.78-3.2a13.6,13.6,0,0,1-2.135-1.777V318.628s-1.064-4.973-1.422-6.395a7.828,7.828,0,0,0-.355-2.841c0-.713-1.067-1.777-1.78-2.489-.355-.355-1.064-1.419-1.422-1.774a14.771,14.771,0,0,0-2.489-1.777,12.056,12.056,0,0,1-1.067-2.132c0-.358,0-1.422.358-1.777,0-.709,1.064-1.067,1.422-1.422.355-.709,1.777-1.422,2.135-2.131a7.24,7.24,0,0,0,2.132-2.486,7.769,7.769,0,0,0,.358-2.844,9.84,9.84,0,0,0,.355-3.2c0-1.067-.355-3.2-.355-4.263a8.363,8.363,0,0,0,.709-2.844c.358-.71,1.422-1.419,1.422-2.132a8.3,8.3,0,0,0,.713-2.841,8.283,8.283,0,0,0-2.489-2.486,3.119,3.119,0,0,0-2.489-.355,5.75,5.75,0,0,0-3.2,1.064c-.709.355-1.067,1.067-1.422,1.422-.713.71-2.135,2.132-2.844,2.841a10.57,10.57,0,0,1-3.557.709,14.365,14.365,0,0,1-3.2-1.774c-.713-.355-1.422-1.777-2.135-2.132-.709-1.067-2.844-2.489-3.912-3.554a10.925,10.925,0,0,1-1.422-2.132,6.556,6.556,0,0,1-.713-2.486,5.746,5.746,0,0,1,1.422-2.49,25.161,25.161,0,0,1,3.2-2.486,21.768,21.768,0,0,1,4.624-1.064c1.067-.355,3.2,0,4.266-.355a8.407,8.407,0,0,0,2.847-.713c.709-.355,2.489-.71,2.844-1.422.713-.355,1.422-2.132,2.135-2.841a5.23,5.23,0,0,1,1.777-2.132c.358-.71,1.425-2.486,1.78-3.2.713-.355,1.777-1.064,2.489-1.419s2.135-.713,2.847-1.067,1.777-1.419,2.489-1.419a6.009,6.009,0,0,1,2.489-.358,7.852,7.852,0,0,1,1.777,1.422c1.067.355,2.847.709,3.557.355a8.4,8.4,0,0,0,2.847-.709,11.278,11.278,0,0,0,2.131-1.777,10.737,10.737,0,0,0,1.78-2.486,15.093,15.093,0,0,1,1.777-2.489c.713-.709,1.425-2.132,2.135-2.486a6.623,6.623,0,0,1,2.49-.709,6.381,6.381,0,0,1,3.2,1.422c.713.355,1.777,2.132,2.49,2.486.713.71,1.78,1.777,2.844,1.777,1.425.355,4.269,0,6.049,0,1.064,0,2.844-.355,3.912-.355,1.422-.358,3.911-1.422,4.624-2.489a5.181,5.181,0,0,0,2.135-3.2c0-1.067-1.425-2.844-2.135-3.554a25.6,25.6,0,0,1-1.78-3.2,24.021,24.021,0,0,1,.713-4.973,28.236,28.236,0,0,1,1.422-3.2,31.255,31.255,0,0,1,2.135-3.55,10.47,10.47,0,0,0,1.067-3.554c0-1.067-.355-3.2,0-4.263,0-1.067,1.067-2.844,1.422-3.908a11.355,11.355,0,0,1,1.067-3.2c0-.71.355-2.486.355-3.55a4.682,4.682,0,0,0-1.067-1.777,11.183,11.183,0,0,0-1.777-2.132c-.713-.355-2.489-.713-3.557-1.067-.358-.355-1.78-1.064-2.135-1.777a4.932,4.932,0,0,1,0-3.2,9.318,9.318,0,0,1,1.067-2.844,14.41,14.41,0,0,1,1.777-3.2c.358-.713,1.425-2.489,1.425-3.2a20.819,20.819,0,0,0,.709-4.618c0-.709.358-2.844,0-3.554a11.066,11.066,0,0,0-1.422-2.132c-1.067-.355-2.844,0-3.557-.355-1.067,0-3.2-.355-3.912-1.067a4.681,4.681,0,0,1-1.067-1.777,20.029,20.029,0,0,1,1.777-2.841c.713-.709,2.135-2.132,2.847-2.841a7.24,7.24,0,0,0,2.132-2.486,15.546,15.546,0,0,0,.713-3.554,6.316,6.316,0,0,0-1.422-3.554,6.775,6.775,0,0,0-3.2-1.064c.713-.713,1.78-1.777,1.78-2.489A10.65,10.65,0,0,0,215.1,144.9c.355-1.067.709-2.844,1.067-3.908.71-.355,2.49-1.422,3.2-1.777a7.852,7.852,0,0,1,2.844.355c.709,0,2.135,1.067,2.844,1.422,1.067.355,3.2,1.422,4.27,1.422s2.844-1.067,3.557-1.422a13.433,13.433,0,0,0,2.135-2.486,5.859,5.859,0,0,0,.355-3.554,4.747,4.747,0,0,0-1.067-1.777,20.543,20.543,0,0,1-1.067-4.973,11.043,11.043,0,0,1,1.78-3.554,6.949,6.949,0,0,1,2.489-.355,10.4,10.4,0,0,1,3.2.709c.358.355,1.425,1.777,2.135,1.777a4.145,4.145,0,0,0,3.557.709c.358,0,.713-1.419,1.067-1.777a8.332,8.332,0,0,1,1.78-1.774,10.866,10.866,0,0,1,2.135-1.422,8.4,8.4,0,0,1,2.844.709c.355.713.709,2.132,1.067,2.844s.709,2.486,1.422,2.841a6.164,6.164,0,0,0,3.557-.355c1.067,0,3.557-1.067,4.624-1.422,2.844-.709,8.181-2.486,11.025-3.2,2.489-.713,7.468-2.135,9.6-2.844s5.692-2.132,7.471-2.841c1.422-.713,4.266-2.489,5.689-3.2,1.78-1.064,4.624-3.908,6.759-4.618a10.077,10.077,0,0,1,4.624-1.422c.713,0,2.489,1.067,3.557,1.422.713,0,2.49-.355,3.557-.355H318.6v3.2c0,1.067-.709,2.844-.709,3.554.355.709.355,1.422.709,1.777a2.366,2.366,0,0,0,1.422,1.777,24.668,24.668,0,0,0,2.847,1.064,19.71,19.71,0,0,1,2.489,3.2,26.773,26.773,0,0,1,2.844,3.908c1.067,1.777,3.557,5.685,4.624,7.817.713,1.777,1.78,5.327,2.49,7.459a11.255,11.255,0,0,1,1.067,3.2c0,.709-.355,2.132-.355,2.486a2.7,2.7,0,0,1-.713,1.777,3.555,3.555,0,0,1-1.777,1.422,11.186,11.186,0,0,0-1.78,2.132c-.355.355-.709,2.132-.355,2.486a2.926,2.926,0,0,0,1.422,2.132c.713.355,2.135-.355,2.847-.709s2.132-1.422,2.844-1.777c.355-.709,1.422-1.777,1.777-2.486.358-.358,1.067-1.067,1.425-1.067a5.286,5.286,0,0,1,2.132-.355,7.637,7.637,0,0,1,1.78,1.422c.355.709.713,2.132,1.068,2.841.355,1.067,1.067,3.2,1.422,3.908a7.779,7.779,0,0,0,1.067,1.777c.713.355,2.135-.355,2.844-.355a2.536,2.536,0,0,1,2.135,1.064,2.421,2.421,0,0,1,1.067,1.777c.713.709,1.422,1.777,2.135,2.486a13.178,13.178,0,0,0,2.49,2.132,21.315,21.315,0,0,1,2.844,1.422,7.292,7.292,0,0,1,.713,2.131,13.348,13.348,0,0,1,.355,3.554,17.672,17.672,0,0,0,1.067,2.486,2.7,2.7,0,0,0,1.422.709c.713,0,1.425-1.064,2.135-1.419.355-.355.713-1.067,1.067-1.422a11.845,11.845,0,0,1,1.067-2.132,1.78,1.78,0,0,1,2.844,0c.713.709,1.067,2.486,1.425,3.2a25.8,25.8,0,0,0,1.777,3.2c.713,1.067,2.49,2.486,3.2,3.554a37.7,37.7,0,0,1,2.49,3.908,36.843,36.843,0,0,1,1.422,3.55c0,.713.355,2.489,0,3.2a4.706,4.706,0,0,1-1.067,1.777,3.815,3.815,0,0,0-.71,2.132,6.54,6.54,0,0,0-.713,2.486,6.819,6.819,0,0,0,1.067,2.844,9.335,9.335,0,0,0,2.844,1.064c.713,0,2.135-.355,2.847-.355a9.858,9.858,0,0,1,3.2.355c.358,0,1.425.355,1.78.355.355.355,1.422,1.067,1.777,1.777a9.765,9.765,0,0,1,.358,3.2c0,.71-.358,2.486-.358,3.2a5.154,5.154,0,0,0,.713,2.489c.355,1.064,2.135,2.128,2.844,2.486s2.135,0,2.848,0c1.067-.358,2.844-1.067,3.911-1.422.713-.355,1.78-1.777,2.489-2.132a14.868,14.868,0,0,1,2.847-2.132c.709-.355,2.131-1.422,2.844-1.422h3.557c1.067,0,2.489.355,3.557.355a1.758,1.758,0,0,0,1.067-.355c0,.355.355.709.355,1.067.355.355,1.067,1.419,1.422,1.777a8.3,8.3,0,0,1,.713,2.841" transform="translate(68.283 5023.626)" fill="#d83a0b" stroke="#fff" stroke-width="0.5" fill-rule="evenodd"/>
    <path id="Path_56" data-name="Path 56" d="M195.972,155.432v-.355c.355-.713,1.425-1.777,1.425-2.489a9.944,9.944,0,0,0,.352-3.2c0-1.067.358-3.2.358-4.266a15.3,15.3,0,0,1,.709-3.908c.358-1.067,1.067-3.2,1.425-4.266.352-2.132.709-6.043,1.419-8.175.358-2.132,1.425-6.043,1.777-8.175.358-1.067,0-3.2.716-4.266a7.559,7.559,0,0,1,1.777-1.422h2.486a4.658,4.658,0,0,1,1.777,1.067,7.282,7.282,0,0,1,2.135,2.486,8.975,8.975,0,0,1,.709,2.489,28.214,28.214,0,0,0,1.425,3.2A10.6,10.6,0,0,0,215.881,127a37.967,37.967,0,0,0,3.912,3.2,8.51,8.51,0,0,0,3.2.709c.352-.355,1.419-1.064,1.774-1.777.355,0,.709-.355,1.067-.709h2.486a7.688,7.688,0,0,1,2.844,1.777,18.9,18.9,0,0,1,3.56,2.132,12.617,12.617,0,0,0,3.905,1.067,6.056,6.056,0,0,0,3.56,0,19.394,19.394,0,0,0,3.2-2.489c.358-.709.716-2.844,1.425-3.908a5.214,5.214,0,0,1,1.777-2.135,11,11,0,0,1,2.135-1.419h9.594q1.069.532,2.135,1.064c.355.355,1.067,1.067,1.422,1.067.355.355,1.064,1.067,1.425,1.067a1.3,1.3,0,0,0,1.064-.358c.355,0,1.419-.355,1.419-.709.713-.713,1.071-2.132,1.428-2.489a10.937,10.937,0,0,1,2.128-1.422c.355-.355,1.777-.355,2.493-.355.352,0,1.419,0,1.777.355.352,0,1.067.713,1.419,1.067A7.852,7.852,0,0,0,278.8,123.8h1.777a2.683,2.683,0,0,0,1.783-.355,7.238,7.238,0,0,0,2.128-2.489,11.169,11.169,0,0,1,1.777-3.554,13.217,13.217,0,0,1,2.493-2.135,6.005,6.005,0,0,1,3.554-1.064h2.844a3.756,3.756,0,0,1,1.777.709c.709,0,1.422,1.067,1.78,1.422,1.064.709,2.841,2.49,3.912,3.2s2.841,3.2,4.26,3.554c1.07.358,2.847,0,3.911,0h3.557c.709-.355,1.777-1.422,2.486-1.777.358-.355.358-1.422.716-1.777s1.068-.709,1.419-1.067c.358,0,1.777-.355,2.135,0a2.686,2.686,0,0,1,.709,1.422,1.748,1.748,0,0,1,.358,1.067,6.052,6.052,0,0,0,2.486.355,8.382,8.382,0,0,0,2.844-.709,26.573,26.573,0,0,0,3.2-1.777c.709-.713,2.128-2.135,2.844-2.844a11.26,11.26,0,0,0,1.419-2.135,2.133,2.133,0,0,0,.355-1.419c.358-.713.358-1.78.716-2.135,0-.709.706-1.067,1.419-1.422.358-.355,1.064-1.064,1.422-1.064a18.586,18.586,0,0,1,4.266-1.067h2.841a7.524,7.524,0,0,0,2.489-1.067,13.83,13.83,0,0,0,3.912-2.132,44.769,44.769,0,0,0,4.269-2.844,39.94,39.94,0,0,1,4.621-3.554c1.067-.713,2.486-2.489,3.554-3.2a31.207,31.207,0,0,0,3.554-2.844c.709-.355,1.425-1.422,2.135-2.135.355,0,.713-.355,1.067-.709a8.277,8.277,0,0,1,3.2,2.49,22.749,22.749,0,0,1,2.841,6.753,10.063,10.063,0,0,1,1.422,4.621,12.534,12.534,0,0,1-.709,3.554c-.355,1.067-2.135,2.135-2.489,3.2a7.294,7.294,0,0,0,1.777,3.2,7.9,7.9,0,0,0,3.912,1.777c1.071,0,2.132-1.419,2.847-2.132a13.679,13.679,0,0,0,3.2-3.2c.716-.709,2.844-3.554,3.2-3.912a16.492,16.492,0,0,1,2.493-2.486,11.857,11.857,0,0,1,4.976.355,7.3,7.3,0,0,0-.709,2.132c0,.358,0,1.422.352,1.78,0,.355,1.071,1.422,1.425,1.777a4.693,4.693,0,0,1,1.064,1.777c.358.709,0,1.777,0,2.132-.355.358-.706.358-1.064.713a6.053,6.053,0,0,0-.355,2.486c.355.713.713,2.135,1.064,2.844a8.973,8.973,0,0,0,2.847,3.554c1.061,1.067,3.554,1.78,4.618,2.135,1.071.709,3.2,1.777,4.266,2.486,1.067.358,3.554.713,4.976,1.067a25.263,25.263,0,0,0,5.334.355,11.362,11.362,0,0,0,3.2-1.064,32.1,32.1,0,0,0,3.557-2.844,9.414,9.414,0,0,0,1.774-3.2v-2.844a11.837,11.837,0,0,0-1.067-2.135c-.352-.709-1.777-1.777-1.777-2.486-.352-.355-.352-1.422-.352-1.777a3.122,3.122,0,0,1,1.422-1.777,3.782,3.782,0,0,1,2.132-.713h.71c.355.713.713,1.067,1.067,1.067,1.064.709,3.2.355,3.912,0,1.422-.713,2.486-2.844,3.554-3.554a8.726,8.726,0,0,1,4.263-.358c1.425,0,3.912,1.422,5.334,2.135,1.777.709,5.337,1.777,7.114,2.486,1.064.355,3.2,1.422,3.554,2.135.71,1.064.71,3.2.71,4.263.355,1.067.709,3.912,1.425,4.621a7.185,7.185,0,0,0,2.486,2.135c1.067,0,3.554-1.78,4.621-2.135a27.513,27.513,0,0,1,5.334-.709,20.406,20.406,0,0,1,4.976,1.777c1.777,1.067,4.27,4.266,5.334,5.688.709,1.064,2.132,3.554,2.844,4.621,1.064,1.777,3.557,5.685,4.621,7.462,1.067,1.422,3.554,4.266,4.266,5.688a18.985,18.985,0,0,1,2.135,3.554c.355,1.067-.713,2.844-.713,3.912a21.8,21.8,0,0,0,1.067,4.621c.358,1.064,1.064,3.2,2.135,3.554.706,0,1.777-1.422,2.486-2.132.709-.358,1.425-1.777,2.131-2.135,1.071,0,2.847.358,3.912.358,1.422.709,3.912,2.486,5.334,2.841,1.067.355,3.2,0,4.266,0s2.841,0,3.557.713a5.785,5.785,0,0,1,1.774,3.2c0,.355-1.067,1.067-1.419,1.422s-1.777.355-2.135.709c-.713.713,0,2.49-.358,3.2a10.953,10.953,0,0,1-1.419,2.135,14.5,14.5,0,0,1-3.2,1.777c-1.067.71-2.847,1.422-3.912,2.132-1.777,1.067-4.979,3.554-6.4,4.621-.706.713-1.777,2.132-2.489,2.844-.706,1.067-2.129,2.489-2.486,3.2-.358,1.067-1.419,2.844-1.067,3.912,0,.709,1.067,1.777,1.777,2.132s3.2.355,3.56,1.064a4.137,4.137,0,0,1-.716,3.557c-.355.709-2.132,1.422-2.132,2.132a2.365,2.365,0,0,0,1.422,1.777c.355.713,1.425,1.067,2.131,1.422.713.713,1.777,2.135,2.493,2.844.706,1.067,1.777,2.844,2.483,3.908s2.135,3.557,3.205,3.912,3.2-.709,3.908-1.067c1.067-.355,2.132-1.777,2.841-2.132.716,0,2.493,1.422,3.2,1.422s2.132-.713,2.844-.713c1.064.358,2.135,1.78,3.2,2.135a5,5,0,0,0,2.131-.713c.716-.355,1.78-1.777,2.493-2.132,1.064-.355,3.2.709,4.263,1.067a17.55,17.55,0,0,0,2.847,2.486c.706.713,2.131,1.422,2.489,2.132.706,1.425.352,4.979.352,6.4,0,1.064-.71,3.2-.352,4.263s3.2,1.422,4.26,2.135c.716.355,2.847.709,3.557,1.422s1.071,2.486,1.425,3.2c.352,1.422,1.068,3.908.71,5.33-.358,2.132-2.844,5.331-3.554,7.11a70.626,70.626,0,0,0-3.911,7.107c-.358,1.067-1.78,4.266-1.422,5.688a9.264,9.264,0,0,0,1.422,3.554c.713,1.067,3.2,3.554,3.554,3.554.358.355,3.912,1.422,4.979,2.49a14.156,14.156,0,0,1,3.55,4.266,12.791,12.791,0,0,1,1.067,6.4,13.212,13.212,0,0,1-1.419,4.976c-1.425,1.422-5.33,2.844-7.11,3.2a12.123,12.123,0,0,1-3.554.355c-1.425-.709-3.2-2.844-4.269-3.554-1.067-.355-3.2-.713-3.912-.355-1.061,0-2.844,1.064-3.554,1.422-.713.71-2.489,2.132-3.2,2.841a18.966,18.966,0,0,0-1.783,3.912c-.352,1.777-.352,5.33-.706,7.107-.358,1.422-.358,5.334-1.422,6.4-.358,1.067-2.847,1.78-3.911,2.135-1.425,0-3.912-.713-4.979-.713-1.422.358-4.263.358-5.334,1.422-1.064.713-1.777,3.911-2.486,4.976a16.925,16.925,0,0,1-3.2,3.912c-1.061.355-3.2.355-4.263.713s-3.554,1.064-4.269,2.132c-.71.71-1.061,2.844-1.061,3.908-.358,1.067.351,3.2.706,4.266.713,1.422,3.557,3.554,4.624,4.976.71.713,2.135,2.49,2.135,3.557.352,1.419-1.425,3.908-2.493,4.976-1.419.709-4.621.709-6.4,1.064-.709.358-2.486.713-3.2,1.067s-2.49,1.777-2.49,2.844c0,1.422,2.132,3.554,2.49,4.976.713,1.422,1.777,4.266,1.419,6.043a9.632,9.632,0,0,1-2.483,2.844c-1.071.355-3.2-.355-4.27-.713a6.7,6.7,0,0,1-2.844-.709c-1.067-1.067-1.067-3.912-1.067-5.334,0-1.064,1.067-3.554,1.067-4.621s0-2.841-.71-3.554c-.358-.709-1.777-1.067-2.489-1.067a8.365,8.365,0,0,0-4.263.358c-1.783,1.064-2.844,4.976-3.912,6.043a8.4,8.4,0,0,1-3.553,1.777c-1.425,0-4.27-1.067-4.982-2.135-1.064-.709-1.777-2.841-2.132-3.908s0-3.554-.71-4.266a4.31,4.31,0,0,0-1.777-1.777c.352-.709.706-1.422,1.064-2.132.713-.713,1.777-2.135,2.489-2.844a6.533,6.533,0,0,0,.71-2.49c0-.355.355-1.422,0-1.777a3.013,3.013,0,0,0-1.067-1.777c-.355,0-1.067-.355-1.419-.355-.713,0-1.777.355-2.135,0a.764.764,0,0,1-.713-.713c-.355-.709-1.419-1.777-1.777-2.486a7.494,7.494,0,0,1,1.071-2.49,20.246,20.246,0,0,1,.352-2.486V291.569a11.643,11.643,0,0,0-2.135-2.132c-.352-1.067-1.777-2.489-2.129-3.2a36.115,36.115,0,0,0-3.911-3.557,19.183,19.183,0,0,0-3.912-1.777c-.713-.355-1.777-1.422-2.489-1.777-1.064-.355-3.557,0-4.618,0s-3.557.355-4.624.355-3.2-.355-4.263-.355c-.358-.355-1.783-.355-2.493-.713-.355-.355-1.419-1.419-1.774-1.777a11.124,11.124,0,0,1-2.138-1.777,5.021,5.021,0,0,0-3.2-.355,5.1,5.1,0,0,0-2.489.713c-.713.355-1.422,1.419-1.78,1.777a11.632,11.632,0,0,1-1.067,2.131,8.406,8.406,0,0,0,.713,2.844c0,.709,1.064,1.777,1.064,2.132a11.581,11.581,0,0,1,1.071,2.135c.355,1.064-.358,2.841-.358,3.908-.355,1.067-.355,2.489-.713,3.2,0,.709-1.064,1.422-1.419,2.135,0,.355-.358,1.064-.358,1.419,0,.713,0,1.777.358,2.135,0,.355,1.419.355,1.777.355s1.425-.713,1.777-.713h2.49c.712,0,2.132,0,2.489.358v1.777a7.787,7.787,0,0,1-.358,2.844,6.379,6.379,0,0,1-2.489,1.777c-.355,0-1.422.355-1.777.355a10.375,10.375,0,0,1-3.2.709c-1.067.358-3.2-.355-4.621-.355a8.315,8.315,0,0,0-2.844.713,5.2,5.2,0,0,0-1.774,2.131,4.756,4.756,0,0,1-1.78,1.067,3.018,3.018,0,0,1-1.777-1.067c-.713-.355-2.135-2.131-2.847-2.489a5.13,5.13,0,0,0-2.486-.709,18.844,18.844,0,0,0-4.624-.355c-.706.355-2.132.355-2.841.71s-1.777,1.422-2.49,1.777a11.018,11.018,0,0,1-3.557-.355c-.355,0-1.067-1.067-1.067-1.777-.351-.713,0-2.844.358-3.908.355-.713,2.132-1.422,2.847-2.135.355-.71,1.777-1.422,2.132-2.132s1.422-1.777,1.422-2.49a7.79,7.79,0,0,0-.358-2.844c-.355-.355-1.064-1.419-1.419-1.777a11.931,11.931,0,0,1-2.138-1.064,14.458,14.458,0,0,0-3.908-.358,15.134,15.134,0,0,1-2.489-1.422,8.319,8.319,0,0,1-1.777-1.777,6.089,6.089,0,0,1,0-3.554c0-.709,1.425-1.067,1.777-1.777.709-.355,1.777-.713,2.132-1.422.358,0,.713-.713,1.071-1.067a3.6,3.6,0,0,0,.351-1.064c-.351,0-1.064-.358-1.064-.713a2.7,2.7,0,0,1-.713-1.777c0-.355.713-.709.713-1.067.355-.355,1.064-1.064,1.064-1.422a6,6,0,0,0,.358-2.486c-.358-.355-1.067-1.422-1.422-1.422-.358-.355-1.422,0-1.78,0-.355.355-1.061.709-1.061,1.067a13.442,13.442,0,0,1-6.046,1.064,10.415,10.415,0,0,1-3.2-.71c-.71-.355-2.486-1.067-3.2-1.422-.709-.713-2.128-1.777-2.844-2.49a16.725,16.725,0,0,1-3.554-3.554c-1.067-1.067-2.844-3.2-3.912-4.266a7.21,7.21,0,0,0-2.486-2.132,11.211,11.211,0,0,1-2.135-1.422,8.513,8.513,0,0,0-3.2-1.067c-.361-.355-1.783-.355-2.138-.355-.706,0-2.132.713-2.841.713a9.322,9.322,0,0,1-2.847,1.064,4.059,4.059,0,0,1-2.132,1.067,10.33,10.33,0,0,1-3.2-.713c-.713-.355-1.78-1.777-2.49-2.132a30.124,30.124,0,0,0-2.489-3.554c-.709-.713-2.128-2.844-2.844-3.554a11.612,11.612,0,0,0-2.128-1.067,7.377,7.377,0,0,0-3.912-.355,10.517,10.517,0,0,0-3.554.71c-1.067.355-2.135,1.422-3.2,1.422-.358.355-1.777-.355-2.486-.709L314,243.937a10.784,10.784,0,0,0-1.422-2.132,4.272,4.272,0,0,0-1.777-1.777,3.816,3.816,0,0,0-2.132-.713c-.351,0-1.422,0-1.78.358a3.014,3.014,0,0,0-1.064,1.777,6.051,6.051,0,0,0-.355,2.486,7.578,7.578,0,0,0,1.064,2.489c0,.355.713,1.067,1.067,1.777,0,.355.716,1.777.716,2.135v2.132c0,.709-.716,1.422-1.071,1.777a16.154,16.154,0,0,1-3.557,2.489c-.71.355-2.844.71-3.554,1.064-.355,0-1.067.358-1.419.358a1.771,1.771,0,0,1-1.07.355c-1.067,0-2.486-.355-3.554-.355h-3.554c-.709,0-2.135,1.064-2.844,1.419a14.884,14.884,0,0,0-2.844,2.135c-.709.355-1.777,1.777-2.486,2.132-1.067.355-2.844,1.067-3.912,1.422-.716,0-2.135.355-2.844,0s-2.493-1.422-2.844-2.486a5.129,5.129,0,0,1-.716-2.489c0-.713.358-2.489.358-3.2a9.777,9.777,0,0,0-.358-3.2,8.245,8.245,0,0,0-1.777-1.777c-.355,0-1.419-.358-1.777-.358a9.86,9.86,0,0,0-3.2-.355c-.716,0-2.138.355-2.847.355a9.3,9.3,0,0,1-2.844-1.064,6.846,6.846,0,0,1-1.067-2.844,6.578,6.578,0,0,1,.716-2.489,3.791,3.791,0,0,1,.709-2.132,4.778,4.778,0,0,0,1.064-1.777c.355-.713,0-2.489,0-3.2a35.821,35.821,0,0,0-1.422-3.554,37.592,37.592,0,0,0-2.486-3.912c-.71-1.067-2.493-2.489-3.2-3.554a26.951,26.951,0,0,1-1.777-3.2c-.358-.713-.71-2.49-1.419-3.2a1.775,1.775,0,0,0-2.844,0,11.423,11.423,0,0,0-1.067,2.132c-.358.355-.71,1.067-1.067,1.422-.709.355-1.425,1.422-2.135,1.422a2.673,2.673,0,0,1-1.419-.713,16.625,16.625,0,0,1-1.067-2.486,13.227,13.227,0,0,0-.358-3.554,7.283,7.283,0,0,0-.71-2.135,21.349,21.349,0,0,0-2.844-1.422,13.291,13.291,0,0,1-2.486-2.132c-.716-.709-1.425-1.777-2.138-2.489a2.422,2.422,0,0,0-1.067-1.777,2.526,2.526,0,0,0-2.132-1.064c-.713,0-2.131.71-2.844.355a7.9,7.9,0,0,1-1.067-1.777c-.355-.713-1.064-2.844-1.422-3.912-.351-.709-.709-2.132-1.061-2.844a7.837,7.837,0,0,0-1.783-1.422,5.236,5.236,0,0,0-2.128.358c-.358,0-1.067.709-1.425,1.064-.351.713-1.419,1.78-1.777,2.49-.709.355-2.135,1.422-2.844,1.777s-2.135,1.067-2.844.713a2.928,2.928,0,0,1-1.419-2.135c-.358-.355,0-2.132.352-2.489a11.526,11.526,0,0,1,1.777-2.132,3.54,3.54,0,0,0,1.783-1.422,2.727,2.727,0,0,0,.709-1.777c0-.355.352-1.777.352-2.486a11.422,11.422,0,0,0-1.061-3.2c-.716-2.132-1.783-5.685-2.493-7.462-1.067-2.135-3.554-6.043-4.621-7.82A26.955,26.955,0,0,0,202.727,170a19.879,19.879,0,0,0-2.486-3.2,23.923,23.923,0,0,1-2.844-1.064,2.375,2.375,0,0,1-1.425-1.78c-.352-.355-.352-1.064-.713-1.777,0-.709.713-2.486.713-3.554Z" transform="translate(191.023 4977.968)" fill="#d83a0b" stroke="#fff" stroke-width="0.5" fill-rule="evenodd"/>
    <path id="Path_60" data-name="Path 60" d="M407.787,187.945a6.762,6.762,0,0,1,3.2,1.064,6.316,6.316,0,0,1,1.422,3.55,15.656,15.656,0,0,1-.713,3.55,7.241,7.241,0,0,1-2.132,2.486l-2.844,2.841a20.067,20.067,0,0,0-1.777,2.838,4.746,4.746,0,0,0,1.067,1.777c.709.709,2.844,1.064,3.908,1.064.713.355,2.489,0,3.554.355a11.07,11.07,0,0,1,1.422,2.132c.355.709,0,2.841,0,3.55a20.79,20.79,0,0,1-.709,4.615c0,.71-1.067,2.486-1.422,3.2a14.284,14.284,0,0,0-1.777,3.2A9.268,9.268,0,0,0,409.918,227a4.931,4.931,0,0,0,0,3.2c.355.709,1.777,1.419,2.132,1.774,1.067.355,2.844.71,3.554,1.064a11.17,11.17,0,0,1,1.777,2.132,4.7,4.7,0,0,1,1.067,1.774c0,1.067-.355,2.841-.355,3.55a11.335,11.335,0,0,0-1.068,3.2c-.355,1.067-1.422,2.841-1.422,3.905-.355,1.067,0,3.2,0,4.26a10.406,10.406,0,0,1-1.064,3.55,31.549,31.549,0,0,0-2.132,3.55,27.865,27.865,0,0,0-1.422,3.2,24.015,24.015,0,0,0-.713,4.973,26.126,26.126,0,0,0,1.777,3.193c.713.713,2.135,2.486,2.135,3.55a5.159,5.159,0,0,1-2.135,3.2c-.71,1.067-3.2,2.132-4.618,2.486-1.068,0-2.844.355-3.908.355-1.777,0-4.621.355-6.043,0-1.064,0-2.132-1.064-2.841-1.774-.713-.355-1.777-2.132-2.49-2.486a6.383,6.383,0,0,0-3.2-1.419,6.605,6.605,0,0,0-2.489.709c-.71.355-1.422,1.774-2.132,2.486a15.022,15.022,0,0,0-1.777,2.483,10.82,10.82,0,0,1-1.777,2.486,11.281,11.281,0,0,1-2.132,1.774,8.368,8.368,0,0,1-2.844.713c-.709.355-2.486,0-3.554-.358a7.692,7.692,0,0,0-1.777-1.419,6.053,6.053,0,0,0-2.486.355c-.709,0-1.777,1.064-2.486,1.422s-2.135.709-2.844,1.064-1.777,1.064-2.486,1.419c-.358.709-1.422,2.486-1.777,3.2a5.186,5.186,0,0,0-1.777,2.132c-.713.709-1.422,2.483-2.132,2.838-.358.713-2.135,1.067-2.844,1.422a8.364,8.364,0,0,1-2.844.709c-1.064.355-3.2,0-4.263.355a21.744,21.744,0,0,0-4.621,1.064,25.345,25.345,0,0,0-3.2,2.486,5.7,5.7,0,0,0-1.422,2.486,6.577,6.577,0,0,0,.709,2.483,10.97,10.97,0,0,0,1.422,2.132c1.067,1.064,3.2,2.486,3.908,3.55.713.355,1.422,1.777,2.132,2.132a14.489,14.489,0,0,0,3.2,1.774,10.517,10.517,0,0,0,3.554-.709c.713-.709,2.132-2.132,2.844-2.841.355-.355.71-1.064,1.422-1.419a5.736,5.736,0,0,1,3.2-1.067,3.119,3.119,0,0,1,2.49.358,8.3,8.3,0,0,1,2.486,2.483,8.366,8.366,0,0,1-.71,2.841c0,.709-1.067,1.419-1.422,2.132a8.282,8.282,0,0,1-.713,2.838c0,1.067.358,3.2.358,4.26a9.748,9.748,0,0,1-.358,3.2,7.818,7.818,0,0,1-.355,2.841,7.242,7.242,0,0,1-2.132,2.486c-.355.709-1.777,1.419-2.132,2.128-.355.355-1.422.713-1.422,1.422-.355.355-.355,1.419-.355,1.774a11.632,11.632,0,0,0,1.067,2.132,15.043,15.043,0,0,1,2.486,1.774c.355.355,1.064,1.422,1.422,1.777.709.709,1.777,1.774,1.777,2.486a7.81,7.81,0,0,1,.355,2.838c.355,1.422,1.422,6.391,1.422,6.391v29.823a13.387,13.387,0,0,0,2.132,1.777c.355.709,1.422,2.483,1.777,3.2a10.5,10.5,0,0,1,.709,3.55c0,.709-.355,2.483-.355,3.193a31.591,31.591,0,0,0-.709,5.327c0,1.419,0,3.905.709,4.969.355,1.422,3.2,3.55,3.908,4.618a30.481,30.481,0,0,1,3.2,3.905,13.746,13.746,0,0,1,2.132,3.905,9.606,9.606,0,0,1-.709,6.034c-.355.355-1.422,1.067-1.777,1.777a5.2,5.2,0,0,0-2.132,1.774,2.716,2.716,0,0,1-.713,1.422c-1.422-.358-3.2-.713-4.263-1.067-2.132-.71-5.685-2.128-7.82-2.838-1.777-.358-6.04-.358-8.171-1.067-1.422-.355-3.908-2.128-4.976-2.841-1.422-.709-3.2-3.193-4.263-3.547-1.422-.713-4.621,0-6.043.355l-5.685,1.419c-2.131.71-5.33,2.486-7.462,2.841a31.152,31.152,0,0,1-5.685-.709,24.017,24.017,0,0,1-4.263-2.132,29.689,29.689,0,0,0-2.844-4.26c-1.064-.709-3.554-1.064-4.618-1.422-1.422,0-3.912.358-4.976-.355a5.656,5.656,0,0,1-1.777-3.551c0-1.064,2.486-2.128,2.841-3.192s.713-2.841.358-3.55c-.358-1.422-2.489-3.2-3.2-4.263-.713-.71-2.132-2.483-2.132-3.55a7.459,7.459,0,0,1,1.419-3.905,7.239,7.239,0,0,1,2.135-2.483c.709-.713,2.486-1.067,3.2-1.422,1.067-.355,3.554-.709,4.266-1.064a12.073,12.073,0,0,0,2.132-2.132c.355-1.064.355-3.192,1.067-3.905a24.519,24.519,0,0,1,2.841-1.064,13.11,13.11,0,0,0,3.908-1.774,4,4,0,0,0,1.777-2.841c.355-.709-.355-2.486-.709-3.55a18.838,18.838,0,0,0-2.132-3.55c-.713-1.067-2.135-2.841-2.844-3.905a9.839,9.839,0,0,1-.355-3.2c0-.709,1.064-2.486,1.422-3.2,0-.709.71-1.774.355-2.486a5.186,5.186,0,0,0-2.132-3.2,12.527,12.527,0,0,0-7.107-1.064c-1.067,0-2.844,1.422-3.908,1.422s-3.2,0-4.266-.713-2.486-2.838-2.486-3.905,1.064-2.483,1.422-3.2l2.841-2.838c.355-.713,1.422-2.131,1.422-2.841a24.645,24.645,0,0,0,1.067-7.1c.355-1.777,1.064-4.969,1.419-6.746a39.394,39.394,0,0,1,.713-6.746,23.3,23.3,0,0,1,1.777-5.324,18.566,18.566,0,0,1,3.908-3.55c1.422-1.064,4.263-2.486,5.331-3.55.709-.709,2.841-1.777,3.2-2.841a8.625,8.625,0,0,0,0-4.26c-.713-1.064-2.844-2.132-3.554-2.841a46.109,46.109,0,0,0-5.685-3.2c-.713-.355-1.777-1.774-2.49-1.774A5.309,5.309,0,0,0,302.6,294.1a2.768,2.768,0,0,0-.355,2.841c.355,1.064,2.486,2.128,2.486,2.841,0,1.064-1.777,2.838-2.844,3.193a4.889,4.889,0,0,1-3.2,0c-1.422-.355-3.554-1.774-3.912-3.193-1.064-1.422-.709-5.682-1.419-7.456-.713-1.422-2.135-3.908-2.844-4.973-1.422-1.419-3.908-4.615-5.33-6.034s-5.33-3.905-7.107-5.327c-1.064-.709-3.908-2.132-4.976-3.2-.71-1.064-1.064-4.26-1.777-5.679a7.176,7.176,0,0,0-2.132-2.486c-.709-.709-2.841-.355-3.554-.355a32.1,32.1,0,0,0-5.685,1.064,47.515,47.515,0,0,0-6.395,2.486c-1.777.709-4.976,2.483-6.753,3.2a19.547,19.547,0,0,1-6.04,1.774c-1.422,0-4.266,0-5.688-.709a11.071,11.071,0,0,1-3.2-2.486c-1.422-1.064-3.554-3.905-4.976-4.969a39.27,39.27,0,0,0-6.043-1.777,31.308,31.308,0,0,0-6.04-.71,31.148,31.148,0,0,0-5.685-.709,27.477,27.477,0,0,0-5.331.709,21.562,21.562,0,0,0-4.621,1.067c-1.064.709-3.554,1.774-4.618,2.838a13.173,13.173,0,0,0-1.777,3.905c-.355,1.067-.355,3.55-.709,4.618-.358.709-1.067,2.841-1.777,3.2s-2.135,0-2.844,0-2.486-.355-3.2.355c-.709.355-.709,2.128-1.422,2.128a3.008,3.008,0,0,1-2.486,0,13.1,13.1,0,0,1-1.777-3.905c-.355-1.064-.709-3.55-1.067-4.615a32.445,32.445,0,0,0-2.841-4.615,56.621,56.621,0,0,1-2.49-7.1,7.267,7.267,0,0,1,0-3.905c0-1.422,1.422-3.55,1.777-4.618s1.777-3.193,1.777-4.26c0-1.774-1.419-4.969-1.419-6.746-.358-2.128.71-6.746.71-8.875,0-1.419-.355-3.905-.355-5.327-.713-2.128-1.422-5.679-2.132-7.456a35.893,35.893,0,0,0-4.621-5.679,21.391,21.391,0,0,0-4.618-3.2c-1.777-.709-5.688-1.777-7.82-2.486-1.064,0-2.841-.71-3.554-.71a43.4,43.4,0,0,0-6.04-2.486h-3.2c-1.064.355-2.486,2.132-3.554,2.486a15.133,15.133,0,0,1-3.908-.709,4.939,4.939,0,0,1-2.844-2.486c-.355-.355-.355-2.128-.355-2.483.355-1.067,1.422-2.841,1.777-3.908.355-.355,1.777-1.774,1.777-2.483a4.522,4.522,0,0,0-2.486-3.2,7.47,7.47,0,0,0-3.908-1.419,9.849,9.849,0,0,0-3.2.355c-1.067.709-2.132,2.838-3.2,3.905a27.181,27.181,0,0,1-3.2,3.2c-1.064.709-3.554,1.064-4.618,1.419s-3.554,0-4.976.355c-1.067.355-2.844,2.132-3.908,2.486a7.286,7.286,0,0,1-3.2,1.774A34.313,34.313,0,0,1,96.5,202.5c-.713-.355-2.135-1.777-2.844-2.132-.709-.709-1.777-2.483-2.844-3.2s-4.263-1.064-5.685-1.774a12.465,12.465,0,0,1-2.841-1.774,37.418,37.418,0,0,1-3.2-3.908,31.194,31.194,0,0,1-3.2-7.1,27.48,27.48,0,0,1-.709-5.327,40.8,40.8,0,0,1-.355-6.391c.355-1.774,1.064-5.324,1.419-6.746,0-1.064.358-2.838,0-3.905-.709-1.064-2.841-2.483-3.554-3.192-.709-1.067-2.486-3.2-2.841-4.618-.355-.709,0-2.838-.355-3.55,0-1.064-1.422-3.2-1.777-4.26a28.069,28.069,0,0,1-1.067-5.324,20.817,20.817,0,0,1-.709-4.618,18.961,18.961,0,0,1,1.777-3.905,15.435,15.435,0,0,0,2.132-2.483,6.145,6.145,0,0,0,.355-3.55,18.962,18.962,0,0,0-1.777-6.391c-.709-1.064-1.777-3.55-2.844-3.905-.709-.709-2.841-.355-3.908-.355a23.912,23.912,0,0,1-4.263-2.132,16.289,16.289,0,0,1-2.844-4.615c-1.064-2.132-1.064-6.391-1.777-8.165A23.187,23.187,0,0,0,50.3,93.859a1.85,1.85,0,0,0,1.422-.709,49.142,49.142,0,0,1,7.107-1.064,24.681,24.681,0,0,1,4.618,1.774c1.067.709,2.132,3.905,3.554,4.615s4.621-.355,6.4-.355,5.33-.355,7.107.355a13.184,13.184,0,0,1,4.973,2.486c.713,1.064,1.067,3.905,1.777,4.969.713,1.777,1.777,4.973,3.2,6.037,1.067,1.064,3.908,3.2,5.33,3.55a13.526,13.526,0,0,0,5.33-1.774c1.777-.713,4.976-3.2,6.4-4.263,1.777-1.419,4.973-4.615,6.749-6.034,1.777-1.777,5.688-4.615,7.465-6.391a12.765,12.765,0,0,0,2.486-3.55.347.347,0,0,0,.355-.355c.355.355.713.709.713,1.064.709.355,2.132.713,2.841,1.067s2.132.709,2.844,1.064a18.716,18.716,0,0,0,4.263,1.064c1.067,0,2.844-1.064,3.554-1.064a15.691,15.691,0,0,1,3.554-.709c.709,0,2.132.355,2.486,1.064.713.709.358,3.2.713,4.26a45.479,45.479,0,0,0,3.2,5.682,14.634,14.634,0,0,0,3.908,2.483,14.586,14.586,0,0,0,3.908.355c1.777,0,4.976-.709,6.395-.709.358.355,1.422.355,1.777.709.713,0,1.422,1.067,1.777,1.422.358.709,0,2.128.713,2.486.355.355,1.777-.358,2.132-.713a2.922,2.922,0,0,0,2.132-1.419,4.047,4.047,0,0,0,1.067-2.132,43.735,43.735,0,0,0,1.777-4.969c.355-1.419.71-3.905,1.419-4.969a10.217,10.217,0,0,1,2.844-4.618,9.763,9.763,0,0,1,3.2-2.483,17.319,17.319,0,0,1,4.263-.355c.713.355,2.489,1.064,3.2,1.419.355.355,1.067,2.132,1.422,2.486a6.066,6.066,0,0,0,3.554,0c.709,0,1.419-1.422,1.777-1.777a8.366,8.366,0,0,1,2.841-.709c.355,0,1.422,0,1.777.355.713.709,1.067,2.486,1.422,3.2,0,.709,0,2.486.355,2.841.713,1.064,3.908,2.128,4.976,2.483a14.459,14.459,0,0,1,3.908.358,11.278,11.278,0,0,1,3.2,1.064c.355.355,1.422,1.064,1.777,1.419.709.355,1.777,1.422,2.486,1.422,1.067.355,2.489-.713,3.554-1.067a26.529,26.529,0,0,1,4.266-2.483c1.064-.355,3.554-1.422,4.618-1.067s2.132,1.777,2.844,2.486c.355.709,1.064,2.841,1.422,3.55a13.409,13.409,0,0,0,2.486,2.132c-.355.355-.709,1.064-1.067,1.419a11.75,11.75,0,0,0-1.064,2.132,7.381,7.381,0,0,0-.713,2.128,10.428,10.428,0,0,0,1.067,3.55,20.377,20.377,0,0,0,3.908,3.905,16.039,16.039,0,0,0,4.263,2.132c1.422.709,4.266,2.483,6.043,3.2a20.817,20.817,0,0,0,4.618.709,14.621,14.621,0,0,0,3.912-.355c.709-.355,2.132-1.777,2.841-1.777a13.362,13.362,0,0,1,3.554-.355c1.777,0,4.976-.355,6.4-.355h2.486a6.006,6.006,0,0,0,3.554-1.064c1.067-.355,2.486-2.132,3.554-3.2a16.426,16.426,0,0,1,2.486-2.486c.358-.355,1.422-.355,2.135-.709a12.089,12.089,0,0,1,3.55.355c.358.355.358,1.777.358,2.486a5.049,5.049,0,0,1-.713,2.128c-.355.358-1.064,1.422-1.422,1.777a3.745,3.745,0,0,0-.709,1.774c-.355,1.422,0,3.905-.355,4.973,0,1.064.355,3.55,0,4.615v5.324a17.318,17.318,0,0,0,.355,4.263,11.272,11.272,0,0,0,2.132,1.774,7.222,7.222,0,0,0,2.489,2.132,8.365,8.365,0,0,1,2.841.71h3.908a5.216,5.216,0,0,0,2.135-1.777,37.1,37.1,0,0,0,2.486-3.905,7.23,7.23,0,0,1,2.132-2.483,3.145,3.145,0,0,1,1.777-1.422h2.49c.709.355,2.132.709,2.841,1.064a11.136,11.136,0,0,1,1.777,3.554,10.946,10.946,0,0,1,.355,3.55v2.483a6.132,6.132,0,0,0,2.132,2.132c.358.355,1.422,0,2.135,0a5.139,5.139,0,0,1,2.486.71,5.729,5.729,0,0,1,2.486,1.419c.713.713,1.777,1.777,1.777,2.486a7.762,7.762,0,0,1,.358,2.841,10.684,10.684,0,0,0,1.419,2.841c.358.355,1.067,1.419,1.777,1.774.358,0,1.777-.355,2.49-.355a6.051,6.051,0,0,1,2.486.355c.709.355,2.132.709,2.486,1.419a3.8,3.8,0,0,1,.713,2.132c.355,1.064.355,3.2.71,4.615a14.572,14.572,0,0,0,.355,3.905,6.113,6.113,0,0,0,2.135,2.132c.709.709,2.841,2.132,3.908,2.132a8.671,8.671,0,0,0,4.263,0,11.592,11.592,0,0,0,4.976-1.422c.709-.355,2.131-1.419,3.2-2.128,1.419-.358,4.263-1.422,5.685-1.777a17.361,17.361,0,0,1,6.04.355,28.374,28.374,0,0,1,5.33,1.064,57.422,57.422,0,0,1,7.462,1.777c.713.709,2.844,1.774,2.844,2.486.355.709-.355,2.128-.355,2.483-.358.713-1.777,1.422-1.777,1.777,0,1.064,1.419,2.483,2.132,2.841.355.355,1.777.355,2.132.709,1.067,0,2.844-.355,3.554,0,.709,0,1.422,1.419,1.777,1.774.709.355,1.777,0,2.132.355a17.347,17.347,0,0,0,4.266-.355c1.064-.355,2.486-1.774,3.2-2.128a13.18,13.18,0,0,1,2.489-2.132,10.377,10.377,0,0,1,3.2-.709,1.306,1.306,0,0,1,1.067.355" transform="translate(-127.182 4985.624)" fill="#d83a0b" stroke="#fff" stroke-width="0.5" fill-rule="evenodd"/>
    <path id="Path_64" data-name="Path 64" d="M71.836,101.4a4.891,4.891,0,0,0-1.064-1.438c-.355-.716-1.067-1.79-1.422-2.509-.709-.716-1.064-2.87-1.419-3.586-.355-1.077-1.067-2.515-1.422-3.589,0-.719.355-2.157,0-2.515-.355-.716-2.128-1.074-2.841-1.074a17.146,17.146,0,0,0-4.26.358c-.709,0-1.774,1.438-2.486,1.8-.709,0-2.128.358-3.2.358-.355,0-1.774-.358-2.128,0A4.291,4.291,0,0,0,49.821,91c-.355.358-.355,1.438-.355,1.8a11.819,11.819,0,0,1,1.064,2.151,13.272,13.272,0,0,1,2.132,2.512v2.509c-.355.358-1.064,1.08-1.419,1.08-.713.358-1.777.716-2.486,1.077s-1.777,1.432-2.486,1.79c-1.064.358-2.486.716-3.55,1.08a7.794,7.794,0,0,1-1.777,1.435,10.854,10.854,0,0,1-3.55.358H34.2c-.709,0-2.486-1.077-3.2-1.435a7.36,7.36,0,0,0-2.128-.722c-.713,0-2.132,1.08-2.841,1.438-.355.361-1.422,1.077-1.422,1.435-.355.716,0,1.8,0,2.512,0,.358-.709,1.077-.709,1.793,0,.358.709,1.074,1.064,1.438,0,.716-.355,1.793-.355,2.509l1.422,4.3c.355.358.355.716.355,1.432,0,0,2.128,1.8,2.841,2.515.709.361,2.128.716,2.841,1.074a4.309,4.309,0,0,1,1.774,1.8c1.064.719,1.777,3.947,3.2,3.947,1.064.358,2.486-1.438,3.2-2.151A16.53,16.53,0,0,0,43.074,124c.709-1.435,1.064-4.3,1.419-5.74.713-1.438,1.422-4.3,2.486-5.743a8.418,8.418,0,0,1,3.2-2.867c.709-.722,2.486-.722,3.55-1.08a29.336,29.336,0,0,0,5.327-1.432c1.064-.358,2.841-1.435,3.905-1.793,1.067-.722,3.2-1.438,4.263-2.154a15.942,15.942,0,0,0,3.905-1.074Z" transform="translate(-185.12 4974.518)" fill="#d83a0b" stroke="#fff" stroke-width="0.5" fill-rule="evenodd"/>
    <path id="Path_68" data-name="Path 68" d="M472.594,227.237c.355.355,0,1.425,0,1.78a6.62,6.62,0,0,1-.71,2.493c-.713.709-1.777,2.135-2.489,2.844l-1.064,2.138h-.355a7.368,7.368,0,0,0-3.908-.358c-.713.358-2.49,1.78-3.2,2.135-1.064.713-3.2,1.425-3.908,2.493s-.71,4.627-1.064,6.049A36.037,36.037,0,0,1,453.407,255a27.869,27.869,0,0,1-3.55,5.34c-1.422,1.422-5.685,3.557-7.462,4.269-1.422.713-4.618,1.425-5.685,2.493a27.972,27.972,0,0,0-1.777,4.982c-.355,1.422-.355,4.628-1.064,6.05a24.21,24.21,0,0,1-2.132,4.273c-.713,1.067-3.2,2.135-3.554,3.2-.713,1.422-.355,4.627-.355,6.049s.71,3.915.355,5.34a18.053,18.053,0,0,1-3.2,4.627,56.37,56.37,0,0,0-4.618,4.628c-.713,1.067-2.132,2.847-2.132,3.915s1.777,2.847,2.132,3.915c.355,1.422,1.064,4.627.71,6.049s-2.486,3.2-3.554,3.915c-1.419,1.067-4.618,1.425-6.04,2.138s-3.908,2.135-4.618,3.557c-1.067,1.425-1.067,4.982-1.777,6.407a52.235,52.235,0,0,1-3.554,7.83c-1.419,2.135-4.618,5.34-6.04,7.117-.355,1.071-1.777,3.205-1.777,4.273.358,1.067,2.844,2.493,3.908,3.2,1.422.713,3.908,1.78,5.33,2.493.71.713,2.841,1.422,2.841,2.49.358.712-1.064,2.138-1.419,2.847-.713.713-2.486,2.138-3.2,2.847-.709,1.067-2.486,3.56-3.2,4.985-.355,1.422-.709,4.982-1.064,6.4,0,2.138.355,6.053.355,7.829.355,1.426,1.067,4.628,1.777,5.695a6.25,6.25,0,0,0,3.2,2.847,18.941,18.941,0,0,0,3.55-1.067,5.745,5.745,0,0,1,2.489-1.422c.71-.358,2.486.713,2.841,1.422.355,1.067-1.064,3.56-1.064,4.627,0,1.78,1.419,4.628,2.132,6.053.709,1.068,2.841,2.49,3.55,3.557a17.741,17.741,0,0,1,2.844,2.493,18.406,18.406,0,0,1,.71,3.915,27.007,27.007,0,0,0,.355,5.337,6.286,6.286,0,0,0,2.844,3.205c1.064.355,3.554-1.067,4.618-1.067.713,0,2.844,0,3.908.71a6,6,0,0,1,2.131,3.915c.355,1.071-.355,3.205-.709,4.273,0,1.067-.355,3.2-1.067,3.915s-2.486,1.425-2.841,2.493c-.355.709.355,2.848.709,3.557a9.535,9.535,0,0,0,2.844,2.493c1.064.355,3.908,0,4.973.713,1.067.355,2.486,2.135,3.2,3.2.71.713,1.064,3.2,1.064,4.273a8.74,8.74,0,0,1-1.419,4.27c-.713,1.425-3.2,2.847-4.266,3.915a8.292,8.292,0,0,0-2.486,2.493c-.709,1.422-1.064,4.982-1.419,6.4,0,2.138.709,6.053.709,8.188,0,1.78.355,5.337-.355,7.117s-3.554,4.627-4.976,6.053a19.116,19.116,0,0,1-4.618,2.489,10.919,10.919,0,0,1-4.618,1.067,11.188,11.188,0,0,1-3.2-1.067c-.709-.355-2.132-2.135-3.2-2.847A7.535,7.535,0,0,0,409,490.613a12.613,12.613,0,0,0-3.908,1.067c-1.064.713-2.132,2.847-3.2,3.915-.713.713-2.49,2.847-3.553,3.205a5.754,5.754,0,0,1-3.2,1.067,17.174,17.174,0,0,1-4.263-.358c-1.068-.71-2.841-2.844-3.908-3.557a14.99,14.99,0,0,0-1.777-2.493,10.515,10.515,0,0,0-3.554-.713,10.237,10.237,0,0,0-4.618-.355,18.687,18.687,0,0,0-3.554,3.915c-.709,1.78-1.422,5.695-2.131,7.475-.709,1.425-1.422,3.915-2.132,4.982-.71.358-2.486,1.425-3.2,1.067-1.419,0-3.2-2.135-4.263-3.2-.71-.713-1.419-2.493-2.486-3.2a11.821,11.821,0,0,0-2.132-1.071c-1.422,0-4.618,0-5.685.713-1.422.358-3.554,2.493-4.618,3.205a48.863,48.863,0,0,1-4.263,4.269c-1.422.358-3.908.713-5.33,1.067-1.777,0-5.33,0-6.749-.71a6.03,6.03,0,0,1-2.844-2.138,6.14,6.14,0,0,1-.709-4.27c.355-.713,2.132-1.78,2.841-2.493a4.012,4.012,0,0,0,.355-2.847c0-1.422-1.774-3.2-2.486-4.27-.355-1.071-2.132-2.493-2.486-3.56a28.3,28.3,0,0,1-1.422-3.2c-.355-1.425-.355-3.918-.709-5.34s-1.422-3.915-1.777-5.34a13.194,13.194,0,0,0-1.777-3.915c-.355-1.067-2.132-2.135-3.2-2.848s-3.908-2.135-5.327-2.847c-1.067-.709-3.2-1.422-3.908-2.135-.713-.355-1.777-2.135-2.844-2.49-1.064-.713-3.908-1.425-5.327-.713-1.067.355-2.49,2.489-3.554,3.2-1.067.355-3.554,1.78-4.618,1.78-1.422-.355-3.909-3.2-4.621-4.627-.709-1.067-.709-3.915-.355-4.982a16.682,16.682,0,0,1,3.2-4.27c.709-.713,2.486-2.493,2.841-3.56a6.175,6.175,0,0,0-.355-3.56c-.709-1.422-3.554-2.847-4.618-3.56-1.777-1.067-4.976-2.847-6.4-4.269-.709-.713-2.132-2.493-2.841-3.2a11.2,11.2,0,0,0-3.2-1.071c-1.064.358-2.841,2.138-3.55,2.851-1.067.709-2.489,2.135-3.2,2.489a8.842,8.842,0,0,1-3.2-.355c-.709,0-1.777-1.425-2.486-1.425a12.623,12.623,0,0,0-3.554-.709c-1.064,0-3.2.355-4.263,0a15.153,15.153,0,0,1-4.263-3.918c-.709-.71-1.067-2.847-1.422-3.915-.355-.713-.709-2.135-1.419-2.49-.713-.713-2.844-.358-3.554-.713a14.448,14.448,0,0,1-3.2-1.78c-.709-1.067-1.064-3.56-1.422-4.627-.355-1.422-.709-3.915-1.419-4.982-.355-1.067-1.422-3.56-2.486-4.269a13.073,13.073,0,0,0-4.976-2.493c-1.422-.355-4.618,0-6.04-.355a11.532,11.532,0,0,1-4.618-1.425c-2.132-.713-5.33-3.56-6.753-4.982-1.419-1.067-3.554-3.915-4.973-4.982a11.337,11.337,0,0,0-1.777-2.138,17.41,17.41,0,0,0-3.908-1.422c-1.067,0-2.844-.358-3.554,0-1.064.355-2.486,2.493-3.554,3.2q-1.064.537-2.132,1.067a15.446,15.446,0,0,1,.355-1.777c.358-.713,1.067-1.78,1.422-2.493.709-.713,2.486-2.135,3.554-3.2a27.532,27.532,0,0,0,3.2-3.205,19.766,19.766,0,0,0,1.774-2.847c0-.71-.355-2.135-.355-2.848,0-.355,0-1.777.355-2.135a17.914,17.914,0,0,1,.713-4.27,23.885,23.885,0,0,1,2.131-4.273,18.6,18.6,0,0,1,3.554-3.915,12.778,12.778,0,0,1,3.55-2.493c1.067-.71,2.844-1.777,3.908-2.49a10.957,10.957,0,0,0,1.422-2.135c.355-.358.355-1.425.355-2.138s-.355-2.135-.355-2.847a4.705,4.705,0,0,1,1.067-1.777,19.429,19.429,0,0,1,3.2-2.493,23.824,23.824,0,0,1,4.263-2.135,37.244,37.244,0,0,1,3.554-1.425,11.042,11.042,0,0,0,3.554-1.78,5.4,5.4,0,0,0,1.422-2.847,7.552,7.552,0,0,0-1.067-2.49c-.355-.713-1.777-1.425-2.132-2.135a2.718,2.718,0,0,1-.71-1.425,9.889,9.889,0,0,1-.355-3.2c0-1.067-.358-3.205-.358-4.273,0-.355.358-1.777.358-2.135-.358-.355-1.067-1.067-1.422-1.422a3.806,3.806,0,0,1-2.132-.713,7.228,7.228,0,0,1-2.132-2.493c-.713-.355-2.132-1.422-2.844-1.422-.709-.358-2.132-.713-2.841-1.067h-3.2c-.709.355-2.132,1.422-2.841,1.78a6.067,6.067,0,0,1-3.554,0,6.153,6.153,0,0,1-2.131-2.138,3.608,3.608,0,0,1-1.422-2.489,9.519,9.519,0,0,1-1.064-4.273,13.408,13.408,0,0,0-.355-3.56,7.579,7.579,0,0,0-1.067-2.489c-.355-.713-1.422-1.78-1.777-2.493-.355-.355-1.777-1.067-2.132-1.422,0-.358-.355-1.425-.355-1.78s0-1.425.355-1.78a2.141,2.141,0,0,1,1.422-.355h1.777a3.552,3.552,0,0,1,1.064-.358c1.067-.355,3.2-1.422,4.263-1.78,1.422-1.067,4.263-3.2,5.33-4.27a26.8,26.8,0,0,0,3.908-4.982,13.85,13.85,0,0,0,2.132-3.915v-2.847a20.365,20.365,0,0,0,.355-4.627,11.016,11.016,0,0,1-.355-3.56c0-.713-.355-1.78,0-2.49a2.929,2.929,0,0,1,1.422-2.138,2.7,2.7,0,0,1,1.419.713,5.215,5.215,0,0,1,1.777,2.135,15.793,15.793,0,0,0,1.422,2.493,5.285,5.285,0,0,0,2.131.355h2.132c.713-.355,1.777-1.067,2.486-1.422s1.777-1.425,2.49-1.425,1.419.713,2.132.713c.71.355,1.777,1.78,2.486,2.135h2.486a7.551,7.551,0,0,0,2.489-1.067,3.805,3.805,0,0,1,2.132-.713c1.064-.355,3.908,0,5.327,0h4.263a15.107,15.107,0,0,0,3.908-.709,35.9,35.9,0,0,0,6.04-1.067c1.067-.358,2.844-1.78,3.908-2.138a6.089,6.089,0,0,0,2.132-2.135,1.6,1.6,0,0,0,1.067-1.067c0-.713-1.422-1.067-1.777-1.425a17.406,17.406,0,0,0-1.064-2.49,11.625,11.625,0,0,1-1.067-2.135,5.155,5.155,0,0,1,.71-2.493,8.855,8.855,0,0,1,2.489-1.422c.355-.713,1.777-1.78,2.132-2.493a11.017,11.017,0,0,0,.355-3.56c0-.713-.709-2.489-.709-3.2-.358-.713-1.067-2.135-1.422-2.847a23.981,23.981,0,0,0-2.132-4.273c-.713-1.067-1.777-4.269-2.844-5.337a52.264,52.264,0,0,0-3.2-4.627c-.713-.355-1.777-1.067-2.489-1.422s-2.132-.358-2.841-.713a1.608,1.608,0,0,1-1.067-1.067c0-.358.358-1.425.358-1.78h1.419a5.775,5.775,0,0,1,2.49,0c.709,0,2.132.355,2.486.355l2.131-1.067h2.132c.355-.355,1.067-.713,1.422-1.067a6.019,6.019,0,0,0,1.064-2.135c.355-1.067,0-2.847.355-3.56,0-.713,1.067-1.78,1.422-2.493a2.7,2.7,0,0,1,1.422-.709,6.883,6.883,0,0,1,2.486-.358c1.422,0,4.263-.355,5.685-.355,1.777-.355,4.976-.355,6.395-1.067a12.51,12.51,0,0,0,2.844-1.78c1.064-1.067,2.132-3.56,2.841-4.627a12.509,12.509,0,0,1,1.777-2.847,5.238,5.238,0,0,1,2.132-1.78c.709-.709,3.2-1.067,3.908-1.78a5.22,5.22,0,0,0,1.777-2.135,11.159,11.159,0,0,0,1.422-2.135,4.952,4.952,0,0,0,0-3.2,4.121,4.121,0,0,0-1.777-2.493c-.713-.355-2.49-.355-3.2-.713-1.064-.355-2.841-.713-3.554-1.422-.709,0-1.419-.358-1.419-.713a3.027,3.027,0,0,1,0-2.493,8.1,8.1,0,0,1,.355-1.422c.71-1.067,2.841-2.135,3.554-2.493a14.419,14.419,0,0,0,3.2-1.777,11.136,11.136,0,0,0,1.422-2.138c0-.355.709-1.067.709-1.422-.355-.713-1.777-1.067-2.132-1.78,0-.355.355-1.425.355-2.135.358-.713.713-2.138,1.067-2.847.355-.358,1.064-.713,1.422-1.067s.355-1.425.355-2.138v-2.49a8.329,8.329,0,0,0-.713-2.847c-.355-.358-1.064-1.425-1.419-1.78,0-.355-.355-.713-.355-1.067.355,0,1.064-.358,1.419-.358.713-.355,2.844-.709,3.554-1.067a7.666,7.666,0,0,0,1.777-1.067,7.764,7.764,0,0,0,1.777-1.422,3.033,3.033,0,0,0,1.064-1.78v-2.135c0-.358-.71-1.78-.71-2.138-.355-.709-1.067-1.422-1.067-1.777a7.556,7.556,0,0,1-1.064-2.493,6.081,6.081,0,0,1,.355-2.493,3.013,3.013,0,0,1,1.067-1.777c.355-.358,1.419-.358,1.777-.358a3.824,3.824,0,0,1,2.132.713,4.3,4.3,0,0,1,1.777,1.78,11,11,0,0,1,1.419,2.135l1.777,1.78c.709.355,2.132,1.067,2.486.713,1.067,0,2.132-1.067,3.2-1.425a10.516,10.516,0,0,1,3.554-.713,7.37,7.37,0,0,1,3.908.358,11.831,11.831,0,0,1,2.132,1.067c.709.713,2.132,2.847,2.841,3.557a30.507,30.507,0,0,1,2.486,3.56c.713.358,1.777,1.78,2.489,2.135a10.293,10.293,0,0,0,3.2.713,4.047,4.047,0,0,0,2.131-1.067,9.287,9.287,0,0,0,2.844-1.067c.71,0,2.132-.713,2.841-.713.355,0,1.777,0,2.132.358a8.435,8.435,0,0,1,3.2,1.067,11.072,11.072,0,0,0,2.132,1.422,7.284,7.284,0,0,1,2.486,2.135c1.067,1.071,2.844,3.205,3.908,4.273a16.914,16.914,0,0,0,3.554,3.56c.709.709,2.132,1.777,2.841,2.489.713.358,2.489,1.067,3.2,1.425a10.376,10.376,0,0,0,3.2.71,13.332,13.332,0,0,0,6.04-1.067c0-.355.709-.709,1.064-1.067.355,0,1.422-.355,1.777,0,.355,0,1.067,1.067,1.422,1.425a6.065,6.065,0,0,1-.355,2.489c0,.358-.713,1.067-1.067,1.425,0,.355-.709.713-.709,1.067a2.721,2.721,0,0,0,.709,1.78c0,.355.709.713,1.067.713a3.581,3.581,0,0,1-.358,1.067c-.355.355-.709,1.067-1.064,1.067-.355.713-1.422,1.067-2.132,1.422-.355.713-1.777,1.067-1.777,1.78a6.056,6.056,0,0,0,0,3.56,8.478,8.478,0,0,0,1.777,1.78,15.46,15.46,0,0,0,2.486,1.422,14.59,14.59,0,0,1,3.909.355,11.812,11.812,0,0,0,2.132,1.071c.355.355,1.067,1.422,1.422,1.777a7.87,7.87,0,0,1,.355,2.847c0,.713-1.067,1.78-1.422,2.493s-1.777,1.425-2.132,2.135c-.709.713-2.486,1.425-2.841,2.138-.355,1.067-.713,3.2-.355,3.915,0,.709.71,1.78,1.064,1.78a10.975,10.975,0,0,0,3.554.355c.709-.355,1.777-1.425,2.486-1.78s2.132-.355,2.844-.713a18.643,18.643,0,0,1,4.618.358,5.14,5.14,0,0,1,2.486.709c.713.358,2.131,2.138,2.844,2.493a3.018,3.018,0,0,0,1.777,1.067,4.737,4.737,0,0,0,1.774-1.067,5.245,5.245,0,0,1,1.777-2.135,8.315,8.315,0,0,1,2.844-.713c1.422,0,3.554.713,4.618.355a10.417,10.417,0,0,0,3.2-.709c.355,0,1.419-.358,1.777-.358a6.355,6.355,0,0,0,2.486-1.78,7.852,7.852,0,0,0,.355-2.847v-1.777c-.355-.358-1.777-.358-2.486-.358h-2.486c-.358,0-1.422.713-1.777.713s-1.777,0-1.777-.355c-.355-.358-.355-1.425-.355-2.138,0-.355.355-1.067.355-1.422.355-.713,1.419-1.425,1.419-2.135.358-.713.358-2.138.713-3.205,0-1.067.709-2.847.355-3.915a11.623,11.623,0,0,0-1.067-2.135c0-.355-1.064-1.422-1.064-2.135a8.4,8.4,0,0,1-.71-2.847,12,12,0,0,0,1.064-2.135,8.323,8.323,0,0,1,1.777-1.78,5.106,5.106,0,0,1,2.486-.713,5.025,5.025,0,0,1,3.2.355,11.167,11.167,0,0,0,2.132,1.78c.355.358,1.422,1.425,1.777,1.78.709.355,2.132.355,2.486.713,1.067,0,3.2.355,4.263.355s3.553-.355,4.618-.355,3.554-.358,4.621,0c.71.355,1.777,1.422,2.486,1.78a18.848,18.848,0,0,1,3.908,1.78,35.188,35.188,0,0,1,3.908,3.557c.355.713,1.777,2.135,2.132,3.2a11.686,11.686,0,0,1,2.132,2.138v29.183a20.133,20.133,0,0,0-.355,2.493,7.567,7.567,0,0,0-1.064,2.489c.355.713,1.419,1.78,1.774,2.493a.769.769,0,0,0,.713.713c.355.355,1.419,0,2.132,0,.355,0,1.064.355,1.422.355a3.033,3.033,0,0,1,1.064,1.78" transform="translate(185.229 5081.592)" fill="#d83a0b" stroke="#fff" stroke-width="0.5" fill-rule="evenodd"/>
  </g>
</svg>
