<svg xmlns="http://www.w3.org/2000/svg" width="14.656" height="14" viewBox="0 0 14.656 14">
  <path id="stars-regular" d="M14.451-7.561l-4-.582-1.789-3.62a.873.873,0,0,0-.809-.487.853.853,0,0,0-.76.487L5.3-8.143l-4,.582A.875.875,0,0,0,.813-6.068l2.9,2.792-.684,4A.876.876,0,0,0,3.888,1.75a.866.866,0,0,0,.407-.1L7.875-.23l3.579,1.879A.875.875,0,0,0,12.726.727l-.685-3.979,2.9-2.792A.891.891,0,0,0,14.451-7.561ZM10.67-3.484,11.282.074l-3.2-1.681a.438.438,0,0,0-.407,0L4.468.074,5.08-3.484a.519.519,0,0,0-.126-.388L2.365-6.39l3.579-.521a.437.437,0,0,0,.328-.24l1.6-3.241,1.6,3.24a.438.438,0,0,0,.329.239l3.579.521L10.8-3.873A.438.438,0,0,0,10.67-3.484Z" transform="translate(-0.547 12.25)" fill="#e65125"/>
</svg>
